<svg width="20" height="20" viewBox="0 0 20 20" fill="none" xmlns="http://www.w3.org/2000/svg">
<path d="M9.99902 17.709C11.5235 17.709 13.0138 17.2569 14.2814 16.41C15.5489 15.563 16.5369 14.3592 17.1203 12.9507C17.7037 11.5423 17.8563 9.99243 17.5589 8.49723C17.2615 7.00202 16.5274 5.62859 15.4494 4.55061C14.3714 3.47262 12.998 2.73851 11.5028 2.44109C10.0076 2.14368 8.45774 2.29632 7.04929 2.87972C5.64084 3.46312 4.43701 4.45107 3.59005 5.71865C2.74308 6.98622 2.29102 8.47649 2.29102 10.001C2.29102 12.0453 3.10311 14.0058 4.54864 15.4514C5.99417 16.8969 7.95473 17.709 9.99902 17.709V17.709Z" fill="#F6F6F6"/>
<path d="M11.4492 7.10742L8.54922 9.99942L11.4492 12.8924" stroke="#272127" stroke-width="1.5" stroke-miterlimit="10" stroke-linecap="round" stroke-linejoin="round"/>
</svg>
