<svg width="20" height="20" viewBox="0 0 20 20" fill="none" xmlns="http://www.w3.org/2000/svg">
<g id="Property 1=Bold, State=Active">
<path id="Vector" d="M5 17V3H10.561C11.6341 3 12.565 3.35 13.3537 4.05C14.1423 4.75 14.5366 5.63333 14.5366 6.7C14.5366 7.33333 14.3659 7.91667 14.0244 8.45C13.6829 8.98333 13.2276 9.39167 12.6585 9.675V9.825C13.3577 10.0583 13.9228 10.475 14.3537 11.075C14.7846 11.675 15 12.35 15 13.1C15 14.2333 14.5732 15.1667 13.7195 15.9C12.8659 16.6333 11.8699 17 10.7317 17H5ZM7.09756 8.925H10.4146C10.9837 8.925 11.4756 8.73333 11.8902 8.35C12.3049 7.96667 12.5122 7.48333 12.5122 6.9C12.5122 6.31667 12.3049 5.82917 11.8902 5.4375C11.4756 5.04583 10.9837 4.85 10.4146 4.85H7.09756V8.925ZM7.09756 15.1H10.6098C11.2276 15.1 11.7642 14.8917 12.2195 14.475C12.6748 14.0583 12.9024 13.5333 12.9024 12.9C12.9024 12.2833 12.6748 11.7667 12.2195 11.35C11.7642 10.9333 11.2276 10.725 10.6098 10.725H7.09756V15.1Z" fill="#644BFD"/>
</g>
</svg>
