<svg width="20" height="21" viewBox="0 0 20 21" fill="none" xmlns="http://www.w3.org/2000/svg">
<g id="Component 2365">
<path id="Vector" d="M5 17.5V3.5H10.561C11.6341 3.5 12.565 3.85 13.3537 4.55C14.1423 5.25 14.5366 6.13333 14.5366 7.2C14.5366 7.83333 14.3659 8.41667 14.0244 8.95C13.6829 9.48333 13.2276 9.89167 12.6585 10.175V10.325C13.3577 10.5583 13.9228 10.975 14.3537 11.575C14.7846 12.175 15 12.85 15 13.6C15 14.7333 14.5732 15.6667 13.7195 16.4C12.8659 17.1333 11.8699 17.5 10.7317 17.5H5ZM7.09756 9.425H10.4146C10.9837 9.425 11.4756 9.23333 11.8902 8.85C12.3049 8.46667 12.5122 7.98333 12.5122 7.4C12.5122 6.81667 12.3049 6.32917 11.8902 5.9375C11.4756 5.54583 10.9837 5.35 10.4146 5.35H7.09756V9.425ZM7.09756 15.6H10.6098C11.2276 15.6 11.7642 15.3917 12.2195 14.975C12.6748 14.5583 12.9024 14.0333 12.9024 13.4C12.9024 12.7833 12.6748 12.2667 12.2195 11.85C11.7642 11.4333 11.2276 11.225 10.6098 11.225H7.09756V15.6Z" fill="#7A797D"/>
</g>
</svg>
