<svg width="140" height="28" viewBox="0 0 140 28" fill="none" xmlns="http://www.w3.org/2000/svg">
<path d="M2.27011 26.5V3.15027H11.61C13.2748 3.15027 14.6206 3.48538 15.6476 4.1556C16.6745 4.81502 17.4258 5.64739 17.9015 6.65273C18.3771 7.65806 18.6149 8.67421 18.6149 9.70116C18.6149 11.0092 18.3176 12.0956 17.7231 12.9604C17.1394 13.8252 16.334 14.4035 15.307 14.6954V13.8847C16.7664 14.1873 17.8582 14.863 18.5825 15.9115C19.3176 16.9601 19.6851 18.133 19.6851 19.4302C19.6851 20.8247 19.4257 22.0517 18.9068 23.111C18.3987 24.1704 17.6204 25.0028 16.5718 25.6082C15.5232 26.2027 14.2044 26.5 12.6153 26.5H2.27011ZM6.74548 22.3489H12.1613C12.7559 22.3489 13.2856 22.2246 13.7504 21.976C14.2152 21.7165 14.5774 21.3598 14.8368 20.9058C15.1071 20.441 15.2422 19.8951 15.2422 19.2681C15.2422 18.7168 15.1287 18.2249 14.9017 17.7925C14.6747 17.3601 14.3287 17.0196 13.8639 16.7709C13.4099 16.5115 12.8424 16.3818 12.1613 16.3818H6.74548V22.3489ZM6.74548 12.2631H11.5451C12.0424 12.2631 12.4856 12.1767 12.8748 12.0037C13.2639 11.8307 13.572 11.5659 13.799 11.2092C14.0261 10.8416 14.1396 10.3714 14.1396 9.79845C14.1396 9.08499 13.918 8.48503 13.4747 7.99858C13.0315 7.51213 12.3883 7.2689 11.5451 7.2689H6.74548V12.2631ZM30.7996 26.9865C29.0375 26.9865 27.4917 26.5919 26.162 25.8028C24.8324 25.0136 23.7946 23.9272 23.0487 22.5435C22.3137 21.149 21.9461 19.5491 21.9461 17.7439C21.9461 15.9169 22.3245 14.3117 23.0812 12.928C23.8379 11.5335 24.881 10.4471 26.2107 9.66873C27.5403 8.89041 29.0699 8.50125 30.7996 8.50125C32.5616 8.50125 34.1074 8.89581 35.4371 9.68495C36.7775 10.4741 37.8207 11.5659 38.5666 12.9604C39.3125 14.3441 39.6854 15.9386 39.6854 17.7439C39.6854 19.5599 39.3071 21.1652 38.5504 22.5597C37.8045 23.9434 36.7613 25.0298 35.4209 25.819C34.0912 26.5973 32.5508 26.9865 30.7996 26.9865ZM30.7996 22.8678C32.2157 22.8678 33.2697 22.3922 33.9615 21.4409C34.6642 20.4788 35.0155 19.2464 35.0155 17.7439C35.0155 16.1872 34.6587 14.944 33.9453 14.0144C33.2426 13.0847 32.1941 12.6199 30.7996 12.6199C29.8375 12.6199 29.0483 12.8361 28.4322 13.2685C27.816 13.7009 27.3565 14.3008 27.0539 15.0684C26.762 15.8359 26.6161 16.7277 26.6161 17.7439C26.6161 19.3113 26.9674 20.5599 27.67 21.4895C28.3835 22.4084 29.4267 22.8678 30.7996 22.8678ZM51.1318 26.9865C49.3697 26.9865 47.8239 26.5919 46.4942 25.8028C45.1646 25.0136 44.1268 23.9272 43.3809 22.5435C42.6459 21.149 42.2783 19.5491 42.2783 17.7439C42.2783 15.9169 42.6567 14.3117 43.4134 12.928C44.1701 11.5335 45.2132 10.4471 46.5429 9.66873C47.8725 8.89041 49.4021 8.50125 51.1318 8.50125C52.8938 8.50125 54.4396 8.89581 55.7693 9.68495C57.1097 10.4741 58.1529 11.5659 58.8988 12.9604C59.6447 14.3441 60.0176 15.9386 60.0176 17.7439C60.0176 19.5599 59.6393 21.1652 58.8826 22.5597C58.1367 23.9434 57.0935 25.0298 55.7531 25.819C54.4234 26.5973 52.883 26.9865 51.1318 26.9865ZM51.1318 22.8678C52.5479 22.8678 53.6019 22.3922 54.2937 21.4409C54.9964 20.4788 55.3477 19.2464 55.3477 17.7439C55.3477 16.1872 54.9909 14.944 54.2775 14.0144C53.5748 13.0847 52.5263 12.6199 51.1318 12.6199C50.1697 12.6199 49.3805 12.8361 48.7644 13.2685C48.1482 13.7009 47.6888 14.3008 47.3861 15.0684C47.0942 15.8359 46.9483 16.7277 46.9483 17.7439C46.9483 19.3113 47.2996 20.5599 48.0022 21.4895C48.7157 22.4084 49.7589 22.8678 51.1318 22.8678ZM63.551 26.5L63.5834 3.15027H68.0588V17.4195L73.9935 8.9877H79.4418L73.1179 17.7439L79.8634 26.5H74.1232L68.0588 18.0682V26.5H63.551ZM81.8013 6.55544V2.66381H86.2118V6.55544H81.8013ZM81.8013 26.5V8.9877H86.2118V26.5H81.8013ZM97.9158 26.9865C95.7106 26.9865 93.9269 26.4892 92.5649 25.4947C91.2136 24.4893 90.392 23.0732 90.1002 21.2463L94.608 20.5653C94.7917 21.3868 95.1971 22.03 95.8241 22.4949C96.4619 22.9597 97.2672 23.1921 98.2401 23.1921C99.0401 23.1921 99.6563 23.0408 100.089 22.7381C100.521 22.4246 100.737 21.9922 100.737 21.4409C100.737 21.095 100.651 20.8193 100.478 20.6139C100.305 20.3977 99.9157 20.1869 99.3103 19.9815C98.7158 19.7761 97.7861 19.5059 96.5213 19.1708C95.0944 18.8032 93.954 18.3925 93.1 17.9384C92.246 17.4844 91.6298 16.9439 91.2514 16.3169C90.8731 15.6791 90.6839 14.9116 90.6839 14.0144C90.6839 12.8901 90.9704 11.9172 91.5433 11.0957C92.1162 10.2633 92.9216 9.62549 93.9594 9.18228C95.0079 8.72826 96.2403 8.50125 97.6564 8.50125C99.0293 8.50125 100.245 8.71204 101.305 9.13364C102.364 9.55523 103.218 10.1552 103.867 10.9335C104.526 11.7118 104.932 12.6307 105.083 13.6901L100.575 14.5008C100.499 13.8522 100.218 13.3388 99.7319 12.9604C99.2455 12.582 98.5861 12.3604 97.7537 12.2956C96.9429 12.2415 96.2889 12.3496 95.7917 12.6199C95.3052 12.8901 95.062 13.2793 95.062 13.7874C95.062 14.09 95.1647 14.3441 95.3701 14.5495C95.5863 14.7549 96.0241 14.9657 96.6835 15.1819C97.3537 15.3981 98.3699 15.6791 99.7319 16.0251C101.062 16.371 102.126 16.7763 102.926 17.2412C103.737 17.6952 104.326 18.2465 104.694 18.8951C105.061 19.5329 105.245 20.3058 105.245 21.2139C105.245 23.0084 104.596 24.4191 103.299 25.446C102.002 26.473 100.208 26.9865 97.9158 26.9865ZM120.743 26.5V18.2303C120.743 17.8303 120.721 17.3223 120.678 16.7061C120.635 16.0791 120.499 15.4521 120.272 14.8251C120.045 14.1981 119.672 13.6739 119.154 13.2523C118.645 12.8307 117.921 12.6199 116.981 12.6199C116.602 12.6199 116.197 12.6793 115.765 12.7982C115.332 12.9172 114.927 13.1496 114.548 13.4955C114.17 13.8306 113.857 14.3279 113.608 14.9873C113.37 15.6467 113.251 16.5223 113.251 17.6141L110.722 16.4142C110.722 15.0305 111.003 13.7333 111.565 12.5226C112.127 11.3119 112.97 10.3336 114.094 9.58766C115.23 8.84176 116.656 8.46882 118.375 8.46882C119.748 8.46882 120.867 8.70123 121.732 9.16607C122.597 9.6309 123.267 10.22 123.742 10.9335C124.229 11.647 124.575 12.3929 124.78 13.1712C124.986 13.9387 125.11 14.6414 125.153 15.2792C125.196 15.9169 125.218 16.3818 125.218 16.6737V26.5H120.743ZM108.776 26.5V3.15027H112.7V15.1494H113.251V26.5H108.776Z" fill="#3A4049"/>
<rect x="132.989" y="20.6396" width="6.86023" height="6.86023" fill="#54CB2B"/>
</svg>
