<svg width="20" height="22" viewBox="0 0 20 22" fill="none" xmlns="http://www.w3.org/2000/svg">
<g id="Calendar">
<path id="Line_200" d="M1.09277 8.40479H18.9173" stroke="white" stroke-width="1.5" stroke-miterlimit="10" stroke-linecap="round" stroke-linejoin="round"/>
<path id="Line_201" d="M14.4429 12.311H14.4519" stroke="white" stroke-width="1.5" stroke-miterlimit="10" stroke-linecap="round" stroke-linejoin="round"/>
<path id="Line_202" d="M10.0059 12.311H10.0149" stroke="white" stroke-width="1.5" stroke-miterlimit="10" stroke-linecap="round" stroke-linejoin="round"/>
<path id="Line_203" d="M5.55859 12.311H5.56759" stroke="white" stroke-width="1.5" stroke-miterlimit="10" stroke-linecap="round" stroke-linejoin="round"/>
<path id="Line_204" d="M14.4429 16.1973H14.4519" stroke="white" stroke-width="1.5" stroke-miterlimit="10" stroke-linecap="round" stroke-linejoin="round"/>
<path id="Line_205" d="M10.0059 16.1973H10.0149" stroke="white" stroke-width="1.5" stroke-miterlimit="10" stroke-linecap="round" stroke-linejoin="round"/>
<path id="Line_206" d="M5.55859 16.1973H5.56759" stroke="white" stroke-width="1.5" stroke-miterlimit="10" stroke-linecap="round" stroke-linejoin="round"/>
<path id="Line_207" d="M14.0439 1.00098V4.29198" stroke="white" stroke-width="1.5" stroke-miterlimit="10" stroke-linecap="round" stroke-linejoin="round"/>
<path id="Line_208" d="M5.96484 1.00098V4.29198" stroke="white" stroke-width="1.5" stroke-miterlimit="10" stroke-linecap="round" stroke-linejoin="round"/>
<path id="Path" d="M14.2389 2.58056H5.7714C5.13789 2.50882 4.49635 2.57873 3.89316 2.78525C3.28997 2.99177 2.7402 3.32973 2.2836 3.77471C1.82699 4.21968 1.47496 4.76055 1.25296 5.35822C1.03096 5.95588 0.94452 6.59541 0.999904 7.23056V16.2726C0.940811 16.912 1.02402 17.5566 1.24355 18.16C1.46309 18.7635 1.81351 19.3108 2.26965 19.7628C2.72579 20.2148 3.27635 20.5602 3.88179 20.7742C4.48723 20.9882 5.13255 21.0655 5.7714 21.0006H14.2284C14.862 21.0721 15.5036 21.0019 16.1067 20.7952C16.7099 20.5885 17.2597 20.2504 17.7162 19.8053C18.1728 19.3602 18.5248 18.8193 18.7468 18.2216C18.9688 17.6238 19.0552 16.9843 18.9999 16.3491V7.23056C19.0581 6.59569 18.974 5.95584 18.7536 5.3576C18.5333 4.75936 18.1823 4.21779 17.7262 3.77234C17.2701 3.32689 16.7204 2.98877 16.1172 2.7826C15.5139 2.57643 14.8722 2.50741 14.2389 2.58056V2.58056Z" stroke="white" stroke-width="1.5" stroke-miterlimit="10" stroke-linecap="round" stroke-linejoin="round"/>
</g>
</svg>
