<svg width="20" height="22" viewBox="0 0 20 22" fill="none" xmlns="http://www.w3.org/2000/svg">
<g id="Calendar">
<path id="Line_200" d="M1.09326 8.40527H18.9178" stroke="black" stroke-width="1.5" stroke-miterlimit="10" stroke-linecap="round" stroke-linejoin="round"/>
<path id="Line_201" d="M14.4431 12.3105H14.4521" stroke="black" stroke-width="1.5" stroke-miterlimit="10" stroke-linecap="round" stroke-linejoin="round"/>
<path id="Line_202" d="M10.0061 12.3105H10.0151" stroke="black" stroke-width="1.5" stroke-miterlimit="10" stroke-linecap="round" stroke-linejoin="round"/>
<path id="Line_203" d="M5.55859 12.3105H5.56759" stroke="black" stroke-width="1.5" stroke-miterlimit="10" stroke-linecap="round" stroke-linejoin="round"/>
<path id="Line_204" d="M14.4431 16.1973H14.4521" stroke="black" stroke-width="1.5" stroke-miterlimit="10" stroke-linecap="round" stroke-linejoin="round"/>
<path id="Line_205" d="M10.0061 16.1973H10.0151" stroke="black" stroke-width="1.5" stroke-miterlimit="10" stroke-linecap="round" stroke-linejoin="round"/>
<path id="Line_206" d="M5.55859 16.1973H5.56759" stroke="black" stroke-width="1.5" stroke-miterlimit="10" stroke-linecap="round" stroke-linejoin="round"/>
<path id="Line_207" d="M14.0442 1.00098V4.29198" stroke="black" stroke-width="1.5" stroke-miterlimit="10" stroke-linecap="round" stroke-linejoin="round"/>
<path id="Line_208" d="M5.96509 1.00098V4.29198" stroke="black" stroke-width="1.5" stroke-miterlimit="10" stroke-linecap="round" stroke-linejoin="round"/>
<path id="Path" d="M14.2391 2.58007H5.77165C5.13813 2.50833 4.49659 2.57824 3.8934 2.78476C3.29021 2.99128 2.74044 3.32924 2.28384 3.77422C1.82724 4.21919 1.47521 4.76006 1.2532 5.35773C1.0312 5.95539 0.944765 6.59492 1.00015 7.23007V16.2721C0.941055 16.9115 1.02426 17.5561 1.2438 18.1595C1.46333 18.763 1.81375 19.3104 2.26989 19.7623C2.72604 20.2143 3.27659 20.5597 3.88203 20.7737C4.48748 20.9877 5.13279 21.065 5.77165 21.0001H14.2286C14.8622 21.0716 15.5038 21.0014 16.107 20.7947C16.7102 20.588 17.2599 20.2499 17.7165 19.8048C18.173 19.3597 18.525 18.8188 18.747 18.2211C18.969 17.6234 19.0555 16.9838 19.0001 16.3486V7.23007C19.0583 6.59521 18.9742 5.95535 18.7539 5.35711C18.5335 4.75887 18.1825 4.2173 17.7264 3.77185C17.2704 3.3264 16.7207 2.98828 16.1174 2.78211C15.5141 2.57594 14.8725 2.50692 14.2391 2.58007V2.58007Z" stroke="black" stroke-width="1.5" stroke-miterlimit="10" stroke-linecap="round" stroke-linejoin="round"/>
</g>
</svg>
