<svg width="23" height="18" viewBox="0 0 23 18" fill="none" xmlns="http://www.w3.org/2000/svg">
<g id="3 User">
<path id="Stroke 1" d="M17.138 7.61902C17.8228 7.52186 18.4496 7.18117 18.9037 6.65938C19.3577 6.1376 19.6084 5.46967 19.61 4.77802C19.6099 4.09691 19.368 3.43796 18.9273 2.91858C18.4867 2.3992 17.876 2.05313 17.204 1.94202" stroke="white" stroke-width="1.5" stroke-miterlimit="10" stroke-linecap="round" stroke-linejoin="round"/>
<path id="Stroke 3" d="M18.979 10.9719C20.33 11.1719 21.273 11.6469 21.273 12.6219C21.273 13.2929 20.829 13.7289 20.111 14.0029" stroke="white" stroke-width="1.5" stroke-miterlimit="10" stroke-linecap="round" stroke-linejoin="round"/>
<path id="Stroke 5" d="M11.137 11.386C7.92298 11.386 5.17798 11.873 5.17798 13.818C5.17798 15.763 7.90598 16.263 11.137 16.263C14.351 16.263 17.095 15.781 17.095 13.835C17.095 11.889 14.368 11.386 11.137 11.386Z" stroke="white" stroke-width="1.5" stroke-miterlimit="10" stroke-linecap="round" stroke-linejoin="round"/>
<path id="Stroke 7" d="M11.137 8.60997C12.1449 8.60627 13.1102 8.20279 13.8209 7.48811C14.5317 6.77342 14.9298 5.80593 14.928 4.798C14.9261 3.79007 14.5244 2.82405 13.8111 2.11198C13.0977 1.39992 12.1309 1 11.123 1C10.1151 1 9.1483 1.39992 8.43493 2.11198C7.72155 2.82405 7.31985 3.79007 7.318 4.798C7.31615 5.80593 7.71429 6.77342 8.42504 7.48811C9.13579 8.20279 10.1011 8.60627 11.109 8.60997H11.137Z" stroke="white" stroke-width="1.5" stroke-miterlimit="10" stroke-linecap="round" stroke-linejoin="round"/>
<path id="Stroke 9" d="M5.13499 7.61902C4.45456 7.52414 3.83071 7.18842 3.37671 6.67281C2.9227 6.15719 2.66864 5.49586 2.66066 4.8089C2.65267 4.12194 2.89129 3.45488 3.33318 2.92885C3.77508 2.40282 4.39095 2.05268 5.06899 1.94202" stroke="white" stroke-width="1.5" stroke-miterlimit="10" stroke-linecap="round" stroke-linejoin="round"/>
<path id="Stroke 11" d="M3.294 10.9719C1.943 11.1719 1 11.6469 1 12.6219C1 13.2929 1.444 13.7289 2.162 14.0029" stroke="white" stroke-width="1.5" stroke-miterlimit="10" stroke-linecap="round" stroke-linejoin="round"/>
</g>
</svg>
