<svg width="24" height="24" viewBox="0 0 24 24" fill="none" xmlns="http://www.w3.org/2000/svg">
<g id="Component 2333">
<g id="Activity">
<path id="Path_33966" d="M7.24512 14.782L10.2381 10.893L13.6521 13.573L16.5811 9.79297" stroke="white" stroke-width="1.5" stroke-miterlimit="10" stroke-linecap="round" stroke-linejoin="round"/>
<path id="Ellipse_741" d="M19.995 6.12232C21.0565 6.12232 21.917 5.26181 21.917 4.20032C21.917 3.13883 21.0565 2.27832 19.995 2.27832C18.9335 2.27832 18.073 3.13883 18.073 4.20032C18.073 5.26181 18.9335 6.12232 19.995 6.12232Z" stroke="white" stroke-width="1.5" stroke-miterlimit="10" stroke-linecap="round" stroke-linejoin="round"/>
<path id="Path" d="M14.9241 3.12012H7.65708C4.64508 3.12012 2.77808 5.25312 2.77808 8.26412V16.3461C2.77808 19.3571 4.60908 21.4811 7.65708 21.4811H16.2571C19.2681 21.4811 21.1361 19.3571 21.1361 16.3461V9.30812" stroke="white" stroke-width="1.5" stroke-miterlimit="10" stroke-linecap="round" stroke-linejoin="round"/>
</g>
</g>
</svg>
