<svg width="21" height="21" viewBox="0 0 21 21" fill="none" xmlns="http://www.w3.org/2000/svg">
<g opacity="0.6">
<path d="M15.867 8.42969C15.867 8.42969 15.467 13.3447 15.241 15.4157C15.2352 15.6338 15.1857 15.8486 15.0954 16.0473C15.0052 16.246 14.8761 16.4246 14.7156 16.5726C14.5552 16.7205 14.3667 16.8348 14.1614 16.9087C13.956 16.9826 13.7379 17.0145 13.52 17.0027C11.62 17.0367 9.71001 17.0387 7.80601 17.0027C7.59204 17.01 7.37875 16.9748 7.17853 16.899C6.9783 16.8232 6.79514 16.7083 6.63967 16.5611C6.4842 16.414 6.35952 16.2373 6.27289 16.0416C6.18626 15.8458 6.13939 15.6347 6.13501 15.4207C5.90401 13.3297 5.51001 8.42969 5.51001 8.42969" stroke="black" stroke-width="1.5" stroke-miterlimit="10" stroke-linecap="round" stroke-linejoin="round"/>
<path d="M16.876 6.07031H4.5" stroke="black" stroke-width="1.5" stroke-miterlimit="10" stroke-linecap="round" stroke-linejoin="round"/>
<path d="M14.492 6.06944C14.214 6.06991 13.9445 5.97385 13.7294 5.79766C13.5144 5.62148 13.3672 5.3761 13.313 5.10344L13.136 4.21644C13.0829 4.01756 12.9656 3.84181 12.8023 3.71649C12.639 3.59117 12.4389 3.5233 12.233 3.52344L9.14401 3.52344C8.93868 3.52396 8.73924 3.59213 8.57656 3.7174C8.41387 3.84267 8.29699 4.01806 8.24401 4.21644L8.06701 5.10344C8.0127 5.3766 7.86507 5.62237 7.64942 5.79862C7.43376 5.97486 7.16352 6.07061 6.88501 6.06944" stroke="black" stroke-width="1.5" stroke-miterlimit="10" stroke-linecap="round" stroke-linejoin="round"/>
</g>
</svg>
