<svg width="24" height="24" viewBox="0 0 24 24" fill="none" xmlns="http://www.w3.org/2000/svg">
<g id="3218_group">
<g id="3219_group">
<path id="3221_vector" d="M12 21.25C13.8295 21.25 15.6179 20.7075 17.139 19.6911C18.6602 18.6747 19.8458 17.23 20.5459 15.5398C21.246 13.8496 21.4292 11.9897 21.0723 10.1954C20.7154 8.40109 19.8344 6.7529 18.5407 5.45926C17.2471 4.16563 15.5989 3.28465 13.8046 2.92774C12.0103 2.57082 10.1504 2.754 8.46018 3.45411C6.76996 4.15423 5.32531 5.33982 4.30891 6.86098C3.2925 8.38213 2.75 10.1705 2.75 12C2.75 14.4533 3.72455 16.806 5.45926 18.5407C7.19397 20.2754 9.54675 21.25 12 21.25Z" fill="#F6F6F6"/>
<path id="3222_vector" d="M8.52905 10.2617L12.0001 13.7477L15.4711 10.2617" stroke="#272127" stroke-width="1.5" stroke-miterlimit="10" stroke-linecap="round" stroke-linejoin="round"/>
</g>
</g>
</svg>
