<svg width="24" height="24" viewBox="0 0 24 24" fill="none" xmlns="http://www.w3.org/2000/svg">
<path d="M12 2.75C13.8295 2.75 15.6179 3.2925 17.139 4.30891C18.6602 5.32531 19.8458 6.76996 20.5459 8.46018C21.246 10.1504 21.4292 12.0103 21.0723 13.8046C20.7154 15.5989 19.8344 17.2471 18.5407 18.5407C17.2471 19.8344 15.5989 20.7154 13.8046 21.0723C12.0103 21.4292 10.1504 21.246 8.46018 20.5459C6.76996 19.8458 5.32531 18.6602 4.30891 17.139C3.2925 15.6179 2.75 13.8295 2.75 12C2.75 9.54675 3.72455 7.19397 5.45926 5.45926C7.19397 3.72455 9.54675 2.75 12 2.75V2.75Z" fill="#F6F6F6"/>
<path d="M8.52905 13.74L12.0001 10.254L15.4711 13.74" stroke="#272127" stroke-width="1.5" stroke-miterlimit="10" stroke-linecap="round" stroke-linejoin="round"/>
</svg>
