<svg width="21" height="21" viewBox="0 0 21 21" fill="none" xmlns="http://www.w3.org/2000/svg">
<path d="M6.41462 20.3927C2.97362 20.3927 0.661621 17.9767 0.661621 14.3827V6.06873C0.661621 2.47573 2.97362 0.0597287 6.41462 0.0597287H10.1546C10.3535 0.0597287 10.5443 0.138746 10.685 0.279399C10.8256 0.420051 10.9046 0.610816 10.9046 0.809729C10.9046 1.00864 10.8256 1.19941 10.685 1.34006C10.5443 1.48071 10.3535 1.55973 10.1546 1.55973H6.41462C3.83062 1.55973 2.16162 3.33073 2.16162 6.06873V14.3827C2.16162 17.1217 3.83062 18.8917 6.41362 18.8917H15.2386C17.8226 18.8917 19.4916 17.1217 19.4916 14.3827V10.3547C19.4916 10.1558 19.5706 9.96505 19.7113 9.8244C19.8519 9.68375 20.0427 9.60473 20.2416 9.60473C20.4405 9.60473 20.6313 9.68375 20.772 9.8244C20.9126 9.96505 20.9916 10.1558 20.9916 10.3547V14.3827C20.9916 17.9767 18.6786 20.3917 15.2376 20.3917L6.41462 20.3927ZM6.76162 14.9517C6.66154 14.9515 6.56252 14.9313 6.47033 14.8923C6.37815 14.8534 6.29465 14.7964 6.22473 14.7248C6.15481 14.6532 6.09986 14.5684 6.0631 14.4753C6.02633 14.3823 6.00849 14.2828 6.01062 14.1827L6.10562 10.4037C6.1235 9.65421 6.43017 8.94056 6.96162 8.41173L14.4326 0.938729C15.021 0.352561 15.8176 0.0234375 16.6481 0.0234375C17.4786 0.0234375 18.2753 0.352561 18.8636 0.938729L20.0816 2.15573C20.3727 2.44668 20.6037 2.79214 20.7612 3.17237C20.9188 3.5526 20.9999 3.96015 20.9999 4.37173C20.9999 4.78331 20.9188 5.19086 20.7612 5.57109C20.6037 5.95132 20.3727 6.29678 20.0816 6.58773L12.5716 14.0977C12.3011 14.3698 11.9793 14.5854 11.6248 14.7322C11.2703 14.8789 10.8903 14.9539 10.5066 14.9527L6.76162 14.9517ZM8.01962 9.47273C7.76186 9.72955 7.61319 10.076 7.60462 10.4397L7.52962 13.4507H10.5066C10.6925 13.4508 10.8766 13.414 11.0482 13.3427C11.2198 13.2713 11.3756 13.1666 11.5066 13.0347L17.3406 7.20073L13.8176 3.67473L8.01962 9.47273ZM18.4046 6.14273L19.0206 5.52673C19.3265 5.22037 19.4983 4.80515 19.4983 4.37223C19.4983 3.93931 19.3265 3.52409 19.0206 3.21773L17.8036 1.99973C17.4967 1.69422 17.0812 1.5227 16.6481 1.5227C16.215 1.5227 15.7996 1.69422 15.4926 1.99973L14.8786 2.61373L18.4046 6.14273Z" fill="black"/>
</svg>
