<svg width="20" height="20" viewBox="0 0 20 20" fill="none" xmlns="http://www.w3.org/2000/svg">
<g id="Edit">
<path id="Stroke 1" d="M11.4561 17.0391H17.5001" stroke="black" stroke-width="1.5" stroke-miterlimit="10" stroke-linecap="round" stroke-linejoin="round"/>
<path id="Stroke 3" d="M10.65 3.16416C10.9648 2.79124 11.4128 2.55607 11.8986 2.5088C12.3843 2.46154 12.8693 2.60592 13.25 2.91116L14.694 4.03416C14.8992 4.15577 15.0779 4.31726 15.2196 4.50908C15.3613 4.70091 15.4631 4.91918 15.519 5.15101C15.5749 5.38284 15.5838 5.62353 15.5452 5.85886C15.5066 6.09419 15.4212 6.31939 15.294 6.52116C15.266 6.56616 7.34603 16.4732 7.34603 16.4732C7.21449 16.6362 7.04841 16.7681 6.85974 16.8592C6.67108 16.9504 6.46454 16.9985 6.25503 17.0002L3.22003 17.0382L2.53603 14.1462C2.48856 13.945 2.48767 13.7357 2.53342 13.5341C2.57918 13.3326 2.67036 13.1441 2.80003 12.9832L10.65 3.16416Z" stroke="black" stroke-width="1.5" stroke-miterlimit="10" stroke-linecap="round" stroke-linejoin="round"/>
<path id="Stroke 5" d="M9.18408 5L13.7281 8.489" stroke="black" stroke-width="1.5" stroke-miterlimit="10" stroke-linecap="round" stroke-linejoin="round"/>
</g>
</svg>
