<svg width="20" height="21" viewBox="0 0 20 21" fill="none" xmlns="http://www.w3.org/2000/svg">
<g id="Component 2370">
<path id="236_vector" d="M9.1 14.5H5.5C4.30653 14.5 3.16193 14.0259 2.31802 13.182C1.47411 12.3381 1 11.1935 1 10C1 8.80653 1.47411 7.66193 2.31802 6.81802C3.16193 5.97411 4.30653 5.5 5.5 5.5H9.1V7.3H5.5C4.78392 7.3 4.09716 7.58446 3.59081 8.09081C3.08446 8.59716 2.8 9.28392 2.8 10C2.8 10.7161 3.08446 11.4028 3.59081 11.9092C4.09716 12.4155 4.78392 12.7 5.5 12.7H9.1V14.5ZM14.5 5.5H10.9V7.3H14.5C15.2161 7.3 15.9028 7.58446 16.4092 8.09081C16.9155 8.59716 17.2 9.28392 17.2 10C17.2 10.7161 16.9155 11.4028 16.4092 11.9092C15.9028 12.4155 15.2161 12.7 14.5 12.7H10.9V14.5H14.5C15.6935 14.5 16.8381 14.0259 17.682 13.182C18.5259 12.3381 19 11.1935 19 10C19 8.80653 18.5259 7.66193 17.682 6.81802C16.8381 5.97411 15.6935 5.5 14.5 5.5ZM13.6 9.1H6.4V10.9H13.6V9.1Z" fill="#7A797D"/>
</g>
</svg>
