<svg width="20" height="20" viewBox="0 0 20 20" fill="none" xmlns="http://www.w3.org/2000/svg">
<path d="M9.1 14H5.5C4.30653 14 3.16193 13.5259 2.31802 12.682C1.47411 11.8381 1 10.6935 1 9.5C1 8.30653 1.47411 7.16193 2.31802 6.31802C3.16193 5.47411 4.30653 5 5.5 5H9.1V6.8H5.5C4.78392 6.8 4.09716 7.08446 3.59081 7.59081C3.08446 8.09716 2.8 8.78392 2.8 9.5C2.8 10.2161 3.08446 10.9028 3.59081 11.4092C4.09716 11.9155 4.78392 12.2 5.5 12.2H9.1V14ZM14.5 5H10.9V6.8H14.5C15.2161 6.8 15.9028 7.08446 16.4092 7.59081C16.9155 8.09716 17.2 8.78392 17.2 9.5C17.2 10.2161 16.9155 10.9028 16.4092 11.4092C15.9028 11.9155 15.2161 12.2 14.5 12.2H10.9V14H14.5C15.6935 14 16.8381 13.5259 17.682 12.682C18.5259 11.8381 19 10.6935 19 9.5C19 8.30653 18.5259 7.16193 17.682 6.31802C16.8381 5.47411 15.6935 5 14.5 5ZM13.6 8.6H6.4V10.4H13.6V8.6Z" fill="#644BFD"/>
</svg>
