<svg width="16" height="16" viewBox="0 0 16 16" fill="none" xmlns="http://www.w3.org/2000/svg">
<path d="M10.2741 7.86777C10.2741 8.28469 10.1505 8.69225 9.91884 9.03891C9.68721 9.38557 9.35799 9.65575 8.9728 9.8153C8.58762 9.97485 8.16377 10.0166 7.75486 9.93526C7.34594 9.85392 6.97033 9.65316 6.67553 9.35835C6.38072 9.06354 6.17995 8.68793 6.09861 8.27902C6.01727 7.8701 6.05902 7.44626 6.21857 7.06107C6.37812 6.67588 6.64831 6.34666 6.99496 6.11503C7.34162 5.8834 7.74918 5.75977 8.16611 5.75977C8.72518 5.75977 9.26136 5.98186 9.65669 6.37718C10.052 6.77251 10.2741 7.30869 10.2741 7.86777Z" stroke="black" stroke-miterlimit="10" stroke-linecap="round" stroke-linejoin="round"/>
<path d="M8.165 12.736C10.704 12.736 13.026 10.911 14.333 7.868C13.026 4.825 10.7 3 8.165 3C5.629 3 3.307 4.825 2 7.868C3.307 10.911 5.629 12.736 8.168 12.736H8.165Z" stroke="black" stroke-miterlimit="10" stroke-linecap="round" stroke-linejoin="round"/>
</svg>
