<svg width="16" height="16" viewBox="0 0 16 16" fill="none" xmlns="http://www.w3.org/2000/svg">
<path d="M6.50789 9.48999C6.31125 9.29526 6.1554 9.06328 6.04946 8.80762C5.94352 8.55195 5.88961 8.27773 5.89089 8.00099C5.88945 7.58327 6.01221 7.17455 6.24356 6.82675C6.47492 6.47894 6.80444 6.20776 7.19026 6.04765C7.57608 5.88753 8.00078 5.84571 8.41042 5.9275C8.82006 6.00929 9.19614 6.21099 9.49089 6.50699" stroke="black" stroke-miterlimit="10" stroke-linecap="round" stroke-linejoin="round"/>
<path d="M10.0699 8.375C9.99363 8.79587 9.79095 9.18352 9.48886 9.48633C9.18677 9.78914 8.7996 9.99273 8.37891 10.07" stroke="black" stroke-miterlimit="10" stroke-linecap="round" stroke-linejoin="round"/>
<path d="M4.43398 11.5573C3.28468 10.607 2.39097 9.3847 1.83398 8.00132C2.39846 6.61009 3.2998 5.38093 4.45698 4.42432C5.45701 3.60314 6.70709 3.14741 8.00098 3.13232C9.30016 3.1476 10.5551 3.60626 11.558 4.43232" stroke="black" stroke-miterlimit="10" stroke-linecap="round" stroke-linejoin="round"/>
<path d="M12.966 5.90332C13.4476 6.55345 13.8504 7.25837 14.166 8.00332C12.856 11.0383 10.539 12.8683 8.00099 12.8683C7.42717 12.8683 6.85715 12.7754 6.31299 12.5933" stroke="black" stroke-miterlimit="10" stroke-linecap="round" stroke-linejoin="round"/>
<path d="M13.2589 2.74219L2.74292 13.2582" stroke="black" stroke-miterlimit="10" stroke-linecap="round" stroke-linejoin="round"/>
</svg>
