<svg width="20" height="20" viewBox="0 0 20 20" fill="none" xmlns="http://www.w3.org/2000/svg">
<g id="favorite">
<mask id="mask0_6301_1662" style="mask-type:alpha" maskUnits="userSpaceOnUse" x="0" y="0" width="20" height="20">
<rect id="Bounding box" x="0.270508" width="19.4595" height="19.4595" fill="#D9D9D9"/>
</mask>
<g mask="url(#mask0_6301_1662)">
<path id="favorite_2" d="M10.0007 17.0271L8.82501 15.973C7.46015 14.7433 6.33177 13.6825 5.43988 12.7906C4.54798 11.8987 3.83852 11.098 3.3115 10.3885C2.78447 9.67909 2.41623 9.02706 2.20677 8.43247C1.99731 7.83787 1.89258 7.22976 1.89258 6.60814C1.89258 5.33787 2.31825 4.27706 3.16961 3.42571C4.02096 2.57436 5.08177 2.14868 6.35204 2.14868C7.05474 2.14868 7.72366 2.29733 8.35879 2.59463C8.99393 2.89192 9.54123 3.31084 10.0007 3.85138C10.4601 3.31084 11.0074 2.89192 11.6426 2.59463C12.2777 2.29733 12.9466 2.14868 13.6493 2.14868C14.9196 2.14868 15.9804 2.57436 16.8318 3.42571C17.6831 4.27706 18.1088 5.33787 18.1088 6.60814C18.1088 7.22976 18.0041 7.83787 17.7946 8.43247C17.5851 9.02706 17.2169 9.67909 16.6899 10.3885C16.1628 11.098 15.4534 11.8987 14.5615 12.7906C13.6696 13.6825 12.5412 14.7433 11.1764 15.973L10.0007 17.0271ZM10.0007 14.8379C11.298 13.6757 12.3656 12.6791 13.2034 11.848C14.0412 11.0169 14.7034 10.294 15.1899 9.67909C15.6764 9.06422 16.0142 8.51692 16.2034 8.0372C16.3926 7.55747 16.4872 7.08111 16.4872 6.60814C16.4872 5.79733 16.2169 5.12165 15.6764 4.58111C15.1358 4.04057 14.4601 3.7703 13.6493 3.7703C13.0142 3.7703 12.4264 3.94936 11.8858 4.30747C11.3453 4.66557 10.9737 5.12165 10.771 5.67571H9.23042C9.02771 5.12165 8.65609 4.66557 8.11555 4.30747C7.57501 3.94936 6.98717 3.7703 6.35204 3.7703C5.54123 3.7703 4.86555 4.04057 4.32501 4.58111C3.78447 5.12165 3.5142 5.79733 3.5142 6.60814C3.5142 7.08111 3.60879 7.55747 3.79798 8.0372C3.98717 8.51692 4.32501 9.06422 4.8115 9.67909C5.29798 10.294 5.96015 11.0169 6.79798 11.848C7.63582 12.6791 8.70339 13.6757 10.0007 14.8379Z" fill="#1C1B1F"/>
</g>
</g>
</svg>
