<svg width="20" height="20" viewBox="0 0 20 20" fill="none" xmlns="http://www.w3.org/2000/svg">
<g id="favorite">
<mask id="mask0_6301_1302" style="mask-type:alpha" maskUnits="userSpaceOnUse" x="0" y="0" width="20" height="20">
<rect id="Bounding box" x="0.270508" y="0.270264" width="19.4595" height="19.4595" fill="#D9D9D9"/>
</mask>
<g mask="url(#mask0_6301_1302)">
<g id="favorite_2">
<g filter="url(#filter0_iii_6301_1302)">
<path d="M10.6682 16.6988C10.2884 17.0394 9.71301 17.0394 9.33314 16.6988L8.82501 16.2433C7.46015 15.0135 6.33177 13.9527 5.43988 13.0608C4.54798 12.1689 3.83852 11.3683 3.3115 10.6588C2.78447 9.94935 2.41623 9.29732 2.20677 8.70273C1.99731 8.10813 1.89258 7.50003 1.89258 6.8784C1.89258 5.60813 2.31825 4.54732 3.16961 3.69597C4.02096 2.84462 5.08177 2.41895 6.35204 2.41895C7.05474 2.41895 7.72366 2.56759 8.35879 2.86489C8.63597 2.99463 8.89642 3.14754 9.14014 3.32361C9.63995 3.68468 10.3614 3.68468 10.8612 3.32361C11.105 3.14754 11.3654 2.99463 11.6426 2.86489C12.2777 2.56759 12.9466 2.41895 13.6493 2.41895C14.9196 2.41895 15.9804 2.84462 16.8318 3.69597C17.6831 4.54732 18.1088 5.60813 18.1088 6.8784C18.1088 7.50003 18.0041 8.10813 17.7946 8.70273C17.5851 9.29732 17.2169 9.94935 16.6899 10.6588C16.1628 11.3683 15.4534 12.1689 14.5615 13.0608C13.6696 13.9527 12.5412 15.0135 11.1764 16.2433L10.6682 16.6988Z" fill="#CA113E"/>
</g>
<path d="M10.3345 16.3266C10.1445 16.4968 9.85685 16.4968 9.66691 16.3266L9.1597 15.8718C9.15955 15.8717 9.1594 15.8715 9.15925 15.8714C7.79841 14.6453 6.67702 13.5909 5.79343 12.7073C4.91217 11.826 4.22064 11.0442 3.71287 10.3606C3.20471 9.67659 2.86597 9.06917 2.67836 8.5366C2.48743 7.99461 2.39258 7.44263 2.39258 6.8784C2.39258 5.73263 2.77116 4.80152 3.52316 4.04953C4.27516 3.29753 5.20626 2.91895 6.35204 2.91895C6.98164 2.91895 7.57818 3.05156 8.14682 3.31774C8.39614 3.43444 8.62947 3.57151 8.84735 3.72891C9.52193 4.21625 10.4794 4.21625 11.154 3.72891C11.3719 3.57151 11.6052 3.43444 11.8545 3.31774C12.4232 3.05156 13.0197 2.91895 13.6493 2.91895C14.7951 2.91895 15.7262 3.29753 16.4782 4.04953C17.2302 4.80152 17.6088 5.73263 17.6088 6.8784C17.6088 7.44263 17.5139 7.99461 17.323 8.5366C17.1354 9.06917 16.7967 9.67659 16.2885 10.3606C15.7807 11.0442 15.0892 11.826 14.2079 12.7073C13.3244 13.5908 12.2031 14.6452 10.8423 15.8712C10.8421 15.8714 10.8419 15.8716 10.8417 15.8718L10.3345 16.3266Z" stroke="black" stroke-opacity="0.02"/>
</g>
</g>
</g>
<defs>
<filter id="filter0_iii_6301_1302" x="1.89258" y="2.41895" width="16.2158" height="17.3468" filterUnits="userSpaceOnUse" color-interpolation-filters="sRGB">
<feFlood flood-opacity="0" result="BackgroundImageFix"/>
<feBlend mode="normal" in="SourceGraphic" in2="BackgroundImageFix" result="shape"/>
<feColorMatrix in="SourceAlpha" type="matrix" values="0 0 0 0 0 0 0 0 0 0 0 0 0 0 0 0 0 0 127 0" result="hardAlpha"/>
<feMorphology radius="0.937143" operator="dilate" in="SourceAlpha" result="effect1_innerShadow_6301_1302"/>
<feOffset dy="2.81143"/>
<feGaussianBlur stdDeviation="3.74857"/>
<feComposite in2="hardAlpha" operator="arithmetic" k2="-1" k3="1"/>
<feColorMatrix type="matrix" values="0 0 0 0 0.196078 0 0 0 0 0.196078 0 0 0 0 0.278431 0 0 0 0.05 0"/>
<feBlend mode="normal" in2="shape" result="effect1_innerShadow_6301_1302"/>
<feColorMatrix in="SourceAlpha" type="matrix" values="0 0 0 0 0 0 0 0 0 0 0 0 0 0 0 0 0 0 127 0" result="hardAlpha"/>
<feOffset/>
<feGaussianBlur stdDeviation="0.5"/>
<feComposite in2="hardAlpha" operator="arithmetic" k2="-1" k3="1"/>
<feColorMatrix type="matrix" values="0 0 0 0 0.0470588 0 0 0 0 0.101961 0 0 0 0 0.294118 0 0 0 0.2 0"/>
<feBlend mode="normal" in2="effect1_innerShadow_6301_1302" result="effect2_innerShadow_6301_1302"/>
<feColorMatrix in="SourceAlpha" type="matrix" values="0 0 0 0 0 0 0 0 0 0 0 0 0 0 0 0 0 0 127 0" result="hardAlpha"/>
<feOffset dy="1"/>
<feGaussianBlur stdDeviation="0.5"/>
<feComposite in2="hardAlpha" operator="arithmetic" k2="-1" k3="1"/>
<feColorMatrix type="matrix" values="0 0 0 0 1 0 0 0 0 1 0 0 0 0 1 0 0 0 0.4 0"/>
<feBlend mode="normal" in2="effect2_innerShadow_6301_1302" result="effect3_innerShadow_6301_1302"/>
</filter>
</defs>
</svg>
