<svg width="16" height="16" viewBox="0 0 16 16" fill="none" xmlns="http://www.w3.org/2000/svg">
<path d="M9.80707 1.70119H5.37173C4.70497 1.69839 4.0637 1.95719 3.58566 2.42202C3.10762 2.88684 2.83095 3.52061 2.81507 4.18719V11.3292C2.80023 12.0057 3.0547 12.6605 3.52252 13.1494C3.99034 13.6384 4.6332 13.9215 5.30973 13.9365H10.6971C11.3687 13.9092 12.0034 13.622 12.4673 13.1355C12.9311 12.649 13.1878 12.0014 13.1831 11.3292V5.21853L9.80707 1.70119Z" stroke="#3D3C41" stroke-miterlimit="10" stroke-linecap="round" stroke-linejoin="round"/>
<path d="M9.63086 1.69336V3.63269C9.63068 4.08723 9.81085 4.52327 10.1318 4.84511C10.4528 5.16695 10.8883 5.3483 11.3429 5.34936H13.1795" stroke="#3D3C41" stroke-miterlimit="10" stroke-linecap="round" stroke-linejoin="round"/>
<path d="M9.50625 10.0996H5.90625" stroke="#3D3C41" stroke-miterlimit="10" stroke-linecap="round" stroke-linejoin="round"/>
<path d="M8.14358 7.59766H5.90625" stroke="#3D3C41" stroke-miterlimit="10" stroke-linecap="round" stroke-linejoin="round"/>
</svg>
