<svg width="84" height="20" viewBox="0 0 84 20" fill="none" xmlns="http://www.w3.org/2000/svg">
<path d="M11.1285 5.76501C11.3385 5.11884 11.4435 4.79575 11.6012 4.70905C11.7376 4.63409 11.9028 4.63409 12.0392 4.70905C12.1969 4.79575 12.3019 5.11883 12.5119 5.76501L13.0859 7.53113C13.1446 7.71174 13.174 7.80205 13.2292 7.86885C13.2781 7.92785 13.341 7.97355 13.4122 8.00174C13.4928 8.03366 13.5877 8.03366 13.7776 8.03366H15.6347C16.3145 8.03366 16.6544 8.03366 16.7856 8.15688C16.899 8.26342 16.9501 8.42059 16.9209 8.57347C16.8872 8.75027 16.6122 8.95001 16.0622 9.34948L14.5601 10.4405C14.4064 10.5521 14.3296 10.6079 14.2831 10.6812C14.242 10.7458 14.218 10.8198 14.2132 10.8962C14.2078 10.9828 14.2371 11.0731 14.2958 11.2538L14.8697 13.0193C15.0797 13.6656 15.1847 13.9888 15.1081 14.1516C15.0419 14.2924 14.9082 14.3896 14.7538 14.4091C14.5752 14.4317 14.3003 14.232 13.7505 13.8326L12.2476 12.7411C12.094 12.6295 12.0172 12.5737 11.9332 12.5521C11.8591 12.5331 11.7813 12.5331 11.7072 12.5521C11.6232 12.5737 11.5464 12.6295 11.3928 12.7411L9.88989 13.8326C9.34005 14.232 9.06514 14.4317 8.88658 14.4091C8.73219 14.3896 8.59851 14.2924 8.53227 14.1516C8.45565 13.9888 8.56068 13.6656 8.77073 13.0193L9.34455 11.2538C9.40327 11.0731 9.43263 10.9828 9.42718 10.8962C9.42238 10.8198 9.39834 10.7458 9.3573 10.6812C9.31082 10.6079 9.23397 10.5521 9.08027 10.4405L7.5782 9.34948C7.02821 8.95001 6.75322 8.75027 6.71948 8.57347C6.6903 8.42059 6.74136 8.26342 6.8548 8.15688C6.98601 8.03366 7.32589 8.03366 8.00564 8.03366H9.86274C10.0526 8.03366 10.1476 8.03366 10.2282 8.00174C10.2994 7.97355 10.3623 7.92785 10.4111 7.86885C10.4664 7.80205 10.4958 7.71174 10.5545 7.53114L11.1285 5.76501Z" fill="url(#paint0_linear_6301_1648)"/>
<path d="M25.6773 5.76501C25.8873 5.11884 25.9923 4.79575 26.15 4.70905C26.2864 4.63409 26.4516 4.63409 26.588 4.70905C26.7457 4.79575 26.8507 5.11883 27.0607 5.76501L27.6348 7.53113C27.6935 7.71174 27.7228 7.80205 27.7781 7.86885C27.8269 7.92785 27.8898 7.97355 27.961 8.00174C28.0416 8.03366 28.1366 8.03366 28.3265 8.03366H30.1836C30.8633 8.03366 31.2032 8.03366 31.3344 8.15688C31.4479 8.26342 31.4989 8.42059 31.4697 8.57347C31.436 8.75027 31.161 8.95001 30.611 9.34948L29.1089 10.4405C28.9552 10.5521 28.8784 10.6079 28.8319 10.6812C28.7909 10.7458 28.7668 10.8198 28.762 10.8962C28.7566 10.9828 28.7859 11.0731 28.8447 11.2538L29.4185 13.0193C29.6285 13.6656 29.7336 13.9888 29.6569 14.1516C29.5907 14.2924 29.457 14.3896 29.3026 14.4091C29.1241 14.4317 28.8492 14.232 28.2993 13.8326L26.7965 12.7411C26.6428 12.6295 26.566 12.5737 26.482 12.5521C26.4079 12.5331 26.3301 12.5331 26.256 12.5521C26.172 12.5737 26.0952 12.6295 25.9416 12.7411L24.4387 13.8326C23.8889 14.232 23.614 14.4317 23.4354 14.4091C23.281 14.3896 23.1473 14.2924 23.0811 14.1516C23.0045 13.9888 23.1095 13.6656 23.3196 13.0193L23.8934 11.2538C23.9521 11.0731 23.9815 10.9828 23.976 10.8962C23.9712 10.8198 23.9472 10.7458 23.9061 10.6812C23.8596 10.6079 23.7828 10.5521 23.6291 10.4405L22.127 9.34948C21.577 8.95001 21.302 8.75027 21.2683 8.57347C21.2391 8.42059 21.2902 8.26342 21.4036 8.15688C21.5348 8.03366 21.8747 8.03366 22.5545 8.03366H24.4116C24.6015 8.03366 24.6964 8.03366 24.777 8.00174C24.8482 7.97355 24.9112 7.92785 24.96 7.86885C25.0152 7.80205 25.0446 7.71174 25.1033 7.53114L25.6773 5.76501Z" fill="url(#paint1_linear_6301_1648)"/>
<path d="M40.2252 5.76501C40.4352 5.11884 40.5402 4.79575 40.6979 4.70905C40.8343 4.63409 40.9995 4.63409 41.1359 4.70905C41.2936 4.79575 41.3986 5.11883 41.6086 5.76501L42.1826 7.53113C42.2413 7.71174 42.2707 7.80205 42.3259 7.86885C42.3747 7.92785 42.4377 7.97355 42.5088 8.00174C42.5895 8.03366 42.6844 8.03366 42.8743 8.03366H44.7314C45.4112 8.03366 45.7511 8.03366 45.8823 8.15688C45.9957 8.26342 46.0468 8.42059 46.0176 8.57347C45.9838 8.75027 45.7088 8.95001 45.1589 9.34948L43.6568 10.4405C43.5031 10.5521 43.4262 10.6079 43.3798 10.6812C43.3387 10.7458 43.3147 10.8198 43.3099 10.8962C43.3044 10.9828 43.3338 11.0731 43.3925 11.2538L43.9663 13.0193C44.1764 13.6656 44.2814 13.9888 44.2048 14.1516C44.1386 14.2924 44.0049 14.3896 43.8505 14.4091C43.6719 14.4317 43.397 14.232 42.8472 13.8326L41.3443 12.7411C41.1907 12.6295 41.1139 12.5737 41.0299 12.5521C40.9557 12.5331 40.878 12.5331 40.8038 12.5521C40.7199 12.5737 40.6431 12.6295 40.4894 12.7411L38.9866 13.8326C38.4367 14.232 38.1618 14.4317 37.9833 14.4091C37.8289 14.3896 37.6952 14.2924 37.6289 14.1516C37.5523 13.9888 37.6574 13.6656 37.8674 13.0193L38.4412 11.2538C38.4999 11.0731 38.5293 10.9828 38.5239 10.8962C38.5191 10.8198 38.495 10.7458 38.454 10.6812C38.4075 10.6079 38.3306 10.5521 38.1769 10.4405L36.6749 9.34948C36.1249 8.95001 35.8499 8.75027 35.8162 8.57347C35.787 8.42059 35.838 8.26342 35.9515 8.15688C36.0827 8.03366 36.4226 8.03366 37.1023 8.03366H38.9594C39.1493 8.03366 39.2443 8.03366 39.3249 8.00174C39.3961 7.97355 39.459 7.92785 39.5078 7.86885C39.5631 7.80205 39.5924 7.71174 39.6511 7.53114L40.2252 5.76501Z" fill="url(#paint2_linear_6301_1648)"/>
<path d="M54.774 5.76501C54.984 5.11884 55.089 4.79575 55.2467 4.70905C55.3831 4.63409 55.5483 4.63409 55.6847 4.70905C55.8424 4.79575 55.9474 5.11883 56.1574 5.76501L56.7314 7.53113C56.7901 7.71174 56.8195 7.80205 56.8748 7.86885C56.9236 7.92785 56.9865 7.97355 57.0577 8.00174C57.1383 8.03366 57.2332 8.03366 57.4232 8.03366H59.2803C59.96 8.03366 60.2999 8.03366 60.4311 8.15688C60.5445 8.26342 60.5956 8.42059 60.5664 8.57347C60.5327 8.75027 60.2577 8.95001 59.7077 9.34948L58.2056 10.4405C58.0519 10.5521 57.9751 10.6079 57.9286 10.6812C57.8876 10.7458 57.8635 10.8198 57.8587 10.8962C57.8533 10.9828 57.8826 11.0731 57.9413 11.2538L58.5152 13.0193C58.7252 13.6656 58.8302 13.9888 58.7536 14.1516C58.6874 14.2924 58.5537 14.3896 58.3993 14.4091C58.2208 14.4317 57.9458 14.232 57.396 13.8326L55.8931 12.7411C55.7395 12.6295 55.6627 12.5737 55.5787 12.5521C55.5046 12.5331 55.4268 12.5331 55.3527 12.5521C55.2687 12.5737 55.1919 12.6295 55.0383 12.7411L53.5354 13.8326C52.9856 14.232 52.7106 14.4317 52.5321 14.4091C52.3777 14.3896 52.244 14.2924 52.1778 14.1516C52.1012 13.9888 52.2062 13.6656 52.4162 13.0193L52.9901 11.2538C53.0488 11.0731 53.0781 10.9828 53.0727 10.8962C53.0679 10.8198 53.0438 10.7458 53.0028 10.6812C52.9563 10.6079 52.8795 10.5521 52.7258 10.4405L51.2237 9.34948C50.6737 8.95001 50.3987 8.75027 50.365 8.57347C50.3358 8.42059 50.3869 8.26342 50.5003 8.15688C50.6315 8.03366 50.9714 8.03366 51.6511 8.03366H53.5082C53.6982 8.03366 53.7931 8.03366 53.8737 8.00174C53.9449 7.97355 54.0078 7.92785 54.0566 7.86885C54.1119 7.80205 54.1413 7.71174 54.2 7.53114L54.774 5.76501Z" fill="url(#paint3_linear_6301_1648)"/>
<path d="M69.3228 5.76501C69.5328 5.11884 69.6378 4.79575 69.7955 4.70905C69.9319 4.63409 70.0971 4.63409 70.2335 4.70905C70.3912 4.79575 70.4962 5.11883 70.7062 5.76501L71.2803 7.53113C71.339 7.71174 71.3683 7.80205 71.4236 7.86885C71.4724 7.92785 71.5353 7.97355 71.6065 8.00174C71.6871 8.03366 71.7821 8.03366 71.972 8.03366H73.8291C74.5088 8.03366 74.8487 8.03366 74.9799 8.15688C75.0934 8.26342 75.1444 8.42059 75.1152 8.57347C75.0815 8.75027 74.8065 8.95001 74.2565 9.34948L72.7545 10.4405C72.6008 10.5521 72.5239 10.6079 72.4774 10.6812C72.4364 10.7458 72.4123 10.8198 72.4075 10.8962C72.4021 10.9828 72.4315 11.0731 72.4902 11.2538L73.064 13.0193C73.274 13.6656 73.3791 13.9888 73.3025 14.1516C73.2362 14.2924 73.1025 14.3896 72.9481 14.4091C72.7696 14.4317 72.4947 14.232 71.9448 13.8326L70.442 12.7411C70.2883 12.6295 70.2115 12.5737 70.1276 12.5521C70.0534 12.5331 69.9757 12.5331 69.9015 12.5521C69.8175 12.5737 69.7407 12.6295 69.5871 12.7411L68.0842 13.8326C67.5344 14.232 67.2595 14.4317 67.0809 14.4091C66.9265 14.3896 66.7928 14.2924 66.7266 14.1516C66.65 13.9888 66.755 13.6656 66.9651 13.0193L67.5389 11.2538C67.5976 11.0731 67.627 10.9828 67.6215 10.8962C67.6167 10.8198 67.5927 10.7458 67.5516 10.6812C67.5052 10.6079 67.4283 10.5521 67.2746 10.4405L65.7725 9.34948C65.2226 8.95001 64.9476 8.75027 64.9138 8.57347C64.8846 8.42059 64.9357 8.26342 65.0491 8.15688C65.1803 8.03366 65.5202 8.03366 66.2 8.03366H68.0571C68.247 8.03366 68.3419 8.03366 68.4226 8.00174C68.4937 7.97355 68.5567 7.92785 68.6055 7.86885C68.6607 7.80205 68.6901 7.71174 68.7488 7.53114L69.3228 5.76501Z" fill="url(#paint4_linear_6301_1648)"/>
<defs>
<linearGradient id="paint0_linear_6301_1648" x1="65.2872" y1="38.9531" x2="57.8332" y2="-3.97806" gradientUnits="userSpaceOnUse">
<stop stop-color="#9C1652"/>
<stop offset="0.32" stop-color="#D6224D"/>
<stop offset="0.67" stop-color="#ED5C4A"/>
<stop offset="1" stop-color="#F8AC4E"/>
</linearGradient>
<linearGradient id="paint1_linear_6301_1648" x1="79.836" y1="38.9531" x2="72.382" y2="-3.97806" gradientUnits="userSpaceOnUse">
<stop stop-color="#9C1652"/>
<stop offset="0.32" stop-color="#D6224D"/>
<stop offset="0.67" stop-color="#ED5C4A"/>
<stop offset="1" stop-color="#F8AC4E"/>
</linearGradient>
<linearGradient id="paint2_linear_6301_1648" x1="94.3838" y1="38.9531" x2="86.9299" y2="-3.97806" gradientUnits="userSpaceOnUse">
<stop stop-color="#9C1652"/>
<stop offset="0.32" stop-color="#D6224D"/>
<stop offset="0.67" stop-color="#ED5C4A"/>
<stop offset="1" stop-color="#F8AC4E"/>
</linearGradient>
<linearGradient id="paint3_linear_6301_1648" x1="108.933" y1="38.9531" x2="101.479" y2="-3.97806" gradientUnits="userSpaceOnUse">
<stop stop-color="#9C1652"/>
<stop offset="0.32" stop-color="#D6224D"/>
<stop offset="0.67" stop-color="#ED5C4A"/>
<stop offset="1" stop-color="#F8AC4E"/>
</linearGradient>
<linearGradient id="paint4_linear_6301_1648" x1="123.481" y1="38.9531" x2="116.028" y2="-3.97806" gradientUnits="userSpaceOnUse">
<stop stop-color="#9C1652"/>
<stop offset="0.32" stop-color="#D6224D"/>
<stop offset="0.67" stop-color="#ED5C4A"/>
<stop offset="1" stop-color="#F8AC4E"/>
</linearGradient>
</defs>
</svg>
