<svg width="21" height="21" viewBox="0 0 21 21" fill="none" xmlns="http://www.w3.org/2000/svg">
<g id="Back-20x20">
<path id="Stroke 1" d="M10.333 18.4082C8.80855 18.4082 7.31828 17.9561 6.05071 17.1092C4.78314 16.2622 3.79518 15.0584 3.21178 13.6499C2.62838 12.2415 2.47574 10.6917 2.77315 9.19645C3.07057 7.70124 3.80468 6.32781 4.88267 5.24982C5.96065 4.17184 7.33408 3.43773 8.82929 3.14031C10.3245 2.8429 11.8743 2.99554 13.2828 3.57894C14.6912 4.16234 15.895 5.15029 16.742 6.41787C17.589 7.68544 18.041 9.1757 18.041 10.7002C18.041 12.7445 17.229 14.7051 15.7834 16.1506C14.3379 17.5961 12.3773 18.4082 10.333 18.4082V18.4082Z" fill="#F6F6F6"/>
<path id="Stroke 3" d="M8.87903 7.80823L11.779 10.7002L8.87903 13.5932" stroke="#272127" stroke-width="1.5" stroke-miterlimit="10" stroke-linecap="round" stroke-linejoin="round"/>
</g>
</svg>
