<svg width="14" height="15" viewBox="0 0 14 15" fill="none" xmlns="http://www.w3.org/2000/svg">
<g id="google" clip-path="url(#clip0_5963_65)">
<path id="Vector" d="M13.9918 7.79735C13.9918 7.21039 13.9442 6.78207 13.8411 6.33789H7.13867V8.98712H11.0729C10.9936 9.64549 10.5653 10.637 9.61341 11.3032L9.60007 11.3919L11.7193 13.0336L11.8661 13.0483C13.2145 11.803 13.9918 9.97068 13.9918 7.79735Z" fill="#4285F4"/>
<path id="Vector_2" d="M7.13899 14.7796C9.06642 14.7796 10.6845 14.145 11.8664 13.0504L9.61373 11.3054C9.01092 11.7257 8.20184 12.0192 7.13899 12.0192C5.25121 12.0192 3.64898 10.774 3.07782 9.05273L2.99411 9.05984L0.790536 10.7652L0.761719 10.8453C1.93563 13.1773 4.34694 14.7796 7.13899 14.7796Z" fill="#34A853"/>
<path id="Vector_3" d="M3.07755 9.05152C2.92685 8.60734 2.83963 8.13139 2.83963 7.63963C2.83963 7.14783 2.92685 6.67193 3.06962 6.22775L3.06563 6.13315L0.834445 4.40039L0.761445 4.43511C0.27762 5.40282 0 6.48951 0 7.63963C0 8.78976 0.27762 9.8764 0.761445 10.8441L3.07755 9.05152Z" fill="#FBBC05"/>
<path id="Vector_4" d="M7.13899 3.26029C8.47946 3.26029 9.38368 3.83931 9.89928 4.32319L11.914 2.35607C10.6766 1.20594 9.06642 0.5 7.13899 0.5C4.34693 0.5 1.93563 2.10223 0.761719 4.4342L3.06989 6.22683C3.64898 4.50561 5.25121 3.26029 7.13899 3.26029Z" fill="#EB4335"/>
</g>
<defs>
<clipPath id="clip0_5963_65">
<rect width="14" height="14.3266" fill="white" transform="translate(0 0.5)"/>
</clipPath>
</defs>
</svg>
