<svg width="8" height="8" viewBox="0 0 8 8" fill="none" xmlns="http://www.w3.org/2000/svg">
<path d="M6.47311 7.97743C6.20654 8.1673 4.49609 6.9637 4.1685 6.96105C3.84091 6.95843 2.1112 8.13435 1.84773 7.94021C1.58427 7.74607 2.20366 5.75202 2.10495 5.44055C2.00625 5.12908 0.350155 3.85207 0.453894 3.54222C0.557655 3.23237 2.65091 3.20359 2.91748 3.01371C3.18406 2.82386 3.89026 0.858708 4.21787 0.861331C4.54544 0.863976 5.21974 2.84024 5.4832 3.03437C5.74667 3.22849 7.83921 3.29098 7.93794 3.60245C8.03665 3.91392 6.36013 5.16411 6.25637 5.47396C6.15263 5.78381 6.73969 7.78755 6.47311 7.97743Z" fill="#BABCBE"/>
</svg>
