<svg width="540" height="506" viewBox="0 0 540 506" fill="none" xmlns="http://www.w3.org/2000/svg">
<path d="M267.891 283.389C267.891 283.389 251.133 284.373 248.263 288.339C246.33 291.011 251.247 297.204 271.493 291.359" fill="white"/>
<path d="M257.129 294.686C250.623 294.686 248.339 292.459 247.657 291.489C246.82 290.297 246.781 288.895 247.552 287.826C250.578 283.644 266.084 282.618 267.84 282.516C268.308 282.483 268.738 282.858 268.768 283.341C268.798 283.825 268.425 284.239 267.942 284.269C263.397 284.536 251.125 285.881 248.972 288.856C248.642 289.312 248.687 289.907 249.092 290.483C250.824 292.951 257.669 294.44 271.25 290.519C271.716 290.387 272.202 290.654 272.337 291.12C272.472 291.585 272.202 292.071 271.737 292.206C265.366 294.038 260.632 294.686 257.129 294.686Z" fill="black"/>
<path d="M407.466 424.958L245.769 382.586C223.83 376.837 202.383 393.388 202.383 416.068C202.383 426.666 207.237 436.678 215.556 443.24L359.694 556.97L409.6 498.718L325.17 433.207L407.466 424.958Z" fill="#AA9EFA"/>
<path d="M359.69 557.849C359.497 557.849 359.308 557.786 359.146 557.66L215.008 443.93C206.425 437.158 201.502 427.002 201.502 416.068C201.502 404.984 206.536 394.741 215.311 387.972C224.086 381.202 235.266 378.93 245.99 381.736L407.687 424.108C408.098 424.216 408.371 424.6 408.338 425.023C408.305 425.447 407.972 425.786 407.551 425.828L327.438 433.858L410.133 498.024C410.322 498.171 410.442 498.391 410.466 498.628C410.49 498.865 410.415 499.105 410.259 499.288L360.353 557.54C360.185 557.747 359.939 557.849 359.69 557.849ZM236.911 382.316C229.562 382.316 222.381 384.733 216.383 389.362C208.043 395.798 203.258 405.534 203.258 416.071C203.258 426.464 207.938 436.116 216.098 442.555L359.576 555.763L408.335 498.85L324.632 433.903C324.349 433.684 324.226 433.312 324.325 432.967C324.424 432.621 324.725 432.372 325.079 432.336L402.529 424.57L245.542 383.433C242.681 382.685 239.784 382.316 236.911 382.316Z" fill="black"/>
<path d="M504.021 368.548L494.901 334.132C490.656 318.122 476.168 306.973 459.602 306.973H397.25C390.075 306.973 383.059 309.086 377.079 313.049L351.09 330.272L374.293 364.045L383.977 354.913L362.101 425.581H459.71L465.249 369.452L504.021 368.548Z" fill="black"/>
<path d="M459.709 426.461H362.1C361.821 426.461 361.56 426.329 361.395 426.104C361.23 425.879 361.182 425.591 361.263 425.324L382.148 357.834L374.889 364.682C374.703 364.856 374.454 364.94 374.193 364.916C373.937 364.889 373.709 364.751 373.562 364.541L350.359 330.768C350.227 330.573 350.176 330.335 350.221 330.104C350.266 329.873 350.401 329.669 350.599 329.54L376.588 312.317C382.73 308.246 389.872 306.094 397.242 306.094H459.598C476.539 306.094 491.402 317.532 495.743 333.908L504.863 368.327C504.932 368.588 504.878 368.864 504.716 369.077C504.554 369.293 504.305 369.419 504.035 369.428L466.041 370.314L460.577 425.669C460.538 426.116 460.163 426.461 459.709 426.461ZM363.289 424.705H458.914L464.375 369.368C464.417 368.927 464.783 368.588 465.227 368.576L502.885 367.699L494.05 334.358C489.913 318.75 475.746 307.85 459.598 307.85H397.245C390.221 307.85 383.415 309.9 377.558 313.782L352.311 330.513L374.427 362.707L383.367 354.277C383.658 354.004 384.096 353.962 384.433 354.172C384.772 354.382 384.925 354.796 384.808 355.174L363.289 424.705Z" fill="black"/>
<path d="M418.504 493.903H325.548L284.843 621.413L213.793 595.421L265.795 443.736C269.646 432.505 280.208 424.961 292.081 424.961H454.294V458.116C454.291 477.878 438.269 493.903 418.504 493.903Z" fill="#AA9EFA"/>
<path d="M284.843 622.288C284.741 622.288 284.639 622.27 284.543 622.234L213.493 596.242C213.046 596.08 212.812 595.585 212.965 595.135L264.967 443.449C268.938 431.864 279.833 424.08 292.078 424.08H454.292C454.775 424.08 455.168 424.473 455.168 424.957V458.111C455.168 478.33 438.72 494.779 418.501 494.779H326.188L285.678 621.679C285.606 621.907 285.444 622.093 285.227 622.198C285.107 622.258 284.975 622.288 284.843 622.288ZM214.901 594.888L284.285 620.274L324.711 493.635C324.828 493.272 325.164 493.025 325.545 493.025H418.501C437.753 493.025 453.415 477.364 453.415 458.111V425.833H292.078C280.58 425.833 270.352 433.14 266.624 444.017L214.901 594.888Z" fill="black"/>
<path d="M484.092 494.779H336.312C335.829 494.779 335.436 494.385 335.436 493.902C335.436 493.419 335.829 493.025 336.312 493.025H484.092C484.575 493.025 484.968 493.419 484.968 493.902C484.968 494.385 484.575 494.779 484.092 494.779Z" fill="black"/>
<path d="M500.744 368.488V399.431C500.744 413.57 489.282 425.032 475.142 425.032H396.908V421.081H372.766V417.827C372.766 408.236 379.091 399.791 388.289 397.101L389.172 396.843C394.314 395.336 399.604 394.378 404.948 393.985L461.188 389.641V369.518L500.744 368.488Z" fill="white"/>
<path d="M475.14 425.911H396.906C396.423 425.911 396.029 425.518 396.029 425.034V421.96H372.763C372.28 421.96 371.887 421.567 371.887 421.084V417.829C371.887 407.911 378.53 399.043 388.041 396.263L388.923 396.004C394.117 394.482 399.488 393.51 404.882 393.113L460.309 388.833V369.52C460.309 369.046 460.688 368.656 461.162 368.644L500.72 367.614C500.951 367.593 501.185 367.698 501.354 367.863C501.522 368.028 501.618 368.253 501.618 368.491V399.433C501.621 414.035 489.742 425.911 475.14 425.911ZM397.782 424.158H475.14C488.772 424.158 499.865 413.065 499.865 399.43V369.388L462.063 370.373V389.64C462.063 390.099 461.708 390.481 461.252 390.514L405.014 394.858C399.74 395.245 394.492 396.194 389.416 397.683L388.533 397.941C379.764 400.505 373.64 408.679 373.64 417.823V420.201H396.906C397.389 420.201 397.782 420.594 397.782 421.078V424.158Z" fill="black"/>
<path d="M405.025 504.051L420.198 515.573C418.397 527.158 412.609 549.472 394.065 568.895C394.065 568.895 377.581 556.521 369.7 557.956L363.42 553.216L405.025 504.051Z" fill="white"/>
<path d="M394.068 569.775C393.885 569.775 393.699 569.718 393.543 569.598C393.381 569.478 377.251 557.47 369.862 558.821C369.619 558.86 369.373 558.806 369.175 558.659L362.895 553.918C362.703 553.774 362.579 553.555 362.552 553.315C362.525 553.075 362.597 552.835 362.754 552.652L404.359 503.487C404.659 503.13 405.191 503.073 405.557 503.355L420.729 514.877C420.988 515.072 421.117 515.393 421.066 515.711C419.249 527.392 413.407 549.911 394.702 569.505C394.53 569.682 394.299 569.775 394.068 569.775ZM371.039 556.969C378.646 556.969 391 565.585 393.963 567.734C411.648 548.905 417.391 527.455 419.249 515.957L405.158 505.255L364.69 553.078L369.935 557.038C370.289 556.99 370.658 556.969 371.039 556.969ZM387.968 643.464C387.83 643.464 387.689 643.431 387.56 643.362C387.13 643.137 386.968 642.605 387.193 642.176L446.325 530.367C446.553 529.938 447.085 529.776 447.511 530.001C447.94 530.226 448.102 530.758 447.877 531.187L388.745 642.996C388.586 643.296 388.283 643.464 387.968 643.464ZM376.635 582.999C376.2 582.999 375.825 582.675 375.768 582.234C375.704 581.754 376.044 581.312 376.527 581.252L386.338 579.991C386.809 579.934 387.256 580.268 387.319 580.751C387.382 581.231 387.043 581.673 386.56 581.733L376.749 582.993C376.71 582.996 376.671 582.999 376.635 582.999ZM376.59 591.696C376.155 591.696 375.78 591.372 375.722 590.931C375.659 590.451 375.999 590.009 376.482 589.949L386.293 588.688C386.764 588.631 387.211 588.965 387.274 589.448C387.337 589.928 386.998 590.37 386.515 590.43L376.704 591.69C376.668 591.693 376.629 591.696 376.59 591.696Z" fill="black"/>
<path d="M260.244 590.428C260.145 590.428 260.046 590.412 259.947 590.376C259.491 590.211 259.256 589.71 259.419 589.254L300.135 475.995C303.27 467.277 311.597 461.42 320.865 461.42H424.331C424.814 461.42 425.207 461.813 425.207 462.297C425.207 462.78 424.814 463.173 424.331 463.173H320.865C312.339 463.173 304.672 468.565 301.787 476.589L261.07 589.848C260.941 590.205 260.604 590.428 260.244 590.428Z" fill="black"/>
<path d="M341.312 543.346C341.111 543.346 340.907 543.277 340.742 543.136C340.376 542.821 340.331 542.268 340.646 541.899L377.538 498.873C377.856 498.507 378.409 498.465 378.775 498.777C379.141 499.093 379.186 499.645 378.871 500.014L341.979 543.04C341.805 543.244 341.558 543.346 341.312 543.346Z" fill="black"/>
<path d="M411.491 244.812C408.134 248.58 406.795 254.044 408.026 258.937C409.398 254.8 413.268 251.606 417.588 251.039" fill="black"/>
<path d="M408.026 259.814C408.017 259.814 408.005 259.814 407.993 259.814C407.603 259.799 407.27 259.529 407.174 259.151C405.868 253.954 407.27 248.235 410.833 244.23C411.157 243.867 411.71 243.84 412.073 244.158C412.433 244.48 412.466 245.035 412.145 245.398C409.575 248.283 408.263 252.162 408.465 255.993C410.443 252.882 413.79 250.655 417.471 250.172C417.957 250.102 418.392 250.445 418.452 250.925C418.515 251.405 418.179 251.847 417.699 251.907C413.685 252.435 410.131 255.371 408.855 259.211C408.738 259.571 408.402 259.814 408.026 259.814Z" fill="black"/>
<path d="M411.217 252.904C406.621 258.541 392.749 286.848 403.28 294.02C409.221 298.064 420.665 298.172 427.63 296.409L422.913 297.121C421.481 302.077 418.821 307.214 418.482 308.73C427.257 318.304 442.28 319.258 448.326 306.968C448.446 302.086 447.995 289.583 448.209 283.699C463.639 244.972 423.144 237.443 411.217 252.904Z" fill="white"/>
<path d="M434.126 316.927C428.311 316.927 422.256 314.144 417.837 309.323C417.642 309.113 417.564 308.819 417.627 308.539C417.78 307.852 418.281 306.681 418.975 305.06C419.776 303.184 420.83 300.722 421.647 298.245C414.874 298.774 407.258 297.792 402.785 294.748C400.572 293.241 399.209 290.821 398.735 287.555C397.057 276.024 406.832 256.904 410.527 252.359C416.876 244.142 431.382 242.032 441.583 247.847C446.927 250.891 458.338 260.494 449.083 283.886C448.971 287.147 449.059 292.469 449.134 297.177C449.197 301.1 449.257 304.808 449.203 306.996C449.2 307.122 449.17 307.249 449.113 307.363C446.516 312.637 442.082 315.975 436.621 316.759C435.798 316.87 434.964 316.927 434.126 316.927ZM419.467 308.497C424.117 313.358 430.554 315.846 436.372 315.015C441.184 314.324 445.114 311.394 447.455 306.753C447.5 304.577 447.443 300.989 447.38 297.201C447.299 292.166 447.215 286.958 447.335 283.667C447.338 283.568 447.359 283.466 447.398 283.376C453.628 267.735 451.193 255.34 440.716 249.369C431.217 243.953 417.759 245.859 411.911 253.44C411.905 253.446 411.902 253.452 411.896 253.458C408.444 257.693 398.894 276.441 400.473 287.3C400.875 290.059 401.986 292.076 403.775 293.295C408.065 296.216 415.832 297.056 422.409 296.408C422.52 296.33 422.646 296.276 422.787 296.255L427.504 295.543C427.972 295.48 428.401 295.778 428.494 296.237C428.587 296.696 428.302 297.147 427.849 297.261C426.516 297.597 425.069 297.861 423.556 298.05C422.691 300.848 421.491 303.658 420.593 305.747C420.11 306.867 419.683 307.864 419.467 308.497Z" fill="black"/>
<path d="M439.098 275.18C437.663 275.562 436.204 274.193 436.045 272.716C435.886 271.239 436.681 269.816 437.675 268.708C438.669 267.6 439.876 266.7 440.821 265.553C441.767 264.406 442.445 262.893 442.097 261.449C441.5 258.954 438.219 258.075 435.757 258.801C433.295 259.531 431.293 261.299 428.972 262.395C425.163 264.193 420.482 264.019 416.817 261.941C413.151 259.864 410.594 255.94 410.176 251.749C409.39 243.845 417.153 237.243 424.865 235.355C432.581 233.464 440.911 235.727 447.513 240.14C450.896 242.404 453.967 245.289 455.805 248.921C457.642 252.554 458.116 257.006 456.438 260.714C459.113 257.748 464.186 257.708 467.29 260.224C470.392 262.74 471.493 267.234 470.503 271.104C469.512 274.973 466.687 278.201 463.298 280.314C457.735 283.787 450.497 284.421 444.415 281.974" fill="black"/>
<path d="M452.148 284.323C449.392 284.323 446.642 283.818 444.084 282.785C443.637 282.605 443.418 282.095 443.598 281.645C443.778 281.197 444.294 280.978 444.739 281.158C450.569 283.5 457.5 282.894 462.829 279.567C466.302 277.4 468.788 274.233 469.647 270.882C470.613 267.112 469.443 263.101 466.732 260.903C463.874 258.586 459.365 258.769 457.083 261.3C456.792 261.621 456.311 261.684 455.951 261.447C455.588 261.21 455.453 260.744 455.633 260.351C457.104 257.109 456.873 252.984 455.018 249.319C453.445 246.208 450.755 243.365 447.02 240.868C440.037 236.196 432.034 234.5 425.069 236.205C417.6 238.034 410.311 244.317 411.043 251.66C411.434 255.587 413.811 259.231 417.243 261.177C420.674 263.119 425.024 263.284 428.593 261.6C429.467 261.189 430.293 260.675 431.166 260.135C432.514 259.297 433.907 258.433 435.507 257.961C437.287 257.436 439.326 257.646 440.833 258.514C441.944 259.156 442.676 260.099 442.949 261.243C443.316 262.768 442.787 264.542 441.496 266.109C440.941 266.781 440.313 267.367 439.704 267.931C439.212 268.388 438.746 268.82 438.326 269.291C437.738 269.949 436.768 271.255 436.918 272.618C436.978 273.182 437.335 273.761 437.825 274.098C438.071 274.266 438.449 274.44 438.875 274.332C439.35 274.203 439.824 274.488 439.947 274.953C440.07 275.421 439.794 275.902 439.326 276.025C438.494 276.25 437.609 276.076 436.831 275.542C435.924 274.92 435.291 273.872 435.174 272.807C434.964 270.867 436.063 269.189 437.02 268.12C437.498 267.592 438.014 267.112 438.509 266.649C439.101 266.1 439.662 265.578 440.142 264.995C440.584 264.458 441.577 263.053 441.241 261.654C441.079 260.979 440.647 260.435 439.953 260.033C438.869 259.408 437.317 259.252 436.003 259.643C434.631 260.048 433.397 260.816 432.091 261.627C431.214 262.17 430.308 262.735 429.344 263.188C425.27 265.109 420.302 264.926 416.381 262.705C412.46 260.483 409.746 256.319 409.299 251.834C408.474 243.543 416.456 236.509 424.652 234.5C432.097 232.678 440.602 234.464 447.996 239.409C451.982 242.075 454.87 245.14 456.582 248.523C458.203 251.726 458.713 255.26 458.08 258.421C461.079 256.974 465.083 257.31 467.836 259.544C471.07 262.164 472.478 266.896 471.343 271.321C470.373 275.103 467.608 278.652 463.757 281.056C460.301 283.215 456.221 284.323 452.148 284.323ZM425.72 276.403C425.402 276.403 425.096 276.232 424.943 275.932C424.156 274.419 423.472 273.191 422.418 272.311C421.506 271.549 420.068 271.026 418.915 271.597C418.476 271.81 417.954 271.63 417.741 271.195C417.528 270.759 417.708 270.234 418.143 270.021C420.002 269.111 422.193 269.841 423.544 270.966C424.952 272.14 425.811 273.794 426.501 275.124C426.726 275.554 426.558 276.082 426.129 276.307C425.994 276.373 425.856 276.403 425.72 276.403Z" fill="black"/>
<path d="M406.484 271.435C407.502 271.435 408.327 270.609 408.327 269.591C408.327 268.573 407.502 267.748 406.484 267.748C405.466 267.748 404.641 268.573 404.641 269.591C404.641 270.609 405.466 271.435 406.484 271.435Z" fill="black"/>
<path d="M418.714 278.812C419.732 278.812 420.558 277.986 420.558 276.968C420.558 275.95 419.732 275.125 418.714 275.125C417.696 275.125 416.871 275.95 416.871 276.968C416.871 277.986 417.696 278.812 418.714 278.812Z" fill="black"/>
<path d="M412.175 288.946C412.004 288.946 411.833 288.895 411.68 288.793C411.281 288.52 411.179 287.973 411.452 287.574C412.473 286.085 413.869 285.112 415.382 284.833C416.646 284.602 417.87 284.866 418.927 285.596C419.326 285.872 419.425 286.418 419.152 286.815C418.879 287.214 418.333 287.313 417.933 287.04C417.267 286.577 416.498 286.415 415.7 286.559C414.649 286.755 413.653 287.466 412.899 288.568C412.728 288.814 412.455 288.946 412.175 288.946Z" fill="black"/>
<path d="M407.559 281.911C407.247 281.911 406.934 281.881 406.628 281.821C405.662 281.626 404.554 281.001 404.35 279.828C404.215 279.056 404.542 278.372 404.839 277.858C405.569 276.609 406.703 275.748 407.802 274.916C408.195 274.619 408.589 274.322 408.955 274.01C410.09 273.04 410.69 271.794 410.738 270.308C410.804 268.288 409.822 266.471 409.285 265.946C408.081 264.772 407.034 263.872 405.442 263.818C404.959 263.8 404.581 263.394 404.596 262.911C404.614 262.428 405.04 262.085 405.502 262.064C407.715 262.143 409.132 263.349 410.507 264.688C411.525 265.679 412.566 268.003 412.491 270.362C412.428 272.335 411.6 274.055 410.093 275.343C409.699 275.676 409.279 275.997 408.859 276.315C407.853 277.078 406.904 277.795 406.349 278.744C406.214 278.978 406.037 279.311 406.073 279.527C406.115 279.762 406.499 280.011 406.971 280.104C408.306 280.371 409.78 279.72 410.477 278.552C410.726 278.137 411.263 278.002 411.681 278.252C412.095 278.501 412.23 279.038 411.981 279.455C411.08 280.965 409.318 281.911 407.559 281.911Z" fill="black"/>
<path d="M438.23 275.942C439.822 271.102 445.024 268.472 449.863 270.061C454.703 271.652 457.333 276.854 455.744 281.693C454.159 286.521 448.951 289.163 444.111 287.575" fill="white"/>
<path d="M446.994 288.916C445.934 288.916 444.871 288.748 443.836 288.405C443.376 288.252 443.124 287.757 443.277 287.298C443.431 286.838 443.917 286.586 444.385 286.739C446.502 287.439 448.762 287.265 450.75 286.256C452.737 285.25 454.214 283.533 454.907 281.417C456.342 277.049 453.959 272.326 449.588 270.891C447.468 270.195 445.208 270.363 443.223 271.369C441.236 272.374 439.759 274.095 439.063 276.211C438.909 276.67 438.417 276.92 437.955 276.769C437.495 276.616 437.243 276.121 437.396 275.662C438.24 273.098 440.026 271.018 442.431 269.802C444.835 268.586 447.57 268.382 450.134 269.222C455.421 270.96 458.309 276.676 456.574 281.963C455.733 284.521 453.944 286.601 451.539 287.817C450.107 288.547 448.555 288.916 446.994 288.916Z" fill="black"/>
<path d="M443.957 277.825C444.506 276.153 446.305 275.244 447.977 275.793C449.649 276.342 450.559 278.141 450.009 279.813C449.46 281.482 447.662 282.394 445.989 281.845" fill="white"/>
<path d="M446.991 282.883C446.564 282.883 446.135 282.817 445.718 282.678C445.258 282.525 445.006 282.03 445.159 281.571C445.312 281.111 445.802 280.859 446.267 281.012C446.852 281.207 447.48 281.159 448.029 280.88C448.579 280.601 448.99 280.127 449.179 279.541C449.578 278.332 448.918 277.026 447.708 276.626C446.495 276.236 445.189 276.891 444.793 278.1C444.64 278.56 444.151 278.812 443.685 278.659C443.226 278.506 442.974 278.01 443.127 277.551C443.829 275.423 446.123 274.264 448.257 274.96C450.386 275.663 451.548 277.962 450.848 280.091C450.509 281.12 449.788 281.955 448.822 282.447C448.242 282.736 447.618 282.883 446.991 282.883Z" fill="black"/>
<path d="M296.115 344.715L351.086 415.056H243.639L188.668 344.715H296.115Z" fill="white"/>
<path d="M351.086 415.933H243.64C243.369 415.933 243.114 415.81 242.949 415.597L187.978 345.253C187.771 344.989 187.735 344.628 187.882 344.328C188.029 344.028 188.336 343.836 188.669 343.836H296.119C296.389 343.836 296.644 343.959 296.809 344.172L351.78 414.517C351.987 414.781 352.023 415.141 351.876 415.441C351.729 415.744 351.423 415.933 351.086 415.933ZM244.066 414.18H349.288L295.689 345.592H190.467L244.066 414.18Z" fill="black"/>
<path d="M427.271 415.057L427.556 424.957H243.395V415.057H427.271Z" fill="white"/>
<path d="M427.553 425.834H243.394C242.911 425.834 242.518 425.44 242.518 424.957V415.056C242.518 414.573 242.911 414.18 243.394 414.18H427.267C427.742 414.18 428.132 414.558 428.144 415.032L428.429 424.933C428.435 425.17 428.345 425.398 428.18 425.569C428.018 425.738 427.793 425.834 427.553 425.834ZM244.271 424.08H426.652L426.418 415.936H244.274V424.08H244.271Z" fill="black"/>
<path d="M272.77 381.443C274.892 385.925 273.061 389.551 268.69 389.551C264.319 389.551 259.053 385.925 256.931 381.443C254.802 376.949 256.634 373.322 261.005 373.322C265.379 373.322 270.641 376.949 272.77 381.443Z" fill="#737FF6"/>
<path d="M268.689 390.431C263.937 390.431 258.425 386.648 256.14 381.821C254.903 379.212 254.849 376.681 255.99 374.88C256.984 373.31 258.764 372.445 261.007 372.445C265.759 372.445 271.274 376.234 273.561 381.067C274.792 383.673 274.846 386.198 273.708 387.996C272.715 389.566 270.931 390.431 268.689 390.431ZM261.007 374.199C259.364 374.199 258.14 374.757 257.47 375.817C256.66 377.099 256.753 379.011 257.725 381.067C259.71 385.261 264.63 388.674 268.692 388.674C270.313 388.674 271.568 388.098 272.228 387.056C273.039 385.777 272.949 383.868 271.979 381.818C269.989 377.618 265.065 374.199 261.007 374.199Z" fill="black"/>
<path d="M46.6445 185.463C46.6445 207.498 53.5673 227.924 65.3384 244.687C83.9932 271.241 114.854 288.587 149.771 288.587C184.847 288.587 215.826 271.082 234.454 244.315C246.077 227.63 252.895 207.339 252.895 185.46C252.895 128.508 206.723 82.3359 149.768 82.3359C92.8132 82.3359 46.6445 128.511 46.6445 185.463Z" fill="white"/>
<path d="M149.773 289.466C115.931 289.466 84.0999 272.915 64.6225 245.191C52.287 227.623 45.7695 206.969 45.7695 185.462C45.7695 128.114 92.4246 81.459 149.773 81.459C207.118 81.459 253.776 128.114 253.776 185.462C253.776 206.831 247.343 227.353 235.176 244.819C215.716 272.774 183.792 289.466 149.773 289.466ZM149.773 83.2152C93.3913 83.2152 47.5227 129.084 47.5227 185.465C47.5227 206.612 53.9321 226.918 66.0575 244.186C85.2046 271.441 116.498 287.713 149.77 287.713C183.216 287.713 214.602 271.303 233.732 243.819C245.695 226.651 252.017 206.471 252.017 185.465C252.02 129.084 206.152 83.2152 149.773 83.2152Z" fill="black"/>
<path d="M65.3398 244.687C83.9947 271.24 114.856 288.586 149.773 288.586C184.849 288.586 215.827 271.081 234.455 244.314L219.646 223.969C215.167 217.827 208.019 214.18 200.412 214.18H100.563C92.6766 214.18 85.3036 218.103 80.8785 224.63L65.3398 244.687Z" fill="#715EEA"/>
<path d="M149.775 289.466C115.932 289.466 84.1016 272.916 64.6242 245.192C64.4021 244.876 64.4141 244.456 64.6482 244.15L80.1839 224.096C84.753 217.356 92.3813 213.307 100.562 213.307H200.41C208.267 213.307 215.721 217.101 220.356 223.457L235.165 243.802C235.385 244.105 235.391 244.513 235.174 244.819C215.718 272.774 183.794 289.466 149.775 289.466ZM66.4315 244.714C85.6116 271.652 116.716 287.713 149.772 287.713C183.008 287.713 214.214 271.505 233.376 244.33L218.936 224.489C214.631 218.587 207.708 215.06 200.41 215.06H100.562C92.9637 215.06 85.8758 218.821 81.6039 225.123L66.4315 244.714Z" fill="black"/>
<path d="M136.932 190.779C136.721 198.071 136.442 200.854 136.196 206.9C136.034 210.917 132.771 214.117 128.754 214.189C128.754 225.669 139.15 234.982 151.981 234.982C164.812 234.982 175.208 225.669 175.208 214.189L170.525 214.114C168.279 214.078 166.271 212.499 165.916 210.281C165.913 210.269 165.913 210.254 165.91 210.242C165.49 207.555 165.697 206.822 166.484 203.937" fill="white"/>
<path d="M151.979 235.858C138.688 235.858 127.875 226.137 127.875 214.189C127.875 213.712 128.256 213.321 128.737 213.312C132.285 213.249 135.176 210.415 135.32 206.867C135.419 204.444 135.521 202.544 135.626 200.668C135.782 197.816 135.93 195.117 136.056 190.755C136.071 190.272 136.488 189.929 136.956 189.902C137.44 189.917 137.821 190.32 137.809 190.803C137.683 195.189 137.536 197.897 137.377 200.761C137.274 202.628 137.172 204.522 137.073 206.936C136.902 211.115 133.714 214.507 129.649 215.006C130.133 225.612 139.964 234.108 151.982 234.108C163.981 234.108 173.804 225.639 174.311 215.054L170.513 214.994C167.763 214.949 165.467 213.024 165.053 210.418C164.599 207.518 164.839 206.645 165.629 203.754C165.755 203.286 166.247 202.988 166.713 203.114C167.181 203.244 167.463 203.7 167.334 204.165C166.551 207.032 166.391 207.618 166.779 210.106C167.061 211.877 168.673 213.21 170.54 213.24L175.224 213.315C175.704 213.324 176.088 213.715 176.088 214.192C176.082 226.137 165.269 235.858 151.979 235.858Z" fill="black"/>
<path d="M169.417 204.961C166.583 204.961 163.761 204.541 161.083 203.674C160.621 203.523 160.368 203.028 160.518 202.569C160.669 202.109 161.164 201.854 161.623 202.004C169.771 204.64 179.344 202.875 186.018 197.51C192.689 192.143 196.462 183.166 195.634 174.647C194.793 166.022 189.864 158.483 184.451 150.879C184.169 150.486 184.262 149.937 184.658 149.657C185.051 149.378 185.601 149.468 185.88 149.865C191.437 157.667 196.495 165.421 197.378 174.478C198.263 183.572 194.235 193.151 187.114 198.876C182.19 202.839 175.781 204.961 169.417 204.961ZM99.2944 150.618C100.105 152.942 101.417 155.178 103.452 156.538C106.1 158.312 109.646 158.348 112.621 157.214C113.494 156.877 114.332 156.451 115.118 155.953C117.031 154.779 118.691 153.206 120.177 151.519L128.495 135.257C128.333 134.32 128.159 133.383 127.982 132.447C127.958 132.32 127.946 132.209 127.919 132.083C127.571 130.198 127.184 128.223 125.947 126.776C124.524 125.089 122.224 124.428 120.039 124.215C113.407 123.578 106.55 126.512 102.441 131.747C98.3187 136.977 97.1089 144.335 99.2944 150.618Z" fill="black"/>
<path d="M110.771 145.897C110.771 149.856 112.447 153.441 115.118 155.951C117.031 154.777 118.691 153.204 120.177 151.517L128.496 135.254C128.334 134.318 128.159 133.381 127.982 132.444C126.908 132.168 125.785 132.033 124.635 132.033C116.98 132.033 110.771 138.241 110.771 145.897Z" fill="#737FF6"/>
<path d="M153.08 141.071C152.227 139.201 152.707 136.919 153.878 135.229C155.049 133.539 156.811 132.353 158.633 131.398C164.166 128.498 170.777 127.427 176.787 129.138C182.794 130.849 188.036 135.538 189.756 141.545C191.473 147.552 189.239 154.658 184.016 158.087C178.792 161.515 170.921 160.455 167.249 155.4C166.499 160.152 164.749 164.826 161.657 168.51C158.564 172.193 154.043 174.805 149.237 175.012C144.431 175.222 139.456 172.788 137.163 168.561C130.504 170.356 125.872 177.708 127.127 184.49C123.02 180.146 119.288 175.369 116.713 169.972C114.137 164.574 112.762 158.507 113.47 152.569C114.179 146.634 117.01 140.972 121.333 136.844C125.656 132.716 131.441 130.149 137.403 129.717C142.683 129.333 151.026 130.432 155.091 133.827M165.403 178.047C165.25 178.047 165.091 178.005 164.95 177.921C164.536 177.669 164.403 177.132 164.653 176.717C165.604 175.147 166.79 173.19 168.588 171.878C170.293 170.632 172.974 169.93 175.115 171.158C175.535 171.398 175.679 171.935 175.439 172.355C175.199 172.776 174.661 172.923 174.241 172.68C172.782 171.842 170.87 172.385 169.621 173.295C168.105 174.403 167.021 176.192 166.151 177.627C165.989 177.897 165.7 178.047 165.403 178.047Z" fill="black"/>
<path d="M189.669 173.671C190.931 173.671 191.954 172.648 191.954 171.386C191.954 170.124 190.931 169.102 189.669 169.102C188.408 169.102 187.385 170.124 187.385 171.386C187.385 172.648 188.408 173.671 189.669 173.671Z" fill="black"/>
<path d="M173.953 181.804C175.214 181.804 176.237 180.781 176.237 179.519C176.237 178.257 175.214 177.234 173.953 177.234C172.691 177.234 171.668 178.257 171.668 179.519C171.668 180.781 172.691 181.804 173.953 181.804Z" fill="black"/>
<path d="M178.712 194.652C178.244 194.652 177.772 194.592 177.298 194.471C175.503 194.018 173.903 192.733 172.792 190.863C172.543 190.446 172.681 189.908 173.098 189.662C173.516 189.416 174.053 189.551 174.299 189.968C175.173 191.436 176.389 192.433 177.727 192.772C178.754 193.031 179.775 192.88 180.688 192.334C181.102 192.085 181.642 192.22 181.891 192.637C182.141 193.052 182.005 193.592 181.588 193.841C180.688 194.378 179.715 194.652 178.712 194.652ZM187.733 186.336C185.5 186.336 183.278 185.03 182.255 183.037C182.032 182.607 182.204 182.079 182.633 181.857C183.062 181.635 183.594 181.806 183.813 182.235C184.623 183.811 186.484 184.781 188.241 184.55C188.808 184.475 189.463 184.192 189.571 183.748C189.649 183.427 189.454 182.974 189.273 182.616C188.649 181.361 187.517 180.383 186.319 179.347C185.827 178.921 185.338 178.495 184.881 178.053C183.167 176.384 182.306 174.244 182.384 171.863C182.48 168.999 183.915 166.27 185.224 165.156C187.487 163.223 189.775 162.271 192.068 162.352C192.552 162.367 192.933 162.773 192.918 163.256C192.903 163.739 192.51 164.112 192.014 164.106C190.177 164.04 188.283 164.85 186.361 166.489C185.629 167.114 184.224 169.35 184.137 171.92C184.074 173.823 184.737 175.462 186.106 176.795C186.536 177.216 187.001 177.615 187.469 178.02C188.745 179.125 190.063 180.266 190.846 181.833C191.159 182.46 191.489 183.289 191.276 184.162C190.952 185.495 189.616 186.135 188.472 186.285C188.229 186.321 187.98 186.336 187.733 186.336Z" fill="black"/>
<path d="M149.903 176.67C148.33 170.558 142.107 166.887 135.995 168.46C129.882 170.033 126.211 176.256 127.784 182.368C129.354 188.465 135.58 192.152 141.692 190.579" fill="white"/>
<path d="M138.844 191.819C133.368 191.819 128.361 188.129 126.935 182.591C125.244 176.025 129.21 169.307 135.776 167.613C138.958 166.794 142.269 167.259 145.094 168.931C147.922 170.6 149.93 173.272 150.75 176.454C150.87 176.923 150.588 177.403 150.12 177.523C149.651 177.634 149.174 177.361 149.051 176.893C148.348 174.164 146.625 171.873 144.202 170.441C141.78 169.009 138.94 168.607 136.214 169.313C130.582 170.763 127.184 176.524 128.634 182.152C130.084 187.784 135.854 191.189 141.474 189.733C141.945 189.615 142.419 189.895 142.542 190.363C142.662 190.831 142.38 191.312 141.912 191.432C140.885 191.693 139.858 191.819 138.844 191.819Z" fill="black"/>
<path d="M142.667 178.536C142.123 176.423 139.971 175.153 137.86 175.699C135.747 176.242 134.477 178.395 135.023 180.505C135.567 182.613 137.719 183.889 139.83 183.342" fill="white"/>
<path d="M138.845 184.347C136.699 184.347 134.732 182.9 134.174 180.726C133.853 179.477 134.036 178.177 134.69 177.07C135.345 175.962 136.393 175.172 137.644 174.851C138.893 174.527 140.19 174.713 141.301 175.368C142.409 176.022 143.198 177.07 143.519 178.319C143.64 178.787 143.357 179.267 142.889 179.387C142.418 179.504 141.943 179.225 141.82 178.757C141.616 177.961 141.115 177.295 140.409 176.878C139.704 176.46 138.875 176.346 138.083 176.55C137.287 176.754 136.621 177.256 136.203 177.961C135.786 178.667 135.669 179.492 135.876 180.288C136.297 181.927 137.972 182.924 139.614 182.494C140.079 182.377 140.559 182.657 140.683 183.125C140.803 183.593 140.52 184.073 140.052 184.194C139.647 184.296 139.242 184.347 138.845 184.347Z" fill="black"/>
<path d="M252.099 286.921C252.087 286.921 252.075 286.921 252.063 286.921C246.698 286.71 242.742 285.062 241.481 282.511C240.901 281.337 240.982 280.079 241.703 279.055C244.582 274.966 261.715 277.77 265.116 278.374C265.593 278.458 265.911 278.914 265.827 279.391C265.743 279.869 265.284 280.187 264.81 280.103C256.797 278.683 244.777 277.737 243.135 280.067C242.781 280.571 242.751 281.133 243.048 281.736C243.765 283.186 246.572 284.954 252.129 285.173C252.612 285.191 252.991 285.6 252.97 286.083C252.958 286.551 252.567 286.921 252.099 286.921Z" fill="black"/>
<path d="M265.189 280.189C265.168 280.189 265.147 280.189 265.126 280.186C252.451 279.274 246.6 275.005 245.352 271.312C244.784 269.637 245.156 268.061 246.369 266.989C250.581 263.27 267.942 270.967 271.734 272.714L282.505 273.969C282.985 274.026 283.331 274.461 283.274 274.942C283.217 275.422 282.778 275.761 282.301 275.71L271.388 274.437C271.295 274.425 271.205 274.401 271.121 274.362C263.397 270.784 250.164 265.974 247.531 268.298C246.862 268.889 246.678 269.757 247.012 270.745C248.11 273.996 254.178 277.634 265.249 278.43C265.733 278.463 266.096 278.883 266.06 279.367C266.03 279.838 265.645 280.189 265.189 280.189Z" fill="black"/>
<path d="M294.598 248.662C294.598 270.364 277.009 287.953 255.307 287.953C233.605 287.953 216.01 270.364 216.01 248.662C216.01 226.96 233.608 209.365 255.307 209.365C277.009 209.365 294.598 226.96 294.598 248.662Z" fill="white"/>
<path d="M255.306 288.829C233.154 288.829 215.133 270.811 215.133 248.662C215.133 226.51 233.154 208.488 255.306 208.488C277.456 208.488 295.474 226.51 295.474 248.662C295.474 270.811 277.456 288.829 255.306 288.829ZM255.306 210.241C234.121 210.241 216.886 227.476 216.886 248.662C216.886 269.844 234.121 287.076 255.306 287.076C276.489 287.076 293.721 269.844 293.721 248.662C293.721 227.476 276.489 210.241 255.306 210.241Z" fill="black"/>
<path d="M271.494 291.355L322.277 368.559C330.266 379.763 345.993 382.023 356.813 373.525L372.769 360.991L353.096 332.354L343.961 339.703L303.106 288.948L295.661 275.925C295.661 275.925 289.627 258.522 283.547 259.311C277.468 260.101 282.404 274.841 282.404 274.841C282.404 274.841 279.297 279.509 282.872 284.874" fill="white"/>
<path d="M341.988 379.559C340.784 379.559 339.571 379.472 338.355 379.298C331.529 378.316 325.563 374.683 321.562 369.067L270.758 291.836C270.491 291.43 270.605 290.887 271.01 290.62C271.415 290.356 271.959 290.467 272.226 290.872L323.009 368.076C326.71 373.269 332.258 376.65 338.607 377.562C344.96 378.481 351.228 376.797 356.272 372.834L371.579 360.811L352.906 333.633L344.509 340.388C344.137 340.694 343.579 340.631 343.279 340.256L302.424 289.5C302.394 289.464 302.367 289.425 302.346 289.386L294.9 276.363C294.873 276.315 294.852 276.267 294.834 276.216C292.589 269.746 287.527 259.671 283.664 260.182C282.976 260.272 282.484 260.587 282.118 261.172C280.322 264.036 282.322 271.812 283.24 274.565C283.327 274.823 283.288 275.105 283.138 275.33C283.027 275.498 280.412 279.602 283.607 284.39C283.874 284.793 283.766 285.339 283.364 285.606C282.961 285.873 282.415 285.765 282.148 285.363C278.848 280.416 280.746 276.039 281.451 274.739C280.773 272.613 278.263 264.018 280.626 260.242C281.265 259.221 282.238 258.597 283.436 258.441C289.935 257.627 295.702 273.379 296.464 275.561L303.838 288.455L344.098 338.473L352.549 331.673C352.738 331.52 352.984 331.454 353.224 331.487C353.468 331.523 353.684 331.658 353.822 331.859L373.494 360.496C373.756 360.877 373.678 361.396 373.314 361.681L357.358 374.212C352.897 377.716 347.545 379.559 341.988 379.559Z" fill="black"/>
<path d="M250.792 263.518C248.883 263.728 246.91 263.008 245.586 261.423L237.364 251.705C235.268 249.192 235.604 245.455 238.117 243.356C240.63 241.258 244.368 241.594 246.466 244.11L250.924 249.315L267.249 236.01C269.78 233.936 273.518 234.302 275.592 236.836C277.669 239.366 277.3 243.101 274.766 245.178L253.899 262.209C252.974 262.966 251.894 263.398 250.792 263.518Z" fill="#4BB420"/>
<path d="M250.135 264.434C248.127 264.434 246.217 263.551 244.911 261.987L236.692 252.276C234.284 249.388 234.671 245.089 237.553 242.687C238.949 241.522 240.712 240.973 242.525 241.135C244.335 241.297 245.974 242.156 247.139 243.552L251.033 248.097L266.694 235.332C268.096 234.182 269.862 233.639 271.675 233.825C273.482 234.002 275.115 234.876 276.265 236.281C277.418 237.686 277.955 239.457 277.775 241.264C277.598 243.071 276.724 244.704 275.319 245.857L254.449 262.891C253.428 263.728 252.194 264.248 250.885 264.392C250.636 264.419 250.384 264.434 250.135 264.434ZM241.906 242.858C240.726 242.858 239.598 243.266 238.679 244.032C236.542 245.815 236.253 249.009 238.037 251.147L246.256 260.859C247.349 262.167 249.009 262.828 250.696 262.648C251.669 262.54 252.582 262.155 253.341 261.531L274.211 244.497C275.253 243.642 275.902 242.432 276.034 241.09C276.166 239.748 275.767 238.433 274.911 237.391C274.055 236.347 272.846 235.701 271.504 235.569C270.141 235.434 268.847 235.836 267.805 236.692L251.477 249.997C251.111 250.297 250.567 250.252 250.258 249.889L245.8 244.683C244.926 243.639 243.711 243.002 242.369 242.879C242.213 242.867 242.059 242.858 241.906 242.858Z" fill="black"/>
<path d="M390.477 409.302H374.923C374.44 409.302 374.047 408.909 374.047 408.425C374.047 407.942 374.44 407.549 374.923 407.549H390.477C390.96 407.549 391.354 407.942 391.354 408.425C391.354 408.909 390.963 409.302 390.477 409.302Z" fill="black"/>
</svg>
