<svg width="180" height="83" viewBox="0 0 180 83" fill="none" xmlns="http://www.w3.org/2000/svg">
<path d="M179.413 2.92389V75.2356C179.413 78.7512 176.564 81.603 173.046 81.603H6.95527C3.43974 81.603 0.587891 78.7532 0.587891 75.2356V24.0794C0.587891 20.5639 3.43772 17.712 6.95527 17.712H155.275L175.608 1.11786C177.131 -0.125047 179.413 0.95696 179.413 2.92389Z" fill="white"/>
<path d="M173.045 82.1875H6.95464C3.11933 82.1875 0 79.0681 0 75.2328V24.0766C0 20.2433 3.11933 17.124 6.95464 17.124H155.065L175.236 0.660537C176.118 -0.0594626 177.305 -0.200244 178.333 0.284449C179.36 0.773164 180 1.78277 180 2.92109V75.2328C180 79.0681 176.881 82.1875 173.045 82.1875ZM6.95464 18.2985C3.76693 18.2985 1.17453 20.8909 1.17453 24.0766V75.2328C1.17453 78.4205 3.76693 81.0129 6.95464 81.0129H173.045C176.233 81.0129 178.825 78.4205 178.825 75.2328V2.92311C178.825 2.23327 178.453 1.644 177.83 1.34836C177.206 1.05271 176.515 1.13518 175.98 1.5716L155.647 18.1658C155.542 18.2523 155.409 18.2985 155.275 18.2985H6.95464Z" fill="black"/>
<path d="M30.5477 34.7917L34.3649 42.5247L42.9003 43.7656C44.5052 43.9989 45.1468 45.9719 43.9843 47.1042L37.808 53.1236L39.2661 61.6248C39.5396 63.2237 37.8623 64.4425 36.4263 63.6883L28.7919 59.676L21.1575 63.6883C19.7215 64.4425 18.0422 63.2237 18.3177 61.6248L19.7758 53.1236L13.5995 47.1042C12.4371 45.9719 13.0786 43.9989 14.6835 43.7656L23.219 42.5247L27.0362 34.7917C27.7562 33.3377 29.8297 33.3377 30.5477 34.7917Z" fill="#FDA500"/>
<path d="M20.2451 64.5055C19.7202 64.5055 19.1973 64.3406 18.7508 64.0168C17.9604 63.4436 17.5743 62.4903 17.7392 61.529L19.145 53.3334L13.1899 47.5292C12.4921 46.8474 12.2447 45.8479 12.5464 44.9207C12.848 43.9936 13.6344 43.3278 14.6018 43.1891L22.8295 41.9944L26.5099 34.537C26.9423 33.6622 27.8152 33.1191 28.7906 33.1191C29.766 33.1191 30.6409 33.6622 31.0733 34.537L34.7537 41.9944L42.9814 43.1891C43.9468 43.3299 44.7352 43.9936 45.0369 44.9207C45.3385 45.8479 45.0912 46.8474 44.3933 47.5292L38.4382 53.3334L39.844 61.529C40.0089 62.4903 39.6208 63.4436 38.8324 64.0188C38.042 64.592 37.0163 64.6664 36.1535 64.2119L28.7926 60.3424L21.4317 64.2119C21.0556 64.407 20.6494 64.5055 20.2451 64.5055ZM28.7906 34.2896C28.2576 34.2896 27.7991 34.5752 27.5638 35.0539L23.7466 42.7868C23.6601 42.9598 23.4952 43.0805 23.3041 43.1086L14.7687 44.3495C14.2418 44.4259 13.8275 44.7739 13.6626 45.2827C13.4976 45.7895 13.6264 46.3144 14.0085 46.6865L20.1848 52.706C20.3236 52.8407 20.3859 53.0358 20.3537 53.2268L18.8956 61.7281C18.8051 62.253 19.0083 62.7538 19.4407 63.0675C19.8711 63.3813 20.41 63.4215 20.8847 63.1721L28.5191 59.1598C28.688 59.0693 28.8932 59.0693 29.0661 59.1598L36.7005 63.1721C37.1752 63.4215 37.7142 63.3813 38.1426 63.0675C38.575 62.7538 38.7781 62.253 38.6876 61.7281L37.2295 53.2268C37.1973 53.0358 37.2597 52.8407 37.3984 52.706L43.5747 46.6865C43.9569 46.3144 44.0856 45.7895 43.9207 45.2827C43.7557 44.7759 43.3414 44.4259 42.8145 44.3495L34.2791 43.1086C34.088 43.0805 33.9211 42.9618 33.8366 42.7868L30.0194 35.0539C29.7841 34.5752 29.3236 34.2896 28.7906 34.2896Z" fill="black"/>
<path d="M71.3523 34.7917L75.1696 42.5247L83.705 43.7656C85.3099 43.9989 85.9515 45.9719 84.789 47.1042L78.6127 53.1236L80.0708 61.6248C80.3443 63.2237 78.667 64.4425 77.231 63.6883L69.5966 59.676L61.9622 63.6883C60.5262 64.4425 58.8469 63.2237 59.1224 61.6248L60.5805 53.1236L54.4042 47.1042C53.2417 45.9719 53.8833 43.9989 55.4882 43.7656L64.0236 42.5247L67.8408 34.7917C68.5588 33.3377 70.6344 33.3377 71.3523 34.7917Z" fill="#FDA500"/>
<path d="M61.0501 64.5056C60.5252 64.5056 60.0023 64.3407 59.5578 64.0169C58.7674 63.4437 58.3813 62.4884 58.5462 61.527L59.952 53.3315L53.9969 47.5272C53.297 46.8455 53.0517 45.8459 53.3533 44.9188C53.655 43.9916 54.4414 43.3259 55.4088 43.1871L63.6365 41.9925L67.3169 34.5351C67.7493 33.6602 68.6242 33.1172 69.5996 33.1172C70.575 33.1172 71.4499 33.6602 71.8823 34.5351L75.5607 41.9925L83.7884 43.1871C84.7538 43.3279 85.5422 43.9916 85.8439 44.9188C86.1455 45.8459 85.8982 46.8455 85.2003 47.5272L79.2452 53.3315L80.651 61.527C80.8159 62.4884 80.4278 63.4417 79.6394 64.0148C78.851 64.588 77.8253 64.6644 76.9585 64.2099L69.5976 60.3404L62.2367 64.2099C61.8606 64.407 61.4544 64.5056 61.0501 64.5056ZM69.5976 59.0895C69.6921 59.0895 69.7846 59.1116 69.8711 59.1558L77.5055 63.1681C77.9802 63.4175 78.5192 63.3773 78.9496 63.0636C79.382 62.7498 79.5851 62.249 79.4946 61.7241L78.0365 53.2229C78.0043 53.0318 78.0666 52.8367 78.2054 52.702L84.3817 46.6825C84.7639 46.3105 84.8926 45.7856 84.7276 45.2787C84.5627 44.7719 84.1484 44.422 83.6215 44.3456L75.0861 43.1047C74.895 43.0765 74.7281 42.9579 74.6436 42.7829L70.8264 35.0499C70.5911 34.5713 70.1306 34.2857 69.5976 34.2857C69.0646 34.2857 68.6041 34.5713 68.3688 35.0499L64.5516 42.7829C64.4651 42.9559 64.3002 43.0765 64.1091 43.1047L55.5737 44.3456C55.0468 44.422 54.6325 44.7699 54.4675 45.2787C54.3026 45.7856 54.4333 46.3105 54.8135 46.6825L60.9898 52.702C61.1285 52.8367 61.1909 53.0318 61.1587 53.2229L59.7006 61.7241C59.6101 62.249 59.8132 62.7498 60.2456 63.0636C60.678 63.3773 61.215 63.4175 61.6876 63.1681L69.3221 59.1558C69.4106 59.1116 69.5031 59.0895 69.5976 59.0895Z" fill="black"/>
<path d="M112.161 34.7917L115.978 42.5247L124.514 43.7656C126.118 43.9989 126.76 45.9719 125.598 47.1042L119.421 53.1236L120.879 61.6248C121.153 63.2237 119.476 64.4425 118.04 63.6883L110.405 59.676L102.771 63.6883C101.335 64.4425 99.6555 63.2237 99.931 61.6248L101.389 53.1236L95.2128 47.1042C94.0503 45.9719 94.6919 43.9989 96.2968 43.7656L104.832 42.5247L108.649 34.7917C109.367 33.3377 111.443 33.3377 112.161 34.7917Z" fill="#FDA500"/>
<path d="M101.857 64.5056C101.332 64.5056 100.809 64.3407 100.365 64.0169C99.5741 63.4437 99.188 62.4904 99.3509 61.527L100.757 53.3315L94.8016 47.5272C94.1017 46.8455 93.8564 45.8459 94.158 44.9188C94.4597 43.9916 95.2461 43.3259 96.2135 43.1871L104.441 41.9925L108.122 34.5351C108.554 33.6602 109.429 33.1172 110.404 33.1172C111.38 33.1172 112.255 33.6602 112.687 34.5351L116.367 41.9925L124.595 43.1871C125.56 43.3279 126.349 43.9916 126.651 44.9188C126.952 45.8459 126.705 46.8455 126.007 47.5272L120.052 53.3315L121.458 61.527C121.623 62.4884 121.234 63.4417 120.444 64.0169C119.654 64.59 118.628 64.6644 117.765 64.2099L110.404 60.3404L103.043 64.2099C102.667 64.407 102.261 64.5056 101.857 64.5056ZM110.404 34.2897C109.871 34.2897 109.413 34.5753 109.177 35.0539L105.36 42.7869C105.274 42.9599 105.109 43.0806 104.918 43.1087L96.3824 44.3496C95.8555 44.426 95.4412 44.7739 95.2762 45.2828C95.1113 45.7896 95.2421 46.3145 95.6222 46.6866L101.798 52.706C101.937 52.8408 102 53.0358 101.967 53.2269L100.509 61.7281C100.419 62.2531 100.624 62.7538 101.054 63.0676C101.485 63.3813 102.024 63.4216 102.496 63.1722L110.131 59.1599C110.3 59.0694 110.505 59.0694 110.678 59.1599L118.312 63.1722C118.787 63.4216 119.324 63.3813 119.754 63.0676C120.187 62.7538 120.39 62.2531 120.299 61.7281L118.841 53.2269C118.809 53.0358 118.871 52.8408 119.01 52.706L125.186 46.6866C125.569 46.3145 125.697 45.7896 125.532 45.2828C125.367 44.776 124.953 44.426 124.426 44.3496L115.891 43.1087C115.7 43.0806 115.533 42.9619 115.448 42.7869L111.631 35.0539C111.396 34.5753 110.937 34.2897 110.404 34.2897Z" fill="black"/>
<path d="M152.966 34.7917L156.783 42.5247L165.318 43.7656C166.923 43.9989 167.565 45.9719 166.402 47.1042L160.226 53.1236L161.684 61.6248C161.958 63.2237 160.28 64.4425 158.844 63.6883L151.21 59.676L143.575 63.6883C142.139 64.4425 140.46 63.2237 140.736 61.6248L142.194 53.1236L136.017 47.1042C134.855 45.9719 135.497 43.9989 137.102 43.7656L145.637 42.5247L149.454 34.7917C150.174 33.3377 152.248 33.3377 152.966 34.7917Z" fill="white"/>
<path d="M159.758 64.5056C159.354 64.5056 158.948 64.407 158.571 64.2099L151.211 60.3404L143.85 64.2099C142.985 64.6644 141.957 64.59 141.169 64.0148C140.378 63.4417 139.992 62.4884 140.157 61.527L141.563 53.3315L135.608 47.5272C134.91 46.8455 134.663 45.8459 134.964 44.9188C135.266 43.9916 136.052 43.3259 137.02 43.1871L145.247 41.9925L148.926 34.5351C149.358 33.6602 150.233 33.1172 151.209 33.1172C152.184 33.1172 153.059 33.6602 153.491 34.5351L157.172 41.9925L165.399 43.1871C166.365 43.3279 167.153 43.9916 167.455 44.9188C167.757 45.8459 167.509 46.8455 166.811 47.5272L160.856 53.3315L162.262 61.527C162.427 62.4884 162.039 63.4417 161.25 64.0169C160.804 64.3407 160.283 64.5056 159.758 64.5056ZM151.209 34.2897C150.676 34.2897 150.215 34.5753 149.98 35.0539L146.163 42.7869C146.076 42.9599 145.911 43.0806 145.72 43.1087L137.185 44.3496C136.658 44.426 136.243 44.7739 136.079 45.2828C135.914 45.7896 136.042 46.3145 136.424 46.6866L142.601 52.706C142.74 52.8408 142.802 53.0358 142.77 53.2269L141.312 61.7281C141.221 62.2531 141.424 62.7538 141.857 63.0676C142.289 63.3813 142.828 63.4195 143.301 63.1722L150.935 59.1599C151.104 59.0694 151.309 59.0694 151.482 59.1599L159.117 63.1722C159.591 63.4216 160.128 63.3813 160.559 63.0676C160.991 62.7538 161.194 62.2531 161.104 61.7281L159.645 53.2269C159.613 53.0358 159.676 52.8408 159.814 52.706L165.991 46.6866C166.373 46.3145 166.502 45.7896 166.337 45.2828C166.172 44.776 165.757 44.426 165.23 44.3496L156.695 43.1087C156.504 43.0806 156.337 42.9619 156.253 42.7869L152.435 35.0539C152.202 34.5753 151.744 34.2897 151.209 34.2897Z" fill="black"/>
</svg>
