<svg width="836" height="780" viewBox="0 0 836 780" fill="none" xmlns="http://www.w3.org/2000/svg">
<g opacity="0.7">
<path d="M1323.67 349.115C1288.49 363.502 1212.93 412.461 1192.08 493.202C1166.01 594.128 1059.01 570.988 1017.65 610.733C976.287 650.478 1016.1 748.147 940.197 797.5C864.292 846.853 794.139 814.315 750.247 881.688C706.356 949.061 719.349 1010.03 589.298 1035.86C485.256 1056.52 429.363 1155.68 414.421 1202.68" stroke="#3018CC" stroke-width="16.1837"/>
<path d="M1284.86 316.545C1249.68 330.932 1174.12 379.891 1153.27 460.632C1127.2 561.558 1020.2 538.418 978.842 578.163C937.478 617.908 977.295 715.577 901.389 764.93C825.483 814.283 755.33 781.745 711.439 849.118C667.547 916.491 680.541 977.461 550.489 1003.29C446.447 1023.95 390.554 1123.11 375.612 1170.11" stroke="#3018CC" stroke-width="16.1837"/>
<path d="M1246.05 283.996C1210.87 298.383 1135.31 347.342 1114.46 428.083C1088.39 529.009 981.394 505.869 940.031 545.614C898.668 585.359 938.484 683.028 862.578 732.381C786.673 781.734 716.519 749.196 672.628 816.569C628.737 883.942 641.73 944.913 511.678 970.738C407.637 991.398 351.743 1090.56 336.802 1137.56" stroke="#3018CC" stroke-width="16.1837"/>
<path opacity="0.5" d="M1207.24 251.424C1172.07 265.811 1096.51 314.77 1075.65 395.511C1049.59 496.437 942.588 473.297 901.224 513.042C859.861 552.787 899.677 650.455 823.772 699.808C747.866 749.161 677.713 716.624 633.821 783.997C589.93 851.37 602.924 912.34 472.872 938.166C368.83 958.826 312.937 1057.99 297.995 1104.99" stroke="#3018CC" stroke-width="16.1837"/>
<path d="M1168.43 218.854C1133.26 233.24 1057.7 282.199 1036.84 362.94C1010.78 463.867 903.777 440.726 862.414 480.471C821.051 520.216 860.867 617.885 784.961 667.238C709.055 716.591 638.902 684.053 595.011 751.427C551.119 818.8 564.113 879.77 434.061 905.595C330.02 926.256 274.126 1025.42 259.185 1072.42" stroke="#3018CC" stroke-width="16.1837"/>
<path opacity="0.5" d="M1129.62 186.281C1094.45 200.668 1018.89 249.627 998.036 330.368C971.968 431.294 864.97 408.154 823.607 447.899C782.244 487.644 822.06 585.313 746.155 634.666C670.249 684.019 600.096 651.481 556.204 718.854C512.313 786.227 525.306 847.198 395.255 873.023C291.213 893.683 235.32 992.848 220.378 1039.85" stroke="#3018CC" stroke-width="16.1837"/>
<path d="M1090.81 153.711C1055.64 168.098 980.081 217.057 959.227 297.798C933.16 398.724 826.162 375.584 784.799 415.329C743.435 455.074 783.252 552.743 707.346 602.096C631.44 651.449 561.287 618.911 517.396 686.284C473.504 753.657 486.498 814.627 356.446 840.453C252.405 861.113 196.511 960.277 181.569 1007.28" stroke="#3018CC" stroke-width="16.1837"/>
<path opacity="0.5" d="M1052.01 121.139C1016.83 135.526 941.272 184.485 920.419 265.226C894.351 366.152 787.353 343.011 745.99 382.756C704.627 422.502 744.443 520.17 668.537 569.523C592.632 618.876 522.478 586.339 478.587 653.712C434.696 721.085 447.689 782.055 317.637 807.881C213.596 828.541 157.702 927.705 142.761 974.705" stroke="#3018CC" stroke-width="16.1837"/>
<path d="M1013.2 88.5684C978.024 102.955 902.464 151.914 881.61 232.655C855.543 333.582 748.545 310.441 707.181 350.186C665.818 389.931 705.634 487.6 629.729 536.953C553.823 586.306 483.67 553.768 439.778 621.141C395.887 688.514 408.881 749.485 278.829 775.31C174.787 795.97 118.894 895.135 103.952 942.134" stroke="#3018CC" stroke-width="16.1837"/>
<path opacity="0.5" d="M974.389 55.9961C939.215 70.383 863.655 119.342 842.801 200.083C816.734 301.009 709.736 277.869 668.373 317.614C627.01 357.359 666.826 455.028 590.92 504.381C515.014 553.734 444.861 521.196 400.97 588.569C357.078 655.942 370.072 716.913 240.02 742.738C135.979 763.398 80.0852 862.562 65.1436 909.562" stroke="#3018CC" stroke-width="16.1837"/>
<path d="M935.58 23.4258C900.407 37.8127 824.847 86.7717 803.993 167.513C777.925 268.439 670.927 245.298 629.564 285.044C588.201 324.789 628.017 422.457 552.112 471.81C476.206 521.163 406.053 488.626 362.161 555.999C318.27 623.372 331.263 684.342 201.212 710.168C97.1701 730.828 41.2766 829.992 26.335 876.992" stroke="#3018CC" stroke-width="16.1837"/>
</g>
</svg>
