<svg width="94" height="95" viewBox="0 0 94 95" fill="none" xmlns="http://www.w3.org/2000/svg">
<path d="M13.5325 78.173L10.7746 93.6486L24.6261 86.6654C25.6369 87.2226 26.6814 87.7434 27.7481 88.2222C50.7753 98.6214 77.8542 88.3706 88.2422 65.3546C98.6302 42.3498 88.4241 15.2598 65.3969 4.87177C42.3921 -5.51623 15.3022 4.72337 4.91417 27.717C-2.99863 45.2226 1.03334 65.0914 13.5325 78.173Z" fill="white"/>
<path d="M10.7745 94.4652C10.9005 94.4652 11.0265 94.4372 11.1441 94.3784L24.6121 87.5884C25.5417 88.0868 26.4825 88.5488 27.4149 88.966C38.7465 94.0844 51.3941 94.4792 63.0253 90.0832C74.6537 85.6844 83.8741 77.0212 88.9897 65.6896C94.1053 54.3608 94.5057 41.7188 90.1181 30.0904C85.7277 18.4564 77.0701 9.23598 65.7357 4.12318C42.3529 -6.43842 14.7365 3.99438 4.16928 27.3772C-3.63712 44.6476 -0.299538 64.6396 12.6561 78.4352L9.97088 93.5048C9.91767 93.81 10.0381 94.118 10.2873 94.3056C10.4301 94.4092 10.6037 94.4652 10.7745 94.4652ZM24.6261 85.8468C24.5001 85.8468 24.3741 85.8748 24.2565 85.9336L11.8665 92.1804L14.3361 78.3148C14.3809 78.0572 14.3025 77.794 14.1233 77.6064C1.39446 64.2868 -1.92633 44.838 5.65887 28.0492C15.8537 5.48958 42.5013 -4.57362 65.0609 5.61278C75.9949 10.5464 84.3501 19.4448 88.5837 30.6672C92.8173 41.8868 92.4309 54.0836 87.4945 65.0148C82.5581 75.9488 73.6625 84.3068 62.4429 88.5516C51.2205 92.7964 39.0181 92.4156 28.0813 87.4736C27.0565 87.0172 26.0289 86.5048 25.0181 85.9476C24.8977 85.8804 24.7633 85.8468 24.6261 85.8468Z" fill="black"/>
<path d="M36.2636 32.9711H57.3504C57.8012 32.9711 58.168 32.6043 58.168 32.1535C58.168 31.7027 57.8012 31.3359 57.3504 31.3359H36.2636C35.8128 31.3359 35.446 31.7027 35.446 32.1535C35.446 32.6043 35.8128 32.9711 36.2636 32.9711Z" fill="black"/>
<path d="M24.1316 45.809H69.4832C69.934 45.809 70.3008 45.4422 70.3008 44.9914C70.3008 44.5406 69.934 44.1738 69.4832 44.1738H24.1316C23.6808 44.1738 23.314 44.5406 23.314 44.9914C23.314 45.4422 23.6808 45.809 24.1316 45.809Z" fill="black"/>
<path d="M24.1316 58.6508H69.4832C69.934 58.6508 70.3008 58.284 70.3008 57.8332C70.3008 57.3824 69.934 57.0156 69.4832 57.0156H24.1316C23.6808 57.0156 23.314 57.3824 23.314 57.8332C23.314 58.284 23.6808 58.6508 24.1316 58.6508Z" fill="black"/>
</svg>
