<svg width="40" height="40" viewBox="0 0 40 40" fill="none" xmlns="http://www.w3.org/2000/svg">
<g id="Frame 57830">
<g id="Group 52931">
<rect id="Rectangle 17623" x="-0.0078125" width="40" height="40" rx="20" fill="#F4F2FF"/>
<g id="Work">
<path id="Stroke 1" d="M20.3418 24.8743V22.2969" stroke="#261498" stroke-width="1.5239" stroke-miterlimit="10" stroke-linecap="round" stroke-linejoin="round"/>
<g id="Group 8">
<path id="Stroke 2" d="M26.6352 13.3438C27.0429 13.3439 27.4466 13.4245 27.8231 13.5809C28.1997 13.7373 28.5417 13.9664 28.8295 14.2552C29.1173 14.544 29.3454 14.8867 29.5005 15.2638C29.6557 15.6408 29.735 16.0448 29.7338 16.4525V19.9473C26.8597 21.5361 23.62 22.3452 20.3364 22.2941C17.0561 22.3452 13.8196 21.5361 10.9492 19.9473L10.9492 16.4423C10.9494 16.0346 11.0299 15.6309 11.1863 15.2544C11.3427 14.8778 11.5719 14.5359 11.8607 14.248C12.1494 13.9602 12.4922 13.7321 12.8692 13.577C13.2463 13.4218 13.6502 13.3426 14.058 13.3438H26.6352Z" stroke="#261498" stroke-width="1.5239" stroke-miterlimit="10" stroke-linecap="round" stroke-linejoin="round"/>
<path id="Stroke 4" d="M23.8986 13.3436V12.9718C23.8983 12.3764 23.6617 11.8055 23.2407 11.3845C22.8197 10.9635 22.2488 10.7268 21.6534 10.7266H19.0323C18.4369 10.7268 17.866 10.9635 17.445 11.3845C17.024 11.8055 16.7874 12.3764 16.7871 12.9718V13.3436" stroke="#261498" stroke-width="1.5239" stroke-miterlimit="10" stroke-linecap="round" stroke-linejoin="round"/>
<path id="Stroke 6" d="M10.9766 23.6562L11.1686 26.2052C11.2306 27.0337 11.6034 27.8081 12.2123 28.3734C12.8212 28.9386 13.6213 29.2528 14.4521 29.253H26.2368C27.0676 29.2528 27.8677 28.9386 28.4766 28.3734C29.0855 27.8081 29.4583 27.0337 29.5203 26.2052L29.7113 23.6562" stroke="#261498" stroke-width="1.5239" stroke-miterlimit="10" stroke-linecap="round" stroke-linejoin="round"/>
</g>
</g>
</g>
</g>
</svg>
