<svg width="40" height="41" viewBox="0 0 40 41" fill="none" xmlns="http://www.w3.org/2000/svg">
<g id="Frame 57830">
<g id="Group 52931">
<rect id="Rectangle 17623" x="-0.00830078" y="0.5" width="40" height="40" rx="20" fill="white"/>
<g id="Work">
<path id="Stroke 1" d="M20.3403 25.3743V22.7969" stroke="#261498" stroke-width="1.5239" stroke-miterlimit="10" stroke-linecap="round" stroke-linejoin="round"/>
<g id="Group 8">
<path id="Stroke 2" d="M26.6342 13.8438C27.0419 13.8439 27.4456 13.9245 27.8222 14.0809C28.1987 14.2373 28.5407 14.4664 28.8285 14.7552C29.1164 15.044 29.3444 15.3867 29.4996 15.7638C29.6547 16.1408 29.734 16.5448 29.7328 16.9525V20.4473C26.8588 22.0361 23.619 22.8452 20.3354 22.7941C17.0551 22.8452 13.8186 22.0361 10.9482 20.4473L10.9482 16.9423C10.9484 16.5346 11.0289 16.1309 11.1853 15.7544C11.3417 15.3778 11.5709 15.0359 11.8597 14.748C12.1485 14.4602 12.4912 14.2321 12.8682 14.077C13.2453 13.9218 13.6493 13.8426 14.057 13.8438H26.6342Z" stroke="#261498" stroke-width="1.5239" stroke-miterlimit="10" stroke-linecap="round" stroke-linejoin="round"/>
<path id="Stroke 4" d="M23.8976 13.8436V13.4718C23.8974 12.8764 23.6607 12.3055 23.2397 11.8845C22.8187 11.4635 22.2478 11.2268 21.6524 11.2266H19.0313C18.436 11.2268 17.865 11.4635 17.444 11.8845C17.023 12.3055 16.7864 12.8764 16.7861 13.4718V13.8436" stroke="#261498" stroke-width="1.5239" stroke-miterlimit="10" stroke-linecap="round" stroke-linejoin="round"/>
<path id="Stroke 6" d="M10.9756 24.1562L11.1676 26.7052C11.2296 27.5337 11.6024 28.3081 12.2113 28.8734C12.8203 29.4386 13.6203 29.7528 14.4511 29.753H26.2359C27.0667 29.7528 27.8667 29.4386 28.4756 28.8734C29.0845 28.3081 29.4573 27.5337 29.5194 26.7052L29.7103 24.1562" stroke="#261498" stroke-width="1.5239" stroke-miterlimit="10" stroke-linecap="round" stroke-linejoin="round"/>
</g>
</g>
</g>
</g>
</svg>
