<svg width="20" height="20" viewBox="0 0 20 20" fill="none" xmlns="http://www.w3.org/2000/svg">
<g id="Work">
<path id="Stroke 1" d="M9.99512 14.6771V12.1401" stroke="white" stroke-width="1.5" stroke-miterlimit="10" stroke-linecap="round" stroke-linejoin="round"/>
<g id="Group 8">
<path id="Stroke 2" d="M16.19 3.33009C16.5913 3.33022 16.9887 3.40953 17.3593 3.56348C17.73 3.71743 18.0666 3.94299 18.3499 4.22724C18.6332 4.51149 18.8577 4.84885 19.0104 5.21999C19.1632 5.59113 19.2412 5.98876 19.24 6.39009V9.83009C16.411 11.394 13.2221 12.1903 9.99 12.1401C6.7611 12.1904 3.57535 11.394 0.75 9.83009L0.75 6.38009C0.75013 5.97875 0.829441 5.58139 0.983389 5.21075C1.13734 4.84011 1.3629 4.50349 1.64715 4.22017C1.9314 3.93684 2.26876 3.71239 2.6399 3.55965C3.01104 3.40692 3.40866 3.32891 3.81 3.33009H16.19Z" stroke="white" stroke-width="1.5" stroke-miterlimit="10" stroke-linecap="round" stroke-linejoin="round"/>
<path id="Stroke 4" d="M13.4951 3.326V2.96C13.4949 2.37395 13.2619 1.81198 12.8475 1.39759C12.4331 0.983189 11.8712 0.750265 11.2851 0.75L8.70512 0.75C8.11907 0.750265 7.5571 0.983189 7.1427 1.39759C6.72831 1.81198 6.49538 2.37395 6.49512 2.96V3.326" stroke="white" stroke-width="1.5" stroke-miterlimit="10" stroke-linecap="round" stroke-linejoin="round"/>
<path id="Stroke 6" d="M0.773926 13.4829L0.962926 15.9919C1.02397 16.8074 1.39094 17.5697 1.99031 18.126C2.58968 18.6824 3.37715 18.9917 4.19493 18.9919H15.7949C16.6127 18.9917 17.4002 18.6824 17.9995 18.126C18.5989 17.5697 18.9659 16.8074 19.0269 15.9919L19.2149 13.4829" stroke="white" stroke-width="1.5" stroke-miterlimit="10" stroke-linecap="round" stroke-linejoin="round"/>
</g>
</g>
</svg>
