<svg width="20" height="20" viewBox="0 0 20 20" fill="none" xmlns="http://www.w3.org/2000/svg">
<g id="3028_group">
<rect id="3029_rectangle" width="20" height="20" rx="1.42857" fill="#F0F0F0"/>
<g id="3030_group">
<path id="3031_vector" d="M10.1748 13.4293V11.6172" stroke="black" stroke-width="1.07143" stroke-miterlimit="10" stroke-linecap="round" stroke-linejoin="round"/>
<g id="3032_group">
<path id="3033_vector" d="M14.5999 5.32813C14.8865 5.32823 15.1704 5.38488 15.4351 5.49484C15.6998 5.6048 15.9403 5.76592 16.1427 5.96896C16.345 6.17199 16.5054 6.41296 16.6145 6.67806C16.7236 6.94316 16.7793 7.22718 16.7784 7.51385V9.97099C14.7577 11.088 12.4799 11.6569 10.1713 11.621C7.86493 11.6569 5.5894 11.0881 3.57129 9.97099L3.57129 7.50671C3.57138 7.22004 3.62803 6.9362 3.738 6.67146C3.84796 6.40672 4.00907 6.16628 4.21211 5.9639C4.41515 5.76153 4.65612 5.6012 4.92122 5.49211C5.18632 5.38301 5.47034 5.32729 5.757 5.32813H14.5999Z" stroke="black" stroke-width="1.07143" stroke-miterlimit="10" stroke-linecap="round" stroke-linejoin="round"/>
<path id="3034_vector" d="M12.6748 5.32438V5.06295C12.6746 4.64434 12.5082 4.24294 12.2122 3.94694C11.9162 3.65094 11.5148 3.48456 11.0962 3.48438H9.25338C8.83477 3.48456 8.43337 3.65094 8.13737 3.94694C7.84137 4.24294 7.67499 4.64434 7.6748 5.06295V5.32438" stroke="black" stroke-width="1.07143" stroke-miterlimit="10" stroke-linecap="round" stroke-linejoin="round"/>
<path id="3035_vector" d="M3.58838 12.5781L3.72338 14.3703C3.76698 14.9528 4.02911 15.4973 4.45722 15.8947C4.88534 16.292 5.44783 16.513 6.03195 16.5131H14.3177C14.9018 16.513 15.4643 16.292 15.8924 15.8947C16.3205 15.4973 16.5826 14.9528 16.6262 14.3703L16.7605 12.5781" stroke="black" stroke-width="1.07143" stroke-miterlimit="10" stroke-linecap="round" stroke-linejoin="round"/>
</g>
</g>
</g>
</svg>
