<svg width="14" height="7" viewBox="0 0 14 7" fill="none" xmlns="http://www.w3.org/2000/svg">
<g id="Group 29817">
<path id="Vector" d="M4.15156 3.65755C4.15156 3.83436 4.22268 4.00393 4.34927 4.12896C4.47585 4.25398 4.64754 4.32422 4.82656 4.32422H8.87656C9.05558 4.32422 9.22727 4.25398 9.35386 4.12896C9.48045 4.00393 9.55156 3.83436 9.55156 3.65755C9.55156 3.48074 9.48045 3.31117 9.35386 3.18615C9.22727 3.06112 9.05558 2.99089 8.87656 2.99089H4.82656C4.64754 2.99089 4.47585 3.06112 4.34927 3.18615C4.22268 3.31117 4.15156 3.48074 4.15156 3.65755ZM5.50156 5.65755H3.47656C2.9395 5.65755 2.42443 5.44684 2.04467 5.07177C1.66491 4.69669 1.45156 4.18798 1.45156 3.65755C1.45156 3.12712 1.66491 2.61841 2.04467 2.24334C2.42443 1.86827 2.9395 1.65755 3.47656 1.65755H5.50156C5.68058 1.65755 5.85227 1.58731 5.97886 1.46229C6.10545 1.33727 6.17656 1.1677 6.17656 0.990885C6.17656 0.814074 6.10545 0.644505 5.97886 0.519481C5.85227 0.394457 5.68058 0.324219 5.50156 0.324219H3.47656C2.58146 0.324219 1.72301 0.675408 1.09008 1.30053C0.457142 1.92565 0.101563 2.7735 0.101562 3.65755C0.101563 4.54161 0.457142 5.38945 1.09008 6.01457C1.72301 6.6397 2.58146 6.99088 3.47656 6.99088H5.50156C5.68058 6.99088 5.85227 6.92065 5.97886 6.79562C6.10545 6.6706 6.17656 6.50103 6.17656 6.32422C6.17656 6.14741 6.10545 5.97784 5.97886 5.85281C5.85227 5.72779 5.68058 5.65755 5.50156 5.65755ZM10.2266 0.324219H8.20156C8.02254 0.324219 7.85085 0.394457 7.72427 0.519481C7.59768 0.644505 7.52656 0.814074 7.52656 0.990885C7.52656 1.1677 7.59768 1.33727 7.72427 1.46229C7.85085 1.58731 8.02254 1.65755 8.20156 1.65755H10.2266C10.7636 1.65755 11.2787 1.86827 11.6585 2.24334C12.0382 2.61841 12.2516 3.12712 12.2516 3.65755C12.2516 4.18798 12.0382 4.69669 11.6585 5.07177C11.2787 5.44684 10.7636 5.65755 10.2266 5.65755H8.20156C8.02254 5.65755 7.85085 5.72779 7.72427 5.85281C7.59768 5.97784 7.52656 6.14741 7.52656 6.32422C7.52656 6.50103 7.59768 6.6706 7.72427 6.79562C7.85085 6.92065 8.02254 6.99088 8.20156 6.99088H10.2266C11.1217 6.99089 11.9801 6.6397 12.613 6.01457C13.246 5.38945 13.6016 4.54161 13.6016 3.65755C13.6016 2.7735 13.246 1.92565 12.613 1.30053C11.9801 0.675408 11.1217 0.324219 10.2266 0.324219Z" fill="white"/>
</g>
</svg>
