<svg width="20" height="21" viewBox="0 0 20 21" fill="none" xmlns="http://www.w3.org/2000/svg">
<g id="link">
<path id="Vector" d="M10.0909 13.3262L6.85755 16.5596C6.46608 16.9374 5.94326 17.1485 5.39921 17.1485C4.85516 17.1485 4.33235 16.9374 3.94088 16.5596C3.74888 16.3683 3.59654 16.141 3.49259 15.8908C3.38864 15.6405 3.33513 15.3722 3.33513 15.1012C3.33513 14.8302 3.38864 14.5619 3.49259 14.3117C3.59654 14.0614 3.74888 13.8341 3.94088 13.6429L7.17421 10.4096C7.33113 10.2526 7.41929 10.0398 7.41929 9.81788C7.41929 9.59597 7.33113 9.38314 7.17421 9.22622C7.01729 9.0693 6.80446 8.98114 6.58255 8.98114C6.36063 8.98114 6.1478 9.0693 5.99088 9.22622L2.75755 12.4679C2.10618 13.1769 1.7539 14.1101 1.77427 15.0727C1.79465 16.0352 2.18611 16.9527 2.86691 17.6335C3.5477 18.3143 4.46518 18.7058 5.42775 18.7262C6.39032 18.7465 7.32355 18.3943 8.03255 17.7429L11.2742 14.5096C11.4311 14.3526 11.5193 14.1398 11.5193 13.9179C11.5193 13.696 11.4311 13.4831 11.2742 13.3262C11.1173 13.1693 10.9045 13.0811 10.6825 13.0811C10.4606 13.0811 10.2478 13.1693 10.0909 13.3262ZM17.2409 3.25955C16.5399 2.56289 15.5917 2.17188 14.6034 2.17188C13.6151 2.17188 12.6669 2.56289 11.9659 3.25955L8.72421 6.49289C8.64651 6.57058 8.58488 6.66283 8.54283 6.76434C8.50078 6.86586 8.47914 6.97467 8.47914 7.08455C8.47914 7.19443 8.50078 7.30324 8.54283 7.40476C8.58488 7.50628 8.64651 7.59852 8.72421 7.67622C8.80191 7.75392 8.89415 7.81555 8.99567 7.8576C9.09719 7.89965 9.206 7.92129 9.31588 7.92129C9.42576 7.92129 9.53457 7.89965 9.63609 7.8576C9.73761 7.81555 9.82985 7.75392 9.90755 7.67622L13.1409 4.44288C13.5323 4.06507 14.0552 3.85393 14.5992 3.85393C15.1433 3.85393 15.6661 4.06507 16.0575 4.44288C16.2495 4.63412 16.4019 4.86139 16.5058 5.11165C16.6098 5.36191 16.6633 5.63023 16.6633 5.90122C16.6633 6.17221 16.6098 6.44053 16.5058 6.69079C16.4019 6.94104 16.2495 7.16831 16.0575 7.35955L12.8242 10.5929C12.7461 10.6704 12.6841 10.7625 12.6418 10.8641C12.5995 10.9656 12.5777 11.0745 12.5777 11.1846C12.5777 11.2946 12.5995 11.4035 12.6418 11.505C12.6841 11.6066 12.7461 11.6987 12.8242 11.7762C12.9017 11.8543 12.9938 11.9163 13.0954 11.9586C13.1969 12.0009 13.3059 12.0227 13.4159 12.0227C13.5259 12.0227 13.6348 12.0009 13.7364 11.9586C13.8379 11.9163 13.9301 11.8543 14.0075 11.7762L17.2409 8.53455C17.9375 7.83354 18.3286 6.88536 18.3286 5.89705C18.3286 4.90874 17.9375 3.96057 17.2409 3.25955ZM7.35755 13.1429C7.43541 13.2201 7.52776 13.2812 7.62929 13.3227C7.73082 13.3642 7.83954 13.3852 7.94921 13.3846C8.05888 13.3852 8.1676 13.3642 8.26913 13.3227C8.37067 13.2812 8.46301 13.2201 8.54088 13.1429L12.6409 9.04288C12.7978 8.88596 12.886 8.67314 12.886 8.45122C12.886 8.2293 12.7978 8.01647 12.6409 7.85955C12.484 7.70263 12.2711 7.61448 12.0492 7.61448C11.8273 7.61448 11.6145 7.70263 11.4575 7.85955L7.35755 11.9596C7.27944 12.037 7.21744 12.1292 7.17514 12.2307C7.13283 12.3323 7.11105 12.4412 7.11105 12.5512C7.11105 12.6612 7.13283 12.7701 7.17514 12.8717C7.21744 12.9732 7.27944 13.0654 7.35755 13.1429Z" fill="#BABCBE"/>
</g>
</svg>
