<svg width="30" height="20" viewBox="0 0 30 20" fill="none" xmlns="http://www.w3.org/2000/svg">
<path d="M1.55887 17V3.14718H5.3197V8.55844H10.2981V3.14718H14.0589V17H10.2981V11.5887H5.3197V17H1.55887ZM16.9874 17V3.14718H22.9669C23.995 3.14718 24.8946 3.33432 25.6657 3.7086C26.4369 4.08288 27.0366 4.62175 27.465 5.32522C27.8934 6.02868 28.1076 6.87193 28.1076 7.85498C28.1076 8.84704 27.8866 9.68353 27.4447 10.3644C27.0073 11.0454 26.3918 11.5594 25.5981 11.9067C24.809 12.2539 23.8868 12.4275 22.8316 12.4275H19.2602V9.50541H22.074C22.5159 9.50541 22.8925 9.4513 23.2036 9.34307C23.5193 9.23034 23.7605 9.05222 23.9274 8.80871C24.0987 8.5652 24.1844 8.24729 24.1844 7.85498C24.1844 7.45815 24.0987 7.13573 23.9274 6.88772C23.7605 6.63519 23.5193 6.45031 23.2036 6.33306C22.8925 6.21131 22.5159 6.15043 22.074 6.15043H20.7483V17H16.9874ZM25.1043 10.6418L28.5675 17H24.482L21.1 10.6418H25.1043Z" fill="#A6A6A8"/>
</svg>
