<svg width="24" height="24" viewBox="0 0 24 24" fill="none" xmlns="http://www.w3.org/2000/svg">
<g id="Component 2334" opacity="0.6">
<g id="3 User">
<path id="Stroke 1" d="M18.1379 10.6194C18.8227 10.5222 19.4496 10.1815 19.9036 9.65975C20.3576 9.13796 20.6084 8.47004 20.6099 7.77838C20.6098 7.09727 20.3679 6.43833 19.9273 5.91895C19.4866 5.39957 18.8759 5.05349 18.2039 4.94238" stroke="white" stroke-width="1.5" stroke-miterlimit="10" stroke-linecap="round" stroke-linejoin="round"/>
<path id="Stroke 3" d="M19.979 13.9717C21.33 14.1717 22.273 14.6467 22.273 15.6217C22.273 16.2927 21.829 16.7287 21.111 17.0027" stroke="white" stroke-width="1.5" stroke-miterlimit="10" stroke-linecap="round" stroke-linejoin="round"/>
<path id="Stroke 5" d="M12.137 14.3857C8.92298 14.3857 6.17798 14.8727 6.17798 16.8177C6.17798 18.7627 8.90598 19.2627 12.137 19.2627C15.351 19.2627 18.095 18.7807 18.095 16.8347C18.095 14.8887 15.368 14.3857 12.137 14.3857Z" stroke="white" stroke-width="1.5" stroke-miterlimit="10" stroke-linecap="round" stroke-linejoin="round"/>
<path id="Stroke 7" d="M12.1371 11.61C13.145 11.6063 14.1103 11.2028 14.8211 10.4881C15.5318 9.77342 15.93 8.80593 15.9281 7.798C15.9263 6.79007 15.5246 5.82405 14.8112 5.11198C14.0978 4.39992 13.1311 4 12.1231 4C11.1152 4 10.1484 4.39992 9.43505 5.11198C8.72168 5.82405 8.31998 6.79007 8.31812 7.798C8.31627 8.80593 8.71441 9.77342 9.42516 10.4881C10.1359 11.2028 11.1012 11.6063 12.1091 11.61H12.1371Z" stroke="white" stroke-width="1.5" stroke-miterlimit="10" stroke-linecap="round" stroke-linejoin="round"/>
<path id="Stroke 9" d="M6.13493 10.6194C5.4545 10.5245 4.83065 10.1888 4.37665 9.67317C3.92264 9.15755 3.66858 8.49623 3.66059 7.80927C3.65261 7.1223 3.89122 6.45525 4.33312 5.92922C4.77502 5.40318 5.39089 5.05305 6.06893 4.94238" stroke="white" stroke-width="1.5" stroke-miterlimit="10" stroke-linecap="round" stroke-linejoin="round"/>
<path id="Stroke 11" d="M4.294 13.9717C2.943 14.1717 2 14.6467 2 15.6217C2 16.2927 2.444 16.7287 3.162 17.0027" stroke="white" stroke-width="1.5" stroke-miterlimit="10" stroke-linecap="round" stroke-linejoin="round"/>
</g>
</g>
</svg>
