<svg width="24" height="24" viewBox="0 0 24 24" fill="none" xmlns="http://www.w3.org/2000/svg">
<path d="M5.87976 15.326C5.73254 15.3285 5.59233 15.3893 5.48993 15.4951C5.38753 15.6009 5.3313 15.743 5.33361 15.8902L5.3365 17.5561H4.41564C4.34202 17.5551 4.26893 17.5687 4.20062 17.5962C4.1323 17.6236 4.07012 17.6644 4.0177 17.7161C3.96527 17.7677 3.92364 17.8293 3.89522 17.8973C3.86681 17.9652 3.85217 18.0381 3.85217 18.1117C3.85217 18.1853 3.86681 18.2582 3.89522 18.3261C3.92364 18.3941 3.96527 18.4556 4.0177 18.5073C4.07012 18.559 4.1323 18.5998 4.20062 18.6272C4.26893 18.6547 4.34202 18.6683 4.41564 18.6673H5.89351C5.96652 18.6672 6.03882 18.6528 6.10627 18.6249C6.17371 18.5969 6.23499 18.5559 6.28658 18.5043C6.33818 18.4526 6.37909 18.3913 6.40696 18.3238C6.43484 18.2563 6.44915 18.184 6.44906 18.111L6.44472 15.8888C6.44569 15.8144 6.43173 15.7406 6.40365 15.6717C6.37558 15.6029 6.33396 15.5403 6.28128 15.4879C6.22859 15.4354 6.16591 15.394 6.09694 15.3662C6.02797 15.3384 5.95412 15.3247 5.87976 15.326ZM5.87976 11.2519C5.73254 11.2544 5.59233 11.3152 5.48993 11.421C5.38753 11.5268 5.3313 11.6689 5.33361 11.8161L5.3365 13.4821H4.41564C4.34202 13.481 4.26893 13.4946 4.20062 13.5221C4.1323 13.5495 4.07012 13.5903 4.0177 13.642C3.96527 13.6937 3.92364 13.7553 3.89522 13.8232C3.86681 13.8911 3.85217 13.964 3.85217 14.0376C3.85217 14.1112 3.86681 14.1841 3.89522 14.2521C3.92364 14.32 3.96527 14.3816 4.0177 14.4333C4.07012 14.485 4.1323 14.5257 4.20062 14.5532C4.26893 14.5806 4.34202 14.5942 4.41564 14.5932H5.89351C5.96652 14.5932 6.03882 14.5788 6.10627 14.5508C6.17371 14.5228 6.23499 14.4819 6.28658 14.4302C6.33818 14.3785 6.37909 14.3172 6.40696 14.2497C6.43484 14.1822 6.44915 14.1099 6.44906 14.0369L6.44472 11.8147C6.44569 11.7403 6.43173 11.6665 6.40365 11.5977C6.37558 11.5288 6.33396 11.4663 6.28128 11.4138C6.22859 11.3613 6.16591 11.3199 6.09694 11.2921C6.02797 11.2643 5.95412 11.2506 5.87976 11.2519ZM5.87976 7.17781C5.73254 7.1803 5.59233 7.24112 5.48993 7.34692C5.38753 7.45271 5.3313 7.59483 5.33361 7.74205L5.3365 9.40799H4.41564C4.34202 9.40695 4.26893 9.42055 4.20062 9.44801C4.1323 9.47546 4.07012 9.51621 4.0177 9.5679C3.96527 9.6196 3.92364 9.68119 3.89522 9.74911C3.86681 9.81703 3.85217 9.88992 3.85217 9.96355C3.85217 10.0372 3.86681 10.1101 3.89522 10.178C3.92364 10.2459 3.96527 10.3075 4.0177 10.3592C4.07012 10.4109 4.1323 10.4516 4.20062 10.4791C4.26893 10.5065 4.34202 10.5201 4.41564 10.5191H5.89351C5.96652 10.5191 6.03882 10.5047 6.10627 10.4767C6.17371 10.4488 6.23499 10.4078 6.28658 10.3561C6.33818 10.3045 6.37909 10.2431 6.40696 10.1756C6.43484 10.1082 6.44915 10.0358 6.44906 9.96283L6.44472 7.7406C6.44569 7.66624 6.43173 7.59245 6.40365 7.52358C6.37558 7.45472 6.33396 7.3922 6.28128 7.33971C6.22859 7.28723 6.16591 7.24586 6.09694 7.21805C6.02797 7.19024 5.95412 7.17656 5.87976 7.17781Z" fill="#5F5F5F" stroke="#5F5F5F" stroke-width="0.5"/>
<path d="M7.00028 2C6.08655 2 5.33361 2.75294 5.33361 3.66667V3.66739L5.3365 5.33333H4.41564C4.34202 5.33229 4.26893 5.34589 4.20062 5.37334C4.1323 5.4008 4.07012 5.44155 4.0177 5.49324C3.96527 5.54494 3.92364 5.60653 3.89522 5.67445C3.86681 5.74237 3.85217 5.81526 3.85217 5.88889C3.85217 5.96251 3.86681 6.03541 3.89522 6.10333C3.92364 6.17125 3.96527 6.23284 4.0177 6.28453C4.07012 6.33622 4.1323 6.37698 4.20062 6.40443C4.26893 6.43188 4.34202 6.44549 4.41564 6.44444H5.89351C5.96652 6.44444 6.03882 6.43004 6.10627 6.40207C6.17371 6.3741 6.23499 6.33312 6.28658 6.28145C6.33818 6.22979 6.37909 6.16846 6.40697 6.10098C6.43484 6.0335 6.44915 5.96118 6.44906 5.88817L6.44472 3.66594C6.44509 3.34893 6.68314 3.11111 7.00028 3.11111H18.4818C18.7991 3.11111 19.0373 3.34928 19.0373 3.66667V20.3333C19.0373 20.6507 18.7991 20.8889 18.4818 20.8889H7.00028C6.68289 20.8889 6.44472 20.6507 6.44472 20.3333V19.963C6.44576 19.8893 6.43216 19.8163 6.40471 19.7479C6.37726 19.6796 6.3365 19.6174 6.28481 19.565C6.23312 19.5126 6.17152 19.471 6.1036 19.4425C6.03568 19.4141 5.96279 19.3995 5.88917 19.3995C5.81554 19.3995 5.74265 19.4141 5.67473 19.4425C5.60681 19.471 5.54521 19.5126 5.49352 19.565C5.44183 19.6174 5.40107 19.6796 5.37362 19.7479C5.34617 19.8163 5.33257 19.8893 5.33361 19.963V20.3333C5.33361 21.2471 6.08655 22 7.00028 22H18.4818C19.3955 22 20.1484 21.2471 20.1484 20.3333V3.66667C20.1484 2.75294 19.3955 2 18.4818 2H7.00028Z" fill="#5F5F5F" stroke="#5F5F5F" stroke-width="0.5"/>
<path d="M9.59313 6.44439C9.51951 6.44335 9.44642 6.45695 9.37811 6.4844C9.30979 6.51186 9.24761 6.55261 9.19519 6.6043C9.14276 6.65599 9.10113 6.71759 9.07271 6.78551C9.0443 6.85343 9.02966 6.92632 9.02966 6.99995C9.02966 7.07357 9.0443 7.14646 9.07271 7.21438C9.10113 7.2823 9.14276 7.3439 9.19519 7.39559C9.24761 7.44728 9.30979 7.48804 9.37811 7.51549C9.44642 7.54294 9.51951 7.55654 9.59313 7.5555H15.8894C15.963 7.55654 16.0361 7.54294 16.1045 7.51549C16.1728 7.48804 16.2349 7.44728 16.2874 7.39559C16.3398 7.3439 16.3814 7.2823 16.4098 7.21438C16.4383 7.14646 16.4529 7.07357 16.4529 6.99995C16.4529 6.92632 16.4383 6.85343 16.4098 6.78551C16.3814 6.71759 16.3398 6.65599 16.2874 6.6043C16.2349 6.55261 16.1728 6.51186 16.1045 6.4844C16.0361 6.45695 15.963 6.44335 15.8894 6.44439H9.59313ZM9.59313 9.66661C9.51951 9.66557 9.44642 9.67917 9.37811 9.70663C9.30979 9.73408 9.24761 9.77483 9.19519 9.82653C9.14276 9.87822 9.10113 9.93981 9.07271 10.0077C9.0443 10.0757 9.02966 10.1485 9.02966 10.2222C9.02966 10.2958 9.0443 10.3687 9.07271 10.4366C9.10113 10.5045 9.14276 10.5661 9.19519 10.6178C9.24761 10.6695 9.30979 10.7103 9.37811 10.7377C9.44642 10.7652 9.51951 10.7788 9.59313 10.7777H15.8894C15.963 10.7788 16.0361 10.7652 16.1045 10.7377C16.1728 10.7103 16.2349 10.6695 16.2874 10.6178C16.3398 10.5661 16.3814 10.5045 16.4098 10.4366C16.4383 10.3687 16.4529 10.2958 16.4529 10.2222C16.4529 10.1485 16.4383 10.0757 16.4098 10.0077C16.3814 9.93981 16.3398 9.87822 16.2874 9.82653C16.2349 9.77483 16.1728 9.73408 16.1045 9.70663C16.0361 9.67917 15.963 9.66557 15.8894 9.66661H9.59313Z" fill="#5F5F5F" stroke="#5F5F5F" stroke-width="0.5"/>
</svg>
