<svg width="161" height="80" viewBox="0 0 161 80" fill="none" xmlns="http://www.w3.org/2000/svg">
<mask id="path-1-inside-1_6301_1654" fill="white">
<path d="M0.65332 2C0.65332 0.895429 1.54875 0 2.65332 0H159C160.105 0 161 0.895431 161 2V78C161 79.1046 160.105 80 159 80H2.65332C1.54875 80 0.65332 79.1046 0.65332 78V2Z"/>
</mask>
<path d="M0.65332 2C0.65332 0.895429 1.54875 0 2.65332 0H159C160.105 0 161 0.895431 161 2V78C161 79.1046 160.105 80 159 80H2.65332C1.54875 80 0.65332 79.1046 0.65332 78V2Z" fill="url(#paint0_linear_6301_1654)"/>
<path d="M0.65332 0H161H0.65332ZM161 78C161 79.6569 159.657 81 158 81H3.65332C1.99647 81 0.65332 79.6569 0.65332 78C0.65332 78.5523 1.54875 79 2.65332 79H159C160.105 79 161 78.5523 161 78ZM0.65332 80V0V80ZM161 0V80V0Z" fill="black" fill-opacity="0.2" mask="url(#path-1-inside-1_6301_1654)"/>
<g filter="url(#filter0_i_6301_1654)">
<path d="M8.65332 24C8.65332 21.7909 10.4442 20 12.6533 20H31.9227C34.1319 20 35.9227 21.7909 35.9227 24V80H8.65332V24Z" fill="url(#paint1_linear_6301_1654)"/>
</g>
<path d="M9.15332 24C9.15332 22.067 10.7203 20.5 12.6533 20.5H31.9227C33.8557 20.5 35.4227 22.067 35.4227 24V79.5H9.15332V24Z" stroke="black" stroke-opacity="0.04"/>
<g filter="url(#filter1_i_6301_1654)">
<path d="M37.9229 14C37.9229 11.7909 39.7137 10 41.9229 10H61.1923C63.4014 10 65.1923 11.7909 65.1923 14V80H37.9229V14Z" fill="url(#paint2_linear_6301_1654)"/>
</g>
<path d="M38.4229 14C38.4229 12.067 39.9899 10.5 41.9229 10.5H61.1923C63.1253 10.5 64.6923 12.067 64.6923 14V79.5H38.4229V14Z" stroke="black" stroke-opacity="0.04"/>
<g filter="url(#filter2_i_6301_1654)">
<path d="M67.1924 69C67.1924 66.7909 68.9832 65 71.1924 65H90.4618C92.6709 65 94.4618 66.7909 94.4618 69V80H67.1924V69Z" fill="url(#paint3_linear_6301_1654)"/>
</g>
<path d="M67.6924 69C67.6924 67.067 69.2594 65.5 71.1924 65.5H90.4618C92.3948 65.5 93.9618 67.067 93.9618 69V79.5H67.6924V69Z" stroke="black" stroke-opacity="0.04"/>
<g filter="url(#filter3_i_6301_1654)">
<path d="M96.4619 74C96.4619 71.7909 98.2528 70 100.462 70H119.731C121.94 70 123.731 71.7909 123.731 74V80H96.4619V74Z" fill="url(#paint4_linear_6301_1654)"/>
</g>
<path d="M96.9619 74C96.9619 72.067 98.5289 70.5 100.462 70.5H119.731C121.664 70.5 123.231 72.067 123.231 74V79.5H96.9619V74Z" stroke="black" stroke-opacity="0.04"/>
<g filter="url(#filter4_i_6301_1654)">
<path d="M125.73 66C125.73 63.7909 127.521 62 129.73 62H149C151.209 62 153 63.7909 153 66V80H125.73V66Z" fill="url(#paint5_linear_6301_1654)"/>
</g>
<path d="M126.23 66C126.23 64.067 127.797 62.5 129.73 62.5H149C150.933 62.5 152.5 64.067 152.5 66V79.5H126.23V66Z" stroke="black" stroke-opacity="0.04"/>
<defs>
<filter id="filter0_i_6301_1654" x="8.65332" y="20" width="27.2695" height="62" filterUnits="userSpaceOnUse" color-interpolation-filters="sRGB">
<feFlood flood-opacity="0" result="BackgroundImageFix"/>
<feBlend mode="normal" in="SourceGraphic" in2="BackgroundImageFix" result="shape"/>
<feColorMatrix in="SourceAlpha" type="matrix" values="0 0 0 0 0 0 0 0 0 0 0 0 0 0 0 0 0 0 127 0" result="hardAlpha"/>
<feOffset dy="2"/>
<feGaussianBlur stdDeviation="1"/>
<feComposite in2="hardAlpha" operator="arithmetic" k2="-1" k3="1"/>
<feColorMatrix type="matrix" values="0 0 0 0 1 0 0 0 0 1 0 0 0 0 1 0 0 0 0.6 0"/>
<feBlend mode="normal" in2="shape" result="effect1_innerShadow_6301_1654"/>
</filter>
<filter id="filter1_i_6301_1654" x="37.9229" y="10" width="27.2695" height="72" filterUnits="userSpaceOnUse" color-interpolation-filters="sRGB">
<feFlood flood-opacity="0" result="BackgroundImageFix"/>
<feBlend mode="normal" in="SourceGraphic" in2="BackgroundImageFix" result="shape"/>
<feColorMatrix in="SourceAlpha" type="matrix" values="0 0 0 0 0 0 0 0 0 0 0 0 0 0 0 0 0 0 127 0" result="hardAlpha"/>
<feOffset dy="2"/>
<feGaussianBlur stdDeviation="1"/>
<feComposite in2="hardAlpha" operator="arithmetic" k2="-1" k3="1"/>
<feColorMatrix type="matrix" values="0 0 0 0 1 0 0 0 0 1 0 0 0 0 1 0 0 0 0.6 0"/>
<feBlend mode="normal" in2="shape" result="effect1_innerShadow_6301_1654"/>
</filter>
<filter id="filter2_i_6301_1654" x="67.1924" y="65" width="27.2695" height="17" filterUnits="userSpaceOnUse" color-interpolation-filters="sRGB">
<feFlood flood-opacity="0" result="BackgroundImageFix"/>
<feBlend mode="normal" in="SourceGraphic" in2="BackgroundImageFix" result="shape"/>
<feColorMatrix in="SourceAlpha" type="matrix" values="0 0 0 0 0 0 0 0 0 0 0 0 0 0 0 0 0 0 127 0" result="hardAlpha"/>
<feOffset dy="2"/>
<feGaussianBlur stdDeviation="1"/>
<feComposite in2="hardAlpha" operator="arithmetic" k2="-1" k3="1"/>
<feColorMatrix type="matrix" values="0 0 0 0 1 0 0 0 0 1 0 0 0 0 1 0 0 0 0.6 0"/>
<feBlend mode="normal" in2="shape" result="effect1_innerShadow_6301_1654"/>
</filter>
<filter id="filter3_i_6301_1654" x="96.4619" y="70" width="27.2695" height="12" filterUnits="userSpaceOnUse" color-interpolation-filters="sRGB">
<feFlood flood-opacity="0" result="BackgroundImageFix"/>
<feBlend mode="normal" in="SourceGraphic" in2="BackgroundImageFix" result="shape"/>
<feColorMatrix in="SourceAlpha" type="matrix" values="0 0 0 0 0 0 0 0 0 0 0 0 0 0 0 0 0 0 127 0" result="hardAlpha"/>
<feOffset dy="2"/>
<feGaussianBlur stdDeviation="1"/>
<feComposite in2="hardAlpha" operator="arithmetic" k2="-1" k3="1"/>
<feColorMatrix type="matrix" values="0 0 0 0 1 0 0 0 0 1 0 0 0 0 1 0 0 0 0.6 0"/>
<feBlend mode="normal" in2="shape" result="effect1_innerShadow_6301_1654"/>
</filter>
<filter id="filter4_i_6301_1654" x="125.73" y="62" width="27.2695" height="20" filterUnits="userSpaceOnUse" color-interpolation-filters="sRGB">
<feFlood flood-opacity="0" result="BackgroundImageFix"/>
<feBlend mode="normal" in="SourceGraphic" in2="BackgroundImageFix" result="shape"/>
<feColorMatrix in="SourceAlpha" type="matrix" values="0 0 0 0 0 0 0 0 0 0 0 0 0 0 0 0 0 0 127 0" result="hardAlpha"/>
<feOffset dy="2"/>
<feGaussianBlur stdDeviation="1"/>
<feComposite in2="hardAlpha" operator="arithmetic" k2="-1" k3="1"/>
<feColorMatrix type="matrix" values="0 0 0 0 1 0 0 0 0 1 0 0 0 0 1 0 0 0 0.6 0"/>
<feBlend mode="normal" in2="shape" result="effect1_innerShadow_6301_1654"/>
</filter>
<linearGradient id="paint0_linear_6301_1654" x1="80.8268" y1="0" x2="80.8268" y2="80" gradientUnits="userSpaceOnUse">
<stop stop-color="white" stop-opacity="0"/>
<stop offset="1" stop-opacity="0.07"/>
</linearGradient>
<linearGradient id="paint1_linear_6301_1654" x1="22.288" y1="80" x2="22.288" y2="20" gradientUnits="userSpaceOnUse">
<stop stop-color="#304058"/>
<stop offset="1" stop-color="#7AA1DA"/>
</linearGradient>
<linearGradient id="paint2_linear_6301_1654" x1="51.5576" y1="80" x2="51.5576" y2="10" gradientUnits="userSpaceOnUse">
<stop stop-color="#304058"/>
<stop offset="1" stop-color="#7AA1DA"/>
</linearGradient>
<linearGradient id="paint3_linear_6301_1654" x1="80.8271" y1="80" x2="80.8271" y2="65" gradientUnits="userSpaceOnUse">
<stop stop-color="#304058"/>
<stop offset="1" stop-color="#7AA1DA"/>
</linearGradient>
<linearGradient id="paint4_linear_6301_1654" x1="110.097" y1="80" x2="110.097" y2="70" gradientUnits="userSpaceOnUse">
<stop stop-color="#304058"/>
<stop offset="1" stop-color="#7AA1DA"/>
</linearGradient>
<linearGradient id="paint5_linear_6301_1654" x1="139.365" y1="80" x2="139.365" y2="62" gradientUnits="userSpaceOnUse">
<stop stop-color="#304058"/>
<stop offset="1" stop-color="#7AA1DA"/>
</linearGradient>
</defs>
</svg>
