<svg width="8" height="8" viewBox="0 0 8 8" fill="none" xmlns="http://www.w3.org/2000/svg">
<path d="M6.52389 7.97743C6.25732 8.1673 4.54687 6.9637 4.21928 6.96105C3.89169 6.95843 2.16198 8.13435 1.89852 7.94021C1.63505 7.74607 2.25444 5.75202 2.15573 5.44055C2.05703 5.12908 0.400936 3.85207 0.504675 3.54222C0.608437 3.23237 2.70169 3.20359 2.96826 3.01371C3.23484 2.82386 3.94104 0.858708 4.26866 0.861331C4.59622 0.863976 5.27052 2.84024 5.53399 3.03437C5.79745 3.22849 7.88999 3.29098 7.98872 3.60245C8.08743 3.91392 6.41092 5.16411 6.30715 5.47396C6.20342 5.78381 6.79047 7.78755 6.52389 7.97743Z" fill="#DB4437"/>
</svg>
