<svg width="20" height="20" viewBox="0 0 20 20" fill="none" xmlns="http://www.w3.org/2000/svg">
<rect width="20" height="20" rx="1.42857" fill="#F0F0F0"/>
<path d="M10.1748 13.4327V11.6206" stroke="black" stroke-width="1.07143" stroke-miterlimit="10" stroke-linecap="round" stroke-linejoin="round"/>
<path d="M14.5999 5.32789C14.8865 5.32798 15.1704 5.38463 15.4351 5.4946C15.6998 5.60456 15.9403 5.76567 16.1427 5.96871C16.345 6.17175 16.5054 6.41272 16.6145 6.67782C16.7236 6.94292 16.7793 7.22694 16.7784 7.5136V9.97075C14.7577 11.0878 12.4799 11.6566 10.1713 11.6207C7.86493 11.6567 5.5894 11.0878 3.57129 9.97075L3.57129 7.50646C3.57138 7.21979 3.62803 6.93596 3.738 6.67122C3.84796 6.40648 4.00907 6.16603 4.21211 5.96366C4.41515 5.76128 4.65612 5.60096 4.92122 5.49186C5.18632 5.38277 5.47034 5.32704 5.757 5.32789H14.5999Z" stroke="black" stroke-width="1.07143" stroke-miterlimit="10" stroke-linecap="round" stroke-linejoin="round"/>
<path d="M12.6748 5.32486V5.06343C12.6746 4.64483 12.5082 4.24342 12.2122 3.94743C11.9162 3.65143 11.5148 3.48505 11.0962 3.48486H9.25338C8.83477 3.48505 8.43337 3.65143 8.13737 3.94743C7.84137 4.24342 7.67499 4.64483 7.6748 5.06343V5.32486" stroke="black" stroke-width="1.07143" stroke-miterlimit="10" stroke-linecap="round" stroke-linejoin="round"/>
<path d="M3.58838 12.5798L3.72338 14.372C3.76698 14.9545 4.02911 15.499 4.45722 15.8964C4.88534 16.2937 5.44783 16.5147 6.03195 16.5148H14.3177C14.9018 16.5147 15.4643 16.2937 15.8924 15.8964C16.3205 15.499 16.5826 14.9545 16.6262 14.372L16.7605 12.5798" stroke="black" stroke-width="1.07143" stroke-miterlimit="10" stroke-linecap="round" stroke-linejoin="round"/>
</svg>
