<svg width="16" height="16" viewBox="0 0 16 16" fill="none" xmlns="http://www.w3.org/2000/svg">
<path d="M14.166 7.99902C14.166 6.7793 13.8043 5.58697 13.1267 4.57281C12.449 3.55866 11.4859 2.76822 10.359 2.30145C9.23215 1.83469 7.99217 1.71256 6.79589 1.95051C5.59961 2.18847 4.50076 2.77582 3.63829 3.63829C2.77582 4.50076 2.18847 5.59961 1.95051 6.79589C1.71256 7.99218 1.83469 9.23215 2.30145 10.359C2.76822 11.4859 3.55866 12.4491 4.57281 13.1267C5.58697 13.8043 6.7793 14.166 7.99902 14.166C9.63461 14.166 11.2032 13.5163 12.3597 12.3597C13.5163 11.2032 14.166 9.63461 14.166 7.99902V7.99902Z" fill="#F6F6F6"/>
<path d="M6.83984 10.3125L9.16384 7.9985L6.83984 5.6845" stroke="#272127" stroke-miterlimit="10" stroke-linecap="round" stroke-linejoin="round"/>
</svg>
