<svg width="20" height="22" viewBox="0 0 20 22" fill="none" xmlns="http://www.w3.org/2000/svg">
<g id="Setting">
<path id="Path_33946" d="M18.6351 6.73467L18.0131 5.65467C17.7594 5.21646 17.3423 4.89671 16.8532 4.76549C16.3642 4.63428 15.843 4.70231 15.4041 4.95467C15.1885 5.08232 14.9498 5.16607 14.7018 5.20113C14.4537 5.23618 14.2012 5.22183 13.9587 5.15891C13.7162 5.09599 13.4886 4.98574 13.2889 4.8345C13.0892 4.68326 12.9213 4.49402 12.7951 4.27767C12.6307 4.00051 12.5424 3.68488 12.5391 3.36267V3.36267C12.5472 3.10637 12.5038 2.85103 12.4113 2.61185C12.3189 2.37267 12.1792 2.15452 12.0008 1.97037C11.8223 1.78622 11.6087 1.63983 11.3725 1.5399C11.1363 1.43997 10.8825 1.38854 10.6261 1.38867H9.37206C9.12145 1.38867 8.87331 1.43824 8.64194 1.53453C8.41057 1.63083 8.20054 1.77195 8.02394 1.94976C7.84733 2.12757 7.70765 2.33856 7.61294 2.57058C7.51822 2.8026 7.47034 3.05107 7.47206 3.30167V3.30167C7.46521 3.80521 7.2601 4.28573 6.90122 4.639C6.54234 4.99226 6.05864 5.18977 5.55506 5.18867C5.23284 5.18534 4.91722 5.09703 4.64006 4.93267V4.93267C4.20108 4.68031 3.67995 4.61228 3.19089 4.74349C2.70184 4.87471 2.28475 5.19446 2.03106 5.63267L1.36306 6.73267C1.11069 7.17165 1.04266 7.69278 1.17388 8.18184C1.30509 8.67089 1.62485 9.08797 2.06306 9.34167V9.34167C2.35401 9.50953 2.59563 9.75105 2.76362 10.0419C2.93161 10.3328 3.02006 10.6628 3.02006 10.9987C3.02006 11.3346 2.93161 11.6646 2.76362 11.9554C2.59563 12.2463 2.35401 12.4878 2.06306 12.6557V12.6557C1.84599 12.7801 1.65562 12.9461 1.50288 13.1442C1.35014 13.3423 1.23804 13.5687 1.173 13.8103C1.10796 14.0518 1.09127 14.3039 1.12388 14.5519C1.1565 14.8 1.23778 15.0391 1.36306 15.2557V15.2557L1.99506 16.3447C2.11699 16.5657 2.28147 16.7605 2.47903 16.9177C2.67659 17.0749 2.90331 17.1915 3.14612 17.2606C3.38893 17.3298 3.64304 17.3502 3.89378 17.3207C4.14452 17.2912 4.38694 17.2123 4.60706 17.0887V17.0887C4.82343 16.9627 5.06262 16.8809 5.31081 16.8479C5.55899 16.815 5.81125 16.8315 6.053 16.8966C6.29476 16.9617 6.52122 17.074 6.7193 17.2271C6.91738 17.3803 7.08316 17.5711 7.20706 17.7887C7.37142 18.0658 7.45972 18.3815 7.46306 18.7037C7.46306 19.211 7.6646 19.6976 8.02336 20.0564C8.38212 20.4151 8.8687 20.6167 9.37606 20.6167H10.6261C11.1312 20.6167 11.6158 20.4169 11.9742 20.061C12.3326 19.705 12.5356 19.2218 12.5391 18.7167C12.5373 18.465 12.5856 18.2154 12.6812 17.9826C12.7767 17.7497 12.9175 17.5381 13.0955 17.3601C13.2735 17.1821 13.4851 17.0413 13.7179 16.9458C13.9508 16.8502 14.2004 16.8019 14.4521 16.8037C14.7735 16.8123 15.0878 16.9002 15.3671 17.0597V17.0597C15.806 17.312 16.3272 17.3801 16.8162 17.2489C17.3053 17.1176 17.7224 16.7979 17.9761 16.3597L18.6351 15.2597C18.7617 15.0427 18.8442 14.8028 18.8775 14.5539C18.9109 14.3049 18.8946 14.0517 18.8295 13.8091C18.7644 13.5665 18.6518 13.3392 18.4983 13.1403C18.3448 12.9415 18.1533 12.775 17.9351 12.6507V12.6507C17.7168 12.5263 17.5254 12.3599 17.3718 12.161C17.2183 11.9622 17.1057 11.7349 17.0406 11.4922C16.9755 11.2496 16.9592 10.9965 16.9926 10.7475C17.0259 10.4985 17.1084 10.2586 17.2351 10.0417C17.4015 9.74987 17.6433 9.50812 17.9351 9.34167V9.34167C18.3708 9.08802 18.6889 8.67257 18.8199 8.18568C18.951 7.69879 18.8846 7.17983 18.6351 6.74167V6.74167V6.73467Z" stroke="white" stroke-width="1.5" stroke-miterlimit="10" stroke-linecap="round" stroke-linejoin="round"/>
<path id="Ellipse_737" d="M10.0029 13.6353C11.4588 13.6353 12.6389 12.4551 12.6389 10.9993C12.6389 9.54346 11.4588 8.36328 10.0029 8.36328C8.54712 8.36328 7.36694 9.54346 7.36694 10.9993C7.36694 12.4551 8.54712 13.6353 10.0029 13.6353Z" stroke="white" stroke-width="1.5" stroke-miterlimit="10" stroke-linecap="round" stroke-linejoin="round"/>
</g>
</svg>
