<svg width="14" height="13" viewBox="0 0 14 13" fill="none" xmlns="http://www.w3.org/2000/svg">
<g id="Star 1">
<path d="M5.47831 2.68328C5.9403 1.26143 6.17129 0.550501 6.51825 0.359761C6.81824 0.194837 7.18176 0.194837 7.48175 0.359761C7.82871 0.550501 8.0597 1.26143 8.52169 2.68328L8.6614 3.11327C8.79051 3.51062 8.85506 3.70929 8.97666 3.85627C9.08402 3.98606 9.22243 4.08662 9.37904 4.14862C9.55641 4.21885 9.7653 4.21885 10.1831 4.21885H10.6352C12.1302 4.21885 12.8778 4.21885 13.1664 4.48988C13.4159 4.72423 13.5283 5.06995 13.4641 5.40623C13.3899 5.79514 12.7852 6.23452 11.5757 7.11328L11.2099 7.37902C10.8719 7.62459 10.7029 7.74738 10.6007 7.90844C10.5104 8.05066 10.4576 8.21337 10.447 8.38148C10.435 8.57187 10.4996 8.77054 10.6287 9.16788L10.7684 9.59787C11.2304 11.0197 11.4614 11.7307 11.2928 12.0889C11.147 12.3987 10.8529 12.6123 10.5133 12.6552C10.1205 12.7049 9.51573 12.2655 8.30623 11.3867L7.94046 11.121C7.60246 10.8754 7.43346 10.7526 7.24869 10.7052C7.08554 10.6633 6.91446 10.6633 6.75131 10.7052C6.56654 10.7526 6.39754 10.8754 6.05954 11.121L5.69377 11.3867C4.48427 12.2655 3.87952 12.7049 3.48671 12.6552C3.14707 12.6123 2.85298 12.3987 2.70722 12.0889C2.53864 11.7307 2.76963 11.0197 3.23162 9.59787L3.37134 9.16788C3.50044 8.77054 3.56499 8.57187 3.55301 8.38148C3.54244 8.21337 3.48957 8.05066 3.39932 7.90844C3.2971 7.74738 3.1281 7.62459 2.7901 7.37902L2.42433 7.11328C1.21483 6.23452 0.610078 5.79514 0.535888 5.40623C0.47174 5.06995 0.584072 4.72423 0.833628 4.48988C1.12225 4.21885 1.86976 4.21885 3.36479 4.21885H3.81691C4.2347 4.21885 4.44359 4.21885 4.62096 4.14862C4.77757 4.08662 4.91598 3.98606 5.02334 3.85627C5.14494 3.70929 5.20949 3.51062 5.3386 3.11327L5.47831 2.68328Z" fill="url(#paint0_linear_6301_1504)" fill-opacity="0.1"/>
<path d="M5.95384 2.83779C6.18776 2.11786 6.35367 1.6086 6.5026 1.25301C6.57641 1.07678 6.63772 0.959131 6.68948 0.882019C6.73292 0.817317 6.75785 0.799026 6.76029 0.797277C6.90967 0.715664 7.09033 0.715665 7.23971 0.797277C7.24215 0.799026 7.26708 0.817317 7.31052 0.882019C7.36228 0.959131 7.42359 1.07678 7.4974 1.25301C7.64633 1.6086 7.81224 2.11786 8.04616 2.83779L8.18588 3.26778C8.19347 3.29116 8.20097 3.31435 8.2084 3.33734C8.31428 3.66488 8.4072 3.95232 8.5914 4.17498L8.97666 3.85627L8.5914 4.17498C8.75245 4.36966 8.96006 4.5205 9.19498 4.61351L9.37904 4.14862L9.19498 4.61351C9.46366 4.71989 9.76575 4.71944 10.11 4.71892C10.1341 4.71888 10.1585 4.71885 10.1831 4.71885H10.6352C11.3922 4.71885 11.9278 4.71927 12.312 4.75103C12.5024 4.76677 12.6333 4.78872 12.7226 4.81412C12.7975 4.83542 12.8226 4.85347 12.8251 4.85527C12.9488 4.97212 13.0047 5.14394 12.9732 5.31124C12.9723 5.3141 12.9626 5.34346 12.9145 5.40476C12.8572 5.47782 12.7642 5.57248 12.6194 5.69714C12.3273 5.94866 11.8942 6.26382 11.2818 6.70877L10.916 6.97451C10.8961 6.98896 10.8764 7.00326 10.8568 7.01743C10.578 7.21934 10.3334 7.39654 10.1785 7.64053C10.0431 7.85386 9.96384 8.09792 9.94797 8.35009C9.92983 8.6385 10.0236 8.92566 10.1305 9.25288C10.138 9.27585 10.1455 9.29901 10.1531 9.32239L10.2928 9.75238C10.5268 10.4723 10.6919 10.9818 10.7804 11.357C10.8243 11.543 10.8438 11.6742 10.8473 11.767C10.8502 11.8449 10.8408 11.8743 10.8398 11.8772C10.7669 12.031 10.6208 12.1372 10.4519 12.159C10.4489 12.159 10.418 12.1589 10.3448 12.1321C10.2576 12.1001 10.1389 12.041 9.97559 11.9418C9.64609 11.7416 9.21253 11.4272 8.60012 10.9822L8.23435 10.7165C8.21446 10.702 8.19477 10.6877 8.17524 10.6734C7.89706 10.4707 7.65293 10.2928 7.37304 10.2209C7.12831 10.1581 6.87169 10.1581 6.62696 10.2209C6.34707 10.2928 6.10294 10.4707 5.82476 10.6734C5.80523 10.6877 5.78554 10.702 5.76565 10.7165L5.39988 10.9822C4.78747 11.4272 4.35391 11.7416 4.02441 11.9418C3.86111 12.041 3.74236 12.1001 3.65515 12.1321C3.58198 12.1589 3.55106 12.159 3.54806 12.159C3.37924 12.1372 3.23308 12.031 3.1602 11.8772C3.15925 11.8743 3.14984 11.8449 3.15273 11.767C3.15617 11.6742 3.17573 11.543 3.2196 11.357C3.30812 10.9818 3.47323 10.4723 3.70715 9.75238L3.84686 9.32239C3.85446 9.29901 3.86203 9.27584 3.86953 9.25288C3.97639 8.92566 4.07017 8.63849 4.05203 8.35009C4.03616 8.09793 3.95686 7.85386 3.82148 7.64053C3.66664 7.39654 3.42198 7.21935 3.14319 7.01743C3.12362 7.00326 3.10388 6.98896 3.08399 6.97451L2.71822 6.70877C2.10581 6.26382 1.67274 5.94866 1.38059 5.69714C1.23579 5.57248 1.14284 5.47782 1.0855 5.40476C1.0374 5.34348 1.0277 5.31411 1.02679 5.31124C0.995329 5.14394 1.05116 4.97213 1.17494 4.85527C1.17737 4.85348 1.20248 4.83543 1.27741 4.81412C1.36674 4.78872 1.49758 4.76677 1.688 4.75103C2.0722 4.71927 2.60781 4.71885 3.36479 4.71885H3.81691C3.84149 4.71885 3.86586 4.71888 3.89002 4.71892C4.23425 4.71944 4.53633 4.71989 4.80502 4.61351L4.62096 4.14862L4.80502 4.61351C5.03993 4.5205 5.24755 4.36966 5.4086 4.17498C5.5928 3.95232 5.68572 3.66488 5.7916 3.33735C5.79903 3.31436 5.80653 3.29116 5.81412 3.26778L5.95384 2.83779Z" stroke="url(#paint1_linear_6301_1504)" stroke-opacity="0.8"/>
</g>
<defs>
<linearGradient id="paint0_linear_6301_1504" x1="82.6" y1="47.95" x2="72.0546" y2="-12.769" gradientUnits="userSpaceOnUse">
<stop stop-color="#9C1652"/>
<stop offset="0.32" stop-color="#D6224D"/>
<stop offset="0.67" stop-color="#ED5C4A"/>
<stop offset="1" stop-color="#F8AC4E"/>
</linearGradient>
<linearGradient id="paint1_linear_6301_1504" x1="82.6" y1="47.95" x2="72.0546" y2="-12.769" gradientUnits="userSpaceOnUse">
<stop stop-color="#9C1652"/>
<stop offset="0.32" stop-color="#D6224D"/>
<stop offset="0.67" stop-color="#ED5C4A"/>
<stop offset="1" stop-color="#F8AC4E"/>
</linearGradient>
</defs>
</svg>
