<svg width="20" height="21" viewBox="0 0 20 21" fill="none" xmlns="http://www.w3.org/2000/svg">
<g id="798_group">
<path id="799_vector" d="M10 19.75C11.8295 19.75 13.6179 19.2075 15.139 18.1911C16.6602 17.1747 17.8458 15.73 18.5459 14.0398C19.246 12.3496 19.4292 10.4897 19.0723 8.69541C18.7154 6.90109 17.8344 5.2529 16.5407 3.95926C15.2471 2.66563 13.5989 1.78465 11.8046 1.42774C10.0103 1.07082 8.15039 1.254 6.46018 1.95411C4.76996 2.65423 3.32531 3.83982 2.30891 5.36098C1.2925 6.88213 0.75 8.67052 0.75 10.5C0.75 12.9533 1.72455 15.306 3.45926 17.0407C5.19397 18.7754 7.54675 19.75 10 19.75V19.75Z" fill="#644BFD" stroke="#644BFD" stroke-width="1.5" stroke-miterlimit="10" stroke-linecap="round" stroke-linejoin="round"/>
<path id="800_vector" d="M6.43994 10.498L8.81394 12.871L13.5599 8.125" stroke="white" stroke-width="1.5" stroke-miterlimit="10" stroke-linecap="round" stroke-linejoin="round"/>
</g>
</svg>
