<svg width="24" height="24" viewBox="0 0 24 24" fill="none" xmlns="http://www.w3.org/2000/svg">
<path d="M21.8135 13.9222C22.2291 11.8007 21.9459 9.60176 21.0066 7.65476C20.0673 5.70775 18.5223 4.11758 16.6032 3.12248C14.6841 2.12738 12.4942 1.78096 10.3617 2.13513C8.22912 2.48931 6.26875 3.52499 4.77434 5.08702C3.27992 6.64902 2.33192 8.65327 2.07236 10.7994C1.81279 12.9455 2.2557 15.1179 3.33465 16.9912C4.4136 18.8644 6.07056 20.3376 8.05717 21.1901C10.0438 22.0423 12.2532 22.2279 14.3542 21.7191" stroke="#5F5F5F" stroke-width="1.5" stroke-linecap="round"/>
<path d="M18.3415 15.1709V21.0246M21.1871 18.0164L15.4147 18.0977" stroke="#5F5F5F" stroke-width="1.5" stroke-linecap="round" stroke-linejoin="round"/>
<path d="M8 12L9 13C9.66667 13.8333 11.4 15.1 13 13.5C14.6 11.9 16.3333 9.83333 17 9" stroke="#5F5F5F" stroke-width="1.5" stroke-linecap="round" stroke-linejoin="round"/>
</svg>
