<svg width="20" height="21" viewBox="0 0 20 21" fill="none" xmlns="http://www.w3.org/2000/svg">
<g id="Component 2367">
<path id="Vector" d="M4 17.5V16.25H16V17.5H4ZM10 14.1667C8.55714 14.1667 7.33929 13.6875 6.34643 12.7292C5.35357 11.7708 4.85714 10.5972 4.85714 9.20833V2.5H6.57143V9.25C6.57143 10.1667 6.9 10.9375 7.55714 11.5625C8.21429 12.1875 9.02857 12.5 10 12.5C10.9714 12.5 11.7857 12.1875 12.4429 11.5625C13.1 10.9375 13.4286 10.1667 13.4286 9.25V2.5H15.1429V9.20833C15.1429 10.5972 14.6464 11.7708 13.6536 12.7292C12.6607 13.6875 11.4429 14.1667 10 14.1667Z" fill="#7A797D"/>
</g>
</svg>
