<svg width="20" height="20" viewBox="0 0 20 20" fill="none" xmlns="http://www.w3.org/2000/svg">
<path d="M4 17V15.75H16V17H4ZM10 13.6667C8.55714 13.6667 7.33929 13.1875 6.34643 12.2292C5.35357 11.2708 4.85714 10.0972 4.85714 8.70833V2H6.57143V8.75C6.57143 9.66667 6.9 10.4375 7.55714 11.0625C8.21429 11.6875 9.02857 12 10 12C10.9714 12 11.7857 11.6875 12.4429 11.0625C13.1 10.4375 13.4286 9.66667 13.4286 8.75V2H15.1429V8.70833C15.1429 10.0972 14.6464 11.2708 13.6536 12.2292C12.6607 13.1875 11.4429 13.6667 10 13.6667Z" fill="#644BFD"/>
</svg>
