<svg width="20" height="21" viewBox="0 0 20 21" fill="none" xmlns="http://www.w3.org/2000/svg">
<g id="Component 2369">
<path id="229_vector" d="M2.42105 9.11538C1.66316 9.11538 1 9.76154 1 10.5C1 11.2385 1.66316 11.8846 2.42105 11.8846C3.17895 11.8846 3.84211 11.2385 3.84211 10.5C3.84211 9.76154 3.17895 9.11538 2.42105 9.11538ZM2.42105 4.5C1.66316 4.5 1 5.14615 1 5.88462C1 6.62308 1.66316 7.26923 2.42105 7.26923C3.17895 7.26923 3.84211 6.62308 3.84211 5.88462C3.84211 5.14615 3.17895 4.5 2.42105 4.5ZM2.42105 13.7308C1.66316 13.7308 1 14.3769 1 15.1154C1 15.8538 1.66316 16.5 2.42105 16.5C3.17895 16.5 3.84211 15.8538 3.84211 15.1154C3.84211 14.3769 3.17895 13.7308 2.42105 13.7308ZM5.73684 4.96154V6.80769H19V4.96154H5.73684ZM5.73684 16.0385H19V14.1923H5.73684V16.0385ZM5.73684 11.4231H19V9.57692H5.73684V11.4231Z" fill="#7A797D"/>
</g>
</svg>
