<svg width="20" height="20" viewBox="0 0 20 20" fill="none" xmlns="http://www.w3.org/2000/svg">
<path d="M2.42105 8.61538C1.66316 8.61538 1 9.26154 1 10C1 10.7385 1.66316 11.3846 2.42105 11.3846C3.17895 11.3846 3.84211 10.7385 3.84211 10C3.84211 9.26154 3.17895 8.61538 2.42105 8.61538ZM2.42105 4C1.66316 4 1 4.64615 1 5.38462C1 6.12308 1.66316 6.76923 2.42105 6.76923C3.17895 6.76923 3.84211 6.12308 3.84211 5.38462C3.84211 4.64615 3.17895 4 2.42105 4ZM2.42105 13.2308C1.66316 13.2308 1 13.8769 1 14.6154C1 15.3538 1.66316 16 2.42105 16C3.17895 16 3.84211 15.3538 3.84211 14.6154C3.84211 13.8769 3.17895 13.2308 2.42105 13.2308ZM5.73684 4.46154V6.30769H19V4.46154H5.73684ZM5.73684 15.5385H19V13.6923H5.73684V15.5385ZM5.73684 10.9231H19V9.07692H5.73684V10.9231Z" fill="#644BFD"/>
</svg>
