<svg width="80" height="80" viewBox="0 0 80 80" fill="none" xmlns="http://www.w3.org/2000/svg">
<g id="Upload">
<g id="Group 53037">
<g id="Group 53036">
<path id="Vector" d="M49.2135 27.3984H15.666V29.6962H49.2135V27.3984Z" fill="#0C0C0F"/>
<path id="Vector_2" d="M49.2135 35.1484H15.666V37.4433H49.2135V35.1484Z" fill="#0C0C0F"/>
<path id="Vector_3" d="M49.2135 19.0625H15.666V21.3572H49.2135V19.0625Z" fill="#0C0C0F"/>
<path id="Vector_4" d="M49.2135 43.4766H15.666V45.7713H49.2135V43.4766Z" fill="#0C0C0F"/>
<path id="Vector_5" d="M16.2819 73.1272H9.77344H8.14876C7.84297 73.1305 7.69672 73.1272 7.49625 73.0997C7.30266 73.0722 7.11188 73.0289 6.92188 72.9644C6.19485 72.7127 5.5661 72.1453 5.23954 71.438C5.07282 71.0844 4.98126 70.7002 4.96751 70.3099L4.96063 68.7263V65.4738V58.9655V45.952V19.9222V13.4181V10.1613V9.34938C4.96063 9.19672 4.96063 9.125 4.9711 9.02328C4.97438 8.92484 4.98813 8.82656 5.00501 8.73125C5.06954 8.34703 5.21235 7.97969 5.42313 7.65047C5.84126 6.99125 6.53454 6.51172 7.29251 6.35828C7.4861 6.31781 7.67985 6.29781 7.87672 6.29781H8.68204H10.3136H16.8181H42.8445H55.8611H56.6736H56.8772H57.0541C57.153 6.30109 57.2516 6.30719 57.3467 6.31781C57.7341 6.36547 58.1047 6.49156 58.4475 6.68531C59.1238 7.06844 59.637 7.73828 59.8278 8.49297C59.8784 8.67938 59.9055 8.87297 59.9192 9.07109L59.923 9.21688V9.41703V9.82141V11.4494V14.7019V40.732H62.2133V14.702V11.4494V9.82141V9.41703V9.20969L62.2097 8.94797C62.1928 8.60531 62.1419 8.25828 62.0536 7.92141C61.71 6.56563 60.7994 5.38359 59.5894 4.69328C58.9875 4.34625 58.3119 4.12281 57.6219 4.04016C57.4552 4.01703 57.2783 4.00641 57.1053 4.00328L56.877 4H56.6734H55.8609H42.8444H16.8183H10.3139H8.68219H7.86657C7.51672 4.00328 7.17329 4.03703 6.82969 4.10906C5.46016 4.3875 4.23344 5.24047 3.48938 6.41344C3.11516 6.99766 2.85704 7.66016 2.74469 8.34703C2.71469 8.51656 2.69391 8.68984 2.68016 8.86359C2.66704 9.02984 2.66704 9.23109 2.66704 9.34938V10.1613V13.4181V19.9222V45.9522V58.9656V65.4739V68.7264V69.5381V69.9455C2.66704 70.0822 2.66329 70.2083 2.67016 70.3944C2.69719 71.0878 2.86079 71.7808 3.15594 72.4094C3.74391 73.6744 4.85532 74.6769 6.16704 75.1319C6.50063 75.2442 6.83657 75.3256 7.18329 75.3733C7.51297 75.4239 7.91422 75.4239 8.1486 75.4239H9.77313H16.2816H29.2944H55.3275V73.127H29.2947H16.2819V73.1272Z" fill="#0C0C0F"/>
<path id="Vector_6" d="M36.496 59.5859H15.666V61.8806H36.496V59.5859Z" fill="#0C0C0F"/>
<path id="Vector_7" d="M36.496 51.25H15.666V53.5466H36.496V51.25Z" fill="#0C0C0F"/>
<circle id="Ellipse 13716" cx="62.7756" cy="58.3776" r="14.6667" fill="#0C0C0F"/>
</g>
<path id="Stroke 3" d="M58.6665 57.9306L62.2221 61.4861L69.3332 54.375" stroke="white" stroke-width="2.13333" stroke-miterlimit="10" stroke-linecap="round" stroke-linejoin="round"/>
</g>
</g>
</svg>
