<svg width="122" height="122" viewBox="0 0 122 122" fill="none" xmlns="http://www.w3.org/2000/svg">
<g id="Upload">
<g id="Group 53035">
<path id="Vector" d="M74.9594 41.8984H24.1299V45.38H74.9594V41.8984Z" fill="#0C0C0F"/>
<path id="Vector_2" d="M74.9594 53.6406H24.1299V57.1177H74.9594V53.6406Z" fill="#0C0C0F"/>
<path id="Vector_3" d="M74.9594 29.2734H24.1299V32.7502H74.9594V29.2734Z" fill="#0C0C0F"/>
<path id="Vector_4" d="M74.9594 66.2734H24.1299V69.7502H74.9594V66.2734Z" fill="#0C0C0F"/>
<path id="Vector_5" d="M25.0632 111.191H15.2019H12.7403C12.277 111.196 12.0554 111.191 11.7516 111.15C11.4583 111.108 11.1693 111.042 10.8814 110.945C9.77982 110.563 8.82717 109.704 8.33238 108.632C8.07978 108.096 7.94104 107.514 7.92021 106.923L7.90979 104.523V99.5952V89.7341V70.0168V30.5777V20.723V15.7884V14.5582C7.90979 14.3269 7.90979 14.2183 7.92566 14.0642C7.93063 13.915 7.95146 13.7661 7.97703 13.6217C8.0748 13.0395 8.29119 12.483 8.61055 11.9841C9.24407 10.9853 10.2945 10.2588 11.4429 10.0263C11.7363 9.96496 12.0298 9.93466 12.3281 9.93466H13.5483H16.0204H25.8757H65.3097H85.0317H86.2628H86.5713H86.8392C86.9891 9.93963 87.1385 9.94886 87.2827 9.96496C87.8696 10.0372 88.4311 10.2282 88.9505 10.5218C89.9751 11.1023 90.7528 12.1172 91.0419 13.2607C91.1186 13.5431 91.1596 13.8364 91.1804 14.1366L91.1861 14.3575V14.6607V15.2734V17.7401V22.6681V62.1077H94.6562V22.6683V17.7401V15.2734V14.6607V14.3466L94.6508 13.95C94.6252 13.4309 94.548 12.9051 94.4143 12.3946C93.8937 10.3404 92.514 8.54948 90.6806 7.50355C89.7687 6.97775 88.745 6.6392 87.6996 6.51397C87.447 6.47893 87.179 6.46283 86.9169 6.4581L86.571 6.45312H86.2625H85.0315H65.3094H25.8759H16.0208H13.5485H12.3127C11.7827 6.4581 11.2623 6.50923 10.7417 6.61837C8.66666 7.04025 6.80799 8.33262 5.68063 10.1098C5.11363 10.995 4.72253 11.9988 4.55231 13.0395C4.50686 13.2964 4.47537 13.5589 4.45454 13.8222C4.43465 14.0741 4.43465 14.379 4.43465 14.5582V15.7884V20.723V30.5777V70.0171V89.7344V99.5954V104.523V105.753V106.371C4.43465 106.578 4.42897 106.769 4.43939 107.051C4.48034 108.101 4.72821 109.151 5.17542 110.104C6.06628 112.02 7.75023 113.539 9.73768 114.229C10.2431 114.399 10.7521 114.522 11.2775 114.594C11.777 114.671 12.3849 114.671 12.7401 114.671H15.2015H25.0627H44.7791H84.2232V111.191H44.7796H25.0632V111.191Z" fill="#0C0C0F"/>
<path id="Vector_6" d="M55.6905 90.6719H24.1299V94.1487H55.6905V90.6719Z" fill="#0C0C0F"/>
<path id="Vector_7" d="M55.6905 78.0469H24.1299V81.5265H55.6905V78.0469Z" fill="#0C0C0F"/>
<circle id="Ellipse 13716" cx="95.5079" cy="88.8394" r="22.2222" fill="#0C0C0F"/>
<g id="Group 53034">
<path id="Stroke 1" d="M95.6221 79.0994L95.6221 97.2812" stroke="white" stroke-width="3.23232" stroke-miterlimit="10" stroke-linecap="round" stroke-linejoin="round"/>
<path id="Stroke 3" d="M89.4473 84.8125L95.5079 78.727L101.568 84.8125" stroke="white" stroke-width="3.23232" stroke-miterlimit="10" stroke-linecap="round" stroke-linejoin="round"/>
</g>
</g>
</g>
</svg>
