<svg width="42" height="42" viewBox="0 0 42 42" fill="none" xmlns="http://www.w3.org/2000/svg">
<g id="7025_group">
<path id="7026_vector" d="M42 21C42 9.40202 32.598 0 21 0C9.40202 0 0 9.40202 0 21C0 32.598 9.40202 42 21 42C32.598 42 42 32.598 42 21Z" fill="#D2D2D3"/>
<g id="7027_group">
<path id="7028_vector" d="M21 24C17.7634 24 15 24.4973 15 26.4911C15 28.485 17.7468 29 21 29C24.2366 29 27 28.5018 27 26.5089C27 24.516 24.2541 24 21 24Z" fill="white" stroke="#272127" stroke-width="2" stroke-linecap="round" stroke-linejoin="round"/>
<path id="7029_vector" d="M21.0134 21C22.0731 20.9964 23.0881 20.5725 23.8355 19.8213C24.583 19.0701 25.0018 18.053 25 16.9933C24.9982 15.9336 24.576 14.9179 23.8261 14.1692C23.0761 13.4205 22.0597 13 21 13C19.9403 13 18.9239 13.4205 18.1739 14.1692C17.424 14.9179 17.0018 15.9336 17 16.9933C16.9982 18.053 17.417 19.0701 18.1645 19.8213C18.9119 20.5725 19.9269 20.9964 20.9866 21H21.0134Z" fill="white" stroke="#272127" stroke-width="2" stroke-linecap="round" stroke-linejoin="round"/>
</g>
</g>
</svg>