<svg width="12" height="11" viewBox="0 0 12 11" fill="none" xmlns="http://www.w3.org/2000/svg">
<path id="Star 1" d="M5.23916 1.34164C5.47015 0.630713 5.58565 0.27525 5.75912 0.17988C5.90912 0.0974182 6.09088 0.0974182 6.24088 0.17988C6.41435 0.27525 6.52985 0.630714 6.76085 1.34164L7.39199 3.28409C7.45654 3.48277 7.48882 3.5821 7.54961 3.65559C7.6033 3.72049 7.6725 3.77077 7.75081 3.80177C7.83949 3.83688 7.94394 3.83688 8.15283 3.83688H10.1953C10.9428 3.83688 11.3165 3.83688 11.4608 3.9724C11.5856 4.08957 11.6418 4.26243 11.6097 4.43057C11.5726 4.62503 11.2702 4.84472 10.6655 5.28409L9.01313 6.4846C8.84413 6.60738 8.75963 6.66878 8.70852 6.74931C8.66339 6.82042 8.63696 6.90177 8.63167 6.98583C8.62568 7.08102 8.65796 7.18035 8.72251 7.37902L9.35365 9.32148C9.58465 10.0324 9.70014 10.3879 9.61585 10.567C9.54297 10.7219 9.39593 10.8287 9.22611 10.8502C9.0297 10.875 8.72733 10.6553 8.12258 10.2159L6.47023 9.0154C6.30123 8.89262 6.21673 8.83122 6.12434 8.8075C6.04277 8.78656 5.95723 8.78656 5.87566 8.8075C5.78327 8.83122 5.69877 8.89262 5.52977 9.0154L3.87742 10.2159C3.27267 10.6553 2.9703 10.875 2.77389 10.8502C2.60407 10.8287 2.45703 10.7219 2.38415 10.567C2.29986 10.3879 2.41535 10.0324 2.64635 9.32148L3.27749 7.37902C3.34204 7.18035 3.37432 7.08102 3.36833 6.98583C3.36304 6.90177 3.33661 6.82042 3.29148 6.74931C3.24037 6.66878 3.15587 6.60738 2.98687 6.4846L1.33452 5.28409C0.729772 4.84472 0.427397 4.62503 0.390302 4.43057C0.358228 4.26243 0.414394 4.08957 0.539172 3.9724C0.683482 3.83688 1.05724 3.83688 1.80475 3.83688H3.84717C4.05606 3.83688 4.16051 3.83688 4.24919 3.80177C4.3275 3.77077 4.3967 3.72049 4.45039 3.65559C4.51118 3.5821 4.54346 3.48277 4.60801 3.28409L5.23916 1.34164Z" fill="url(#paint0_linear_6301_1737)"/>
<defs>
<linearGradient id="paint0_linear_6301_1737" x1="64.8" y1="37.85" x2="56.598" y2="-9.3759" gradientUnits="userSpaceOnUse">
<stop stop-color="#9C1652"/>
<stop offset="0.32" stop-color="#D6224D"/>
<stop offset="0.67" stop-color="#ED5C4A"/>
<stop offset="1" stop-color="#F8AC4E"/>
</linearGradient>
</defs>
</svg>
