<svg width="9" height="8" viewBox="0 0 9 8" fill="none" xmlns="http://www.w3.org/2000/svg">
<path d="M6.98483 7.97743C6.71826 8.1673 5.00781 6.9637 4.68021 6.96105C4.35262 6.95843 2.62292 8.13435 2.35945 7.94021C2.09599 7.74607 2.71538 5.75202 2.61667 5.44055C2.51796 5.12908 0.861874 3.85207 0.965613 3.54222C1.06937 3.23237 3.16263 3.20359 3.4292 3.01371C3.69577 2.82386 4.40198 0.858708 4.72959 0.861331C5.05716 0.863976 5.73146 2.84024 5.99492 3.03437C6.25839 3.22849 8.35093 3.29098 8.44966 3.60245C8.54837 3.91392 6.87185 5.16411 6.76809 5.47396C6.66435 5.78381 7.25141 7.78755 6.98483 7.97743Z" fill="#F4B400"/>
</svg>
